<?xml version="1.0" encoding="utf-8"?>
<!-- Generator: Adobe Illustrator 22.0.1, SVG Export Plug-In . SVG Version: 6.00 Build 0)  -->
<svg version="1.1" id="Kyle_s_Killer_Cold_Brew" xmlns="http://www.w3.org/2000/svg" xmlns:xlink="http://www.w3.org/1999/xlink"
	 x="0px" y="0px" viewBox="0 0 870.1 589.2" style="enable-background:new 0 0 870.1 589.2;" xml:space="preserve">
<style type="text/css">
	.st0{fill:#664233;}
	.st1{fill:#6D4B3D;}
	.st2{fill:#795A4D;}
	.st3{fill:#BFB0AA;}
	.st4{fill:#010100;}
	.st5{fill:#040202;}
	.st6{fill:#050302;}
	.st7{fill:#050303;}
	.st8{fill:#080504;}
	.st9{fill:none;stroke:#000000;stroke-width:20;stroke-miterlimit:10;}
	.st10{fill:#FFFFFF;}
</style>
<title>kyles killer cold brew</title>
<path class="st0" d="M857.3,231.4c1,1.5,1.4,3,3.1,4.3c1.2,0.9,0.9,4,1,6.1c0.3,4.8,0.8,9.5,0.6,14.3c-0.2,4.7-1,9.4-1.5,14
	c-0.2,1.1-0.2,2.1,0,3.2c1.1,4.6-0.6,8.9-1.3,13.3c-0.6,3.7-1.4,7.3-2.5,10.9c-1.7,5.6-3.5,11.1-5.6,16.5c-2.2,5.6-4.7,11-7.2,16.5
	c-2.7,5.8-5.3,11.6-8.2,17.3c-2.5,4.9-5.2,9.7-8.1,14.3c-3.9,6.1-8.1,12-12.2,18c-2.5,3.6-4.9,7.3-7.2,11.1c-0.8,1.3-1.1,3-1.8,4.4
	c-1.3,2.8-2.7,5.5-4.1,8.1c-0.6,1.3-1.4,2.4-2.3,3.5c-0.6,0.8-1.5,1.3-2.5,1.6c-3.5,0.4-5.5,2.8-7.7,5c-5.3,5.3-10.3,10.7-15.6,16
	c-4.6,4.6-9.4,9-14.2,13.4c-2.2,2-4.2,4.1-7.2,5.1c-2.2,0.8-4.1,2.5-6,4c-0.2,0.1,0.2,1.1,0.4,1.8c-1.5,0.7-3.4,1.2-4.8,2.4
	c-1.7,1.3-4.6,1.4-4.5,4.8c0,0.7-2.6,2.3-3.8,2.1c-3-0.4-4.6,1.5-6.7,2.8c-7.7,4.8-15.3,9.5-23,14.2c-5.8,3.5-11.7,7.2-17.7,10.5
	C679,495,671,499,663,503c-7.6,3.8-15.2,7.7-22.8,11.3c-7.3,3.5-14.7,6.7-22.1,10c-4.5,2-8.9,4.2-13.5,6.1c-3,1.3-6.2,2.4-9.3,3.5
	c-7.2,2.6-14.3,5.2-21.5,7.8c-5.9,2.2-11.9,4.2-17.8,6.4c-7.4,2.7-14.6,5.9-22.2,8.1c-8.6,2.5-17.4,4.5-26.2,6.3
	c-12.9,2.7-25.9,5.2-38.8,7.7c-4.5,0.9-9,1.3-13.5,2c-6.7,1.1-13.4,2.5-20.1,3.4c-5.6,0.9-11,2.5-16.2,4.6c-1.3,0.4-2.7,0.1-3.9-0.7
	c-2.2-1.9-4.6-0.8-6.8-0.7c-4.9,0.2-9.8,0.7-14.7,1.1c-3.9,0.3-7.8,0.7-11.6,1c-8.3,0.6-16.5,1.4-24.8,1.8
	c-4.1,0.2-8.4,1.2-12.2-1.5c-4-2.8-8.6-1.4-12.9-1.7c-12.7-0.9-25.2-2.6-37.7-5.1c-2.3-0.4-4.7-0.2-6.8,0.6c-3.3,1.4-7,1.8-10.6,1.1
	c-6.7-1.3-13.4-2.2-20.1-3.4c-9-1.7-18-3.5-26.9-5.4c-4.6-1-9.1-2.2-13.5-3.6c-5.4-1.6-10.8-3.3-16.1-5.2c-5.9-2.2-11.7-4.7-17.6-7
	c-5.2-2-10.6-3.7-15.7-6.1c-6.3-2.9-12.4-6.2-18.4-9.6c-6.8-3.7-13.5-7.5-20-11.5c-3.5-2.4-7-4.9-10.2-7.6c-2.8-2-5.5-4.1-8-6.4
	c-3.5-3.3-6.7-6.9-9.8-10.5c-2.9-3.2-5.5-6.6-8.3-9.9c-4.8-5.5-9.2-11.3-12.4-18c-1.7-3.6-4.3-6.9-6.1-10.5
	c-1.4-3.1-2.5-6.3-3.4-9.6c-1.7-5.5-3.2-11-4.8-16.5c-1.2-4.2-2.3-8.4-3.5-12.6c-1-3.2-2-6.3-3.1-9.5c-0.2-0.8-0.5-1.5-0.7-2.2
	c-5.7-2-11.4-3.7-17-6c-2.4-1-4.4-3.2-6.2-5.1c-2.8-2.7-5.2-5.7-7.4-8.8c-1.9-3-3.6-5.8-6.7-7.7c-1.2-0.7-1.5-2.9-2.1-4.5
	c-1.7-4.8-3.3-9.5-4.9-14.3c-0.3-0.8-0.4-1.6-0.6-2.5c-1.7-6.8-3.5-13.7-5.1-20.5c-0.9-4.5-0.8-9,0.2-13.5c1.7-9,4.1-17.9,5.1-26.9
	c0.6-4.7,1.7-9.3,3.4-13.8c1.5-4.4,3.7-8.6,5.4-13c1.9-4.9,3.5-10,5.5-14.8c2.2-5.1,4.8-10.1,7.1-15.1c1.5-3.4,2.9-6.9,4.4-10.2
	c1.2-2.6,2.4-5.2,3.8-7.7c1.5-2.8,3.1-5.4,4.7-8.1c2.2-3.8,4.5-7.6,6.8-11.4c3.8-6.2,7.4-12.6,11.5-18.7c3.3-4.9,7.1-9.4,10.7-14
	c2.1-2.7,4.5-5.2,6.7-7.9c2.4-2.9,4.9-5.9,7.2-8.9s4.6-6.1,7-9.1c0.8-0.9,1.8-1.6,2.7-2.3c2.9-2.5,5.8-4.9,8.6-7.4
	c3.6-3.3,7.1-6.7,10.6-10.1c4.6-4.3,9.4-8.4,13.7-13c2.9-3.1,6.5-5.1,10-7.3c4.2-2.7,8.3-5.5,12.5-8.1c3.9-2.4,7.8-4.8,11.8-7
	c5.7-3.1,11.4-6.2,17.3-9c5.3-2.6,10.8-4.8,16.1-7.5c3.9-2,7.5-4.4,11.3-6.5c2.5-1.5,5.1-2.7,7.9-3.7c4.3-1.4,8.2-3.8,11.4-7
	c3.7-3.5,8.4-4.8,12.8-6.9c3.3-1.6,6.9-2.8,10.3-4.2c7.3-2.9,14.5-6.2,22.1-8.6c11.7-3.7,23.6-6.9,35.4-10.1
	c7.5-2.1,15.1-3.9,22.7-5.8c4.4-1.1,8.8-2.5,13.2-3.4c7.6-1.5,15.2-2.8,22.8-3.9c6-0.9,12.1-1.6,18.2-2.3c5.8-0.7,11.5-1.2,17.3-1.9
	s11.5-1.5,17.3-1.9c3.5-0.2,7,0.2,10.5,0.3c4.2,0.1,8.5,0,12.7,0.1c6.5,0.2,12.9,0.5,19.4,0.8c7.8,0.4,15.6,0.8,23.5,1.1
	c4,0.1,8.1-0.1,12.1,0c2.3,0,4.6,0.1,7,0.3c6.7,0.7,13.4,0.7,20.1,0.1c3.3-0.4,6.8,0.4,10.2,0.5c3.8,0.1,7.7,0.1,11.5,0
	c1.9,0,3.8-0.3,5.7-0.2c5,0.4,9.9,0.7,14.7,2.5c5.1,1.9,10.7,2.4,16,3.8c4.1,1,8.1,2.2,12.2,3.4c3.1,0.9,6.2,1.8,9.2,2.8
	c5.2,1.7,10.3,3.4,15.5,5.1c4.1,1.3,8.3,2.4,12.3,3.8c5,1.8,10,3.8,15.1,5.7c2.6,1,5.3,1.7,7.9,2.7c3.8,1.5,7.5,3.2,11.2,4.9
	c3.5,1.5,6.9,3,10.3,4.7s6.4,3.6,9.7,5.4c2.3,1.2,4.8,2.3,7.1,3.5c4.6,2.5,9.3,4.9,13.8,7.6c3.9,2.4,7.5,5.3,11.1,8
	c5.8,4.3,11.6,8.6,17.3,13.1c6.1,4.8,12.2,9.7,18.1,14.6c3.5,2.8,6.8,5.8,10,9c5.1,5.2,9.8,10.7,14.9,15.8c1.6,1.6,3.8,2.5,5.6,4
	c3.8,3.2,8.2,4.9,12.9,6.6c4.3,1.6,8,4.6,12,6.7c2,1.1,4.4,1.4,6.5,2.4c2,1,3.9,2.1,5.7,3.3c2.2,1.2,4.4,2.6,6.5,4.1
	c2,1.7,3.9,3.5,5.7,5.5c1.6,1.7,3.2,3.4,4.6,5.2c2.1,2.7,4.2,5.5,6,8.4c1.1,1.5,1.9,3.3,2.3,5.1c1,4.8,1.8,9.6,2.4,14.5
	c0.7,5.3,1,10.7,1.6,16.1c0.3,1.8,0.5,3.6,0.8,5.3c0.2,0.8,0.4,1.6,0.6,2.4c0.1,0.4,0.2,0.8,0.2,1.2c0.2,0.7,0.3,1.4,0.5,2.2
	c0.2,1.8,0.5,3.5,0.7,5.2l0.2,1.5C857.3,230.4,857.3,230.9,857.3,231.4z M195.5,498.2c-1.6,0.3-3.1,0.7-4.5,1.3
	c-1.2,0.6-3.3,0.1-3.3,2.3c0,1.9-0.5,3.7,1.8,5s4,3.4,5.9,5.2c0.4,0.3,0.8,1.2,0.6,1.3c-1.2,1.4,0,2.2,0.8,2.7
	c2.2,1.6,4.5,3.1,6.9,4.5c3.2,1.7,6.5,3.1,9.8,4.7c3.7,1.8,7.3,4,11.1,5.7s7.8,2.9,11.7,4.5c4.1,1.6,8,3.7,12.2,4.9
	c4.5,1.3,9.3,1.7,13.8,2.8c7.9,1.8,15.8,3.8,23.7,5.6c2.3,0.5,4.6,1.7,6.8-0.2c0.3-0.3,1.1,0,1.7,0.1c7,1.2,14.1,2.5,21.1,3.6
	c4.3,0.6,8.6,1,12.9,1.2c6.6,0.3,13.2,0.5,19.8,0.7c6.4,0.2,12.8,0.4,19.1,0.4c7.3,0,14.6-0.3,21.9-0.6c2-0.2,4-0.5,6-0.8
	c-2.7-2.1-5.6-3.5-8-5.3c-1.4-1-2.6-2-4.3-1.5c-2,0.5-3.9,1.3-6,2c-1-1.6-2.6-1.6-4.7-1.2c-2.6,0.5-5.4,1.4-7.9-0.6
	c-0.2-0.2-0.6-0.1-1,0c-3,0.6-6,1.3-9,1.8c-0.9,0.2-1.9-0.1-2.6-0.7c-1.7-2.2-3.1-4.6-4.6-7l0.5-0.9c4.3,0.4,8.5,0.8,12.8,1.1
	c0.7,0.1,1.3,0.1,2-0.1c4.4-1.3,8.7-2.4,13.4-1.5c0.7,0,1.3-0.2,1.8-0.7c1.7-1.8,3.1-1.5,4.9,0s4.1,1.4,6.4,0.8l1.2,2.7
	c1-2.6,1.7-4.5,2.5-6.5c0.9,0.3,2.1,0.4,2.6,1c1.2,1.5,2.6,1.4,4.2,1c6.9-1.5,13.7-3,20.6-4.3c5.9-1.1,11.9-2.1,17.8-2.7
	c5.3-0.4,10.5-1.3,15.6-2.9c6.5-2.1,13.1-3.8,19.8-5c6.9-1.3,13.8-2.8,20.3-5.5c0.9-0.3,1.9-0.6,2.9-0.8c-2.2-0.3-4.3-0.3-6.5,0
	c-3.1,0.3-6.2,0.8-9.2,1c-5,0.3-10,0.4-15,0.6c-4.6,0.2-9.2,0.7-13.8,0.4c-10.4-0.6-20.7-1.6-31.1-2.3c-7.4-0.5-14.8-0.9-22.1-1.2
	c-3.1-0.2-6.3-0.1-9.5-0.1c-7.4-0.1-14.8-0.6-22.2-0.3c-8,0.3-16,1.4-24.1,2c-2,0.2-4.1,0.1-6.1-0.1c-6-0.6-12-1.4-17.9-2.1
	c-4.5-0.5-9-1-13.6-1.6c-4.8-0.6-9.7-1.3-14.5-2c-5.3-0.8-10.7-1.4-16-2.5s-10.4-2.6-15.7-3.9c-4.8-1.1-9.7-2.1-14.6-3
	c-4.3-0.9-8.6-1.9-12.9-2.5c-6.1-0.8-12.2-1.1-18.3-1.8c-4.5-0.5-8.9-1.5-13.4-2.1c-2.1-0.3-4.1-0.5-6.6-0.7L195.5,498.2z
	 M601.3,503c0.1,0.3,0.2,0.7,0.2,1c0.7,0.1,1.4,0.4,2,0.2c1.9-0.7,3.7-1.6,5.6-2.3c8.1-3.2,16.3-6.1,24.2-9.5
	c8.8-3.8,17.4-8,26-12.3c11.1-5.6,22.2-11.1,32.5-18.2c4.8-3.3,10-6,14.8-9.4c7.4-5.3,14.7-10.9,21.8-16.6c3.6-3,6.5-6.7,8.7-10.8
	c-0.8,0.2-1.5,0.4-2.3,0.7c-4.7,2.6-9.4,5.2-14.1,7.9c-1.5,0.8-3.7,1.4-4.2,2.6c-2.5,5.7-8,7.4-12.5,10.5c-1.5,1-3.3,1.8-4.8,2.9
	c-3.2,2.3-6.1,5-9.4,7.1c-7.9,4.9-17.3,7.3-23.7,14.6c-0.3,0.2-0.6,0.4-0.9,0.5c-7.8,4.1-15.8,7.8-23.4,12.3
	c-8.9,5.3-18.2,9.3-27.7,13.2C609.8,499.1,605.6,501.1,601.3,503z M436.7,548.7l0.4-1c-1.3-1.2-2.4-2.9-3.9-3.3
	c-2-0.4-4.1-0.3-6.1,0.2c-7.2,1.7-14.4,3.6-21.6,5.5c-2.8,0.7-5.5,1.5-8.2,2.3l0.1,0.7C410.5,552.4,423.6,550.5,436.7,548.7z
	 M485.8,540.8c-2.5-3.3-5.4-2.9-8.6-2.5c-7.2,0.9-14.2,1.9-20.6,5.7c-1.4,0.8-3,1.5-4.4,2.2l0.3,0.7L485.8,540.8z M491.7,538.9
	c0.1,0.3,0.2,0.6,0.4,1l28.1-6.5c-0.1-0.3-0.1-0.6-0.2-0.9c-2.1-0.8-3.9-2.2-6.5-0.8c-1.5,0.9-3.5,1-5.2,1.6
	c-4.8,1.4-9.6,2.8-14.4,4.3C493.1,538,492.3,538.4,491.7,538.9z M532,528.9l14.2-4.3C542.6,521.7,535,524.8,532,528.9L532,528.9z"/>
<path class="st1" d="M857.6,223c-0.4-3-0.8-5.9-1.1-8.9c0-0.9,0.2-1.8,0.4-2.6h1.3c0.8,6.7,1.6,13.3,2.5,19.9l-0.8,0.3
	c-0.7-1.2-1.3-2.3-2-3.5L857.6,223z"/>
<path class="st2" d="M847.8,173.4l-3.3-5.9c2.4,0.8,4,3,4,5.5L847.8,173.4z"/>
<path class="st3" d="M857.6,223l0.3,5.2l-0.8,0.1c-0.2-1.7-0.5-3.5-0.7-5.2L857.6,223z"/>
<path class="st3" d="M855.1,217.4c-0.3-1.8-0.6-3.6-0.8-5.3C854.6,213.8,854.8,215.6,855.1,217.4z"/>
<path class="st3" d="M857.3,231.4c0-0.5,0-1.1,0-1.6C857.3,230.4,857.3,230.9,857.3,231.4z"/>
<path class="st3" d="M856,220.9c-0.1-0.4-0.2-0.8-0.2-1.2L856,220.9z"/>
<path class="st4" d="M195.5,498.2l-2.2-3.7c2.4,0.2,4.5,0.4,6.6,0.7c4.5,0.7,8.9,1.6,13.4,2.1c6.1,0.7,12.2,1,18.3,1.8
	c4.3,0.5,8.6,1.6,12.9,2.5c4.9,1,9.8,1.9,14.6,3c5.2,1.2,9.5,0.3,14.7,1.4s12.6-4.8,18-4c4.8,0.7,8.6,10.3,13.4,10.9
	c4.5,0.6,9,1.1,13.6,1.6c6,0.7,11.9,1.5,17.9,2.1c2,0.2,4.1,0.2,6.1,0.1c8-0.6,16-1.7,24.1-2c7.4-0.3,14.8,0.2,22.2,0.3
	c3.2,0,6.3,0,9.5,0.1c7.4,0.3,14.8,0.7,22.1,1.2c10.4,0.7,20.7,1.7,31.1,2.3c4.6,0.2,9.2-0.2,13.8-0.4c5-0.2,10-0.3,15-0.6
	c3.1-0.2,6.2-0.7,9.2-1c2.2-0.3,4.3-0.3,6.5,0c-1,0.2-1.9,0.5-2.9,0.8c-6.5,2.8-13.3,4.2-20.3,5.5c-6.7,1.2-13.4,2.9-19.8,5
	c-5.1,1.5-10.3,2.5-15.6,2.9c-6,0.6-11.9,1.6-17.8,2.7c-6.9,1.3-13.8,2.8-20.6,4.3c-1.6,0.3-3,0.5-4.2-1c-0.5-0.6-1.7-0.7-2.6-1
	c-0.8,2-1.5,3.9-2.5,6.5l-1.2-2.7c-2.2,0.6-4.6,0.8-6.4-0.8s-3.2-1.8-4.9,0c-0.5,0.5-1.1,0.7-1.8,0.7c-4.6-0.9-9,0.2-13.4,1.5
	c-0.7,0.1-1.3,0.2-2,0.1c-4.3-0.3-8.5-0.7-12.8-1.1l-0.5,0.9c1.5,2.3,2.9,4.8,4.6,7c0.7,0.6,1.7,0.8,2.6,0.7c3-0.5,6-1.2,9-1.8
	c0.3-0.1,0.8-0.2,1,0c2.5,2,5.3,1,7.9,0.6c2.1-0.4,3.7-0.4,4.7,1.2c2.1-0.7,4-1.5,6-2c1.7-0.4,2.9,0.5,4.3,1.5
	c2.5,1.8,5.3,3.2,8,5.3c-2,0.4-4,0.7-6,0.8c-7.3,0.3-14.6,0.5-21.9,0.6c-6.4,0-12.8-0.2-19.1-0.4c-6.6-0.2-13.2-0.3-19.8-0.7
	c-4.3-0.2-8.6-0.5-12.9-1.2c-7.1-1-14.1-2.4-21.1-3.6c-0.6-0.1-1.4-0.3-1.7-0.1c-2.3,1.9-4.6,0.7-6.8,0.2
	c-7.9-1.9-15.8-3.8-23.7-5.6c-4.6-1-9.4-1.5-13.9-2.8c-4.2-1.2-8.1-3.3-12.2-4.9c-3.9-1.5-7.9-2.8-11.7-4.5s-7.4-3.8-11.1-5.7
	c-3.2-1.6-6.6-3-9.8-4.7c-2.4-1.3-4.7-2.8-6.9-4.5c-0.8-0.6-2-1.3-0.8-2.7c0.1-0.2-0.3-1-0.6-1.3c-1.9-1.8-3.7-3.9-5.9-5.2
	s-1.9-3.2-1.8-5c0.1-2.2,2.2-1.7,3.3-2.3C192.4,498.9,193.9,498.5,195.5,498.2z"/>
<path class="st5" d="M601.3,503c4.3-1.9,8.5-3.8,12.8-5.6c9.5-3.9,18.8-8,27.7-13.2c7.6-4.5,15.6-8.2,23.4-12.3
	c0.3-0.1,0.6-0.3,0.9-0.5c6.4-7.4,15.8-9.7,23.7-14.6c3.3-2.1,6.2-4.8,9.4-7.1c1.5-1.1,3.2-1.9,4.8-2.9c4.5-3.1,10-4.8,12.5-10.5
	c0.5-1.2,2.7-1.8,4.2-2.6c4.7-2.7,9.4-5.3,14.1-7.9c0.7-0.3,1.5-0.5,2.3-0.7c-2.2,4.1-5.1,7.8-8.7,10.8
	c-7.1,5.7-14.4,11.3-21.8,16.6c-4.7,3.4-10,6.1-14.8,9.4c-10.2,7.1-21.4,12.6-32.5,18.2c-8.5,4.3-17.2,8.5-26,12.3
	c-8,3.5-16.2,6.3-24.2,9.5c-1.9,0.7-3.7,1.7-5.6,2.3c-0.6,0.2-1.3-0.1-2-0.2C601.5,503.6,601.4,503.3,601.3,503z"/>
<path class="st6" d="M436.7,548.7c-13.1,1.8-26.2,3.7-39.4,4.4l-0.1-0.7c2.7-0.8,5.5-1.6,8.2-2.3c7.2-1.9,14.4-3.8,21.6-5.5
	c2-0.6,4.1-0.7,6.1-0.2c1.5,0.4,2.6,2.1,3.9,3.3L436.7,548.7z"/>
<path class="st7" d="M485.8,540.8l-33.4,6l-0.3-0.7c1.5-0.7,3-1.3,4.4-2.2c6.4-3.8,13.4-4.8,20.6-5.7
	C480.5,537.9,483.4,537.6,485.8,540.8z"/>
<path class="st8" d="M491.7,538.9c0.7-0.5,1.4-1,2.1-1.3c4.8-1.5,9.6-2.9,14.4-4.3c1.8-0.5,3.7-0.7,5.2-1.6c2.5-1.4,4.4,0,6.5,0.8
	c0.1,0.3,0.1,0.6,0.2,0.9l-28.1,6.5C491.9,539.6,491.8,539.2,491.7,538.9z"/>
<path class="st8" d="M532,528.9c3.1-4.2,10.7-7.2,14.2-4.3L532,528.9z"/>
<path d="M145.7,471.3c1.2-1.9,0.4-3.4-1-4.8c-0.8-0.5-1.4-1.2-1.9-1.9c-0.7-1.6-1.4-3.3-1.9-5c-0.4,0.4-0.8,0.8-1.1,1.3
	c-0.5,0.8-0.7,2.2-1.3,2.3c-1.6,0.4-3.3,0.5-4.9,0.2c-1.5-0.3-2-1.7-2.1-3.4s0.7-2.2,2-2.6c1-0.3,2-0.7,3.5-1.2
	c-0.8-0.5-1.4-1.3-1.9-1.3c-2.8,0.2-3.5-1.9-4.6-3.7c-0.9-1.5-1.9-3-3-4.5c-1.3-2-3.2-2.2-5.5-2c-1.2-0.1-2.3-0.9-2.8-1.9
	c-1.2-3.8-2-7.8-2.8-11.7c-0.1-0.3,0.9-1,1.5-1.3c1.3-0.7,2.6-1.3,3.9-2l-0.7-0.4c-0.2-2-0.8-4-0.5-6c0.4-2.3-0.8-2.4-2.2-2.3
	c-2.5,0-4.4,2-4.4,4.5c0,0.1,0,0.2,0,0.3c0.2,2.1,0.6,4.5-2,5.6c-1.1,0.5-2.4,0.6-3.6,0.2c-5.2-2.4-8.9-6.5-12-11.3
	c-0.6-0.9,0.1-2.6,0.3-3.9c0.3-0.8,0.6-1.6,0.9-2.3c0.4-1.3,1.5-3.1,1-3.8c-1.2-1.8-2.9-3.3-4.8-4.2c-2.5-1.2-5-2.2-6.8-4.5
	c-1-1.1-2-2-3.2-2.9c-0.6-0.5-1.5-0.9-1.7-1.5c-0.4-1.3-0.7-2.5-0.9-3.8c1.2-0.3,2.5-0.9,3.6-0.7c4.3,0.6,4.2,0.7,5.8-3.5
	c0.9-2.4,2.4-4.6,3.6-6.9c0.2-0.5,0.6-1.2,0.4-1.5c-0.9-1.7-2-3.3-3-4.9s-2.1-1.1-3.1,0.1c-1.9,2.2-4.8,1.8-5.9-1s-1.9-6-3.2-8.8
	c-1.6-3.5-3.5-6.9-5.4-10.6c0.7-1.8,0.6-3.9-0.3-5.6c-1.3-3.3-2.4-6.8-3.3-10.2c-1.3-4.6-2.9-4.7-6-3.4c-0.8,0.2-1.6,0.4-2.5,0.6
	c-1.4,0.4-2-0.3-2.2-1.5c-0.5-2.6-1.1-3.2-3.6-2.6c-1.4,0.4-2.7,1-3.9,1.9c-6.4,4.8-13.4,2.2-17-4.7c-2-3.9-1.1-5.9,2.1-8.3
	c1.5-1.2,2.5-3.1,3.8-4.7c0.6-0.8,1.3-1.6,2.1-2.3c1.8-1.5,3.4-2.8,3.1-5.5c-0.1-1.5,0.5-2.5,2.4-2.5c4.5,0,7.5-3.9,6.8-8.3
	c-0.2-1.6-0.2-3.2,0-4.9c0.2-2.1,1.9-3.4,4.3-3.8c2.5-0.3,5-0.8,7.4-1.5c2.4-0.6,4.1-2.9,3.9-5.4c0.3-1.2,1.2-2.1,2.4-2.5
	c3.4-0.4,4.7-2.8,6.1-5.3c1.1-2,2.3-3.9,3.7-5.7c2.2-2.8,4.6-5.3,6.8-8c1-1.2,1.2-2.7,0.1-3.8c-1.2-1.1-1.4-2.8-0.6-4.2
	c1.3-2.8,3-5.5,4.5-8.2c0.9-1.9,2-3.7,3.2-5.5c0.9-1.2,2.4-2,3.6-3c0.7-0.6,1.7-1.4,1.7-2.1s-1-1.6-1.7-2c-3.3-1.7-3.6-4.4-0.7-6.5
	c2.6-1.9,4.5-4.6,5.5-7.7c0.6-1.6,1.6-2.9,2.9-4c1.3-1.1,1.3-2.1,0.5-3.3c-0.1-0.2-0.3-0.4-0.4-0.6c-2.2-3.3-2-3.1,0.8-5.8
	c1.4-1.4,2.2-3.5,3.2-5.4c0.4-0.7,0.5-1.8,1-2.2c3.4-2.1,4.4-5.7,6.4-8.7c2.3-3.5,5-6.7,7.5-10.1c1.1-1.5,1.9-3.1,2.4-4.9
	c0.6-2.1,1.9-3.6,3.8-3.7c6.2-0.2,8.8-4.4,11.6-9c3-5,6.4-9.7,10.1-14.2c1.7-2,4.6-3.1,6.9-4.6c0.8-0.5,1.5-1.2,1.9-2
	c1.5-4.7,5.4-6.2,9.5-7.8c2.5-1.1,4.9-2.4,7.1-4c0.6-0.6,0.9-1.4,0.9-2.2c-0.2-1.7,0.8-2.3,2.1-3.1c3.9-2.4,7.6-5.1,11.5-7.4
	s7.7-4.5,12.2-5.6c2.9-0.6,5.4-2.5,6.5-5.2c0.4-1,2.5-1.5,3.9-2c2.2-0.7,4.3-1.3,4.8-3.6c3.1-1.1,6.1-2.1,9.2-3.1
	c1.4-0.5,2.9-0.9,4.4-1.2c1.5-0.2,2.5-0.1,2.5-2.2c0-1,2-2.2,3.3-2.7c1.5-0.6,3.2-0.4,4.8-0.6c2.3-0.3,2.8-1.4,1.7-3.4
	s-0.3-4.4,2.6-5.7c1.2-0.5,2.7-0.3,4.1-0.4c0.4,0,0.9,0.3,1.3,0.3c3.8-0.7,7.6-1.2,11.3-2.4c3.1-1,5-0.4,5.8,2.8
	c0.3,0.7,0.6,1.4,1,2c3.5-3.2,4-3.3,7.2-1.6c0.5-1.2,1-2.4,1.7-3.5c0.9-1.3,1.9-2.8,3.2-3.4c2-0.9,2.9,0.1,2.8,2.3
	c-0.1,1.8,0,3.4,2,4.5c3.4,1.8,3.6,3.8,1,6.7c-0.2,0.2-0.3,0.5-0.4,0.8c3.3,2.7,4.6,2.8,7.9,0.8c3.1-1.9,6.1-3.9,10.1-3.5
	c2,0.2,4.1-1,6.1-1.7c0.6-0.2,1.4-0.7,1.5-1.2c0.6-2.1,2.1-2.9,4-3.2c1.4-0.2,2-0.9,1.7-2.4c-0.2-0.8-0.3-1.7-0.4-2.5
	c-0.2-2.3,1-3,3.2-2.7c1.5,0.1,3.1-0.2,4.5-0.8c2.2-0.9,4.2-2.2,6.4-3.2c3.2-1.6,5.2-0.4,5.9,3.1c0.2,1.3,1.4,2.5,2.5,4.4
	c1.5-5.3,5.4-5.3,9-5.7c2.3-0.1,4.5-0.8,6.4-2.1c2-1.5,4.2-2.3,6.7-1.3c1.9,0.7,4,0.5,5.7-0.6c2.4-1.5,5.3-2.1,8.2-1.5
	c1.1,0.2,2.7-0.8,3.8-1.6c1.4-1,2.4-1,3.7,0.2c0.6,0.4,1.3,0.6,2,0.5c5.1-0.9,10.2-1.8,15.3-3c4.4-1,8.7-2.2,12.9-3.6
	c1.2-0.4,2.3-1.8,3.1-2.9c1.3-1.7,1.9-3.7,4.9-3.3c1.8,0.2,4-1.3,5.7-2.5c4.1-2.9,5.2-3.1,9.3-0.5c2.6-2.9,6.1-3.2,9.7-3
	c0.1,0,0.2,0.1,0.2,0c3.8-0.7,7.6-1.1,11.3-2.3c1.3-0.5,2-2.8,3.4-4.8c1.2-0.1,1.5,1.7,2,3c1.8,4.4,6,5.2,9.2,1.6
	c0.8-0.9,1.7-1.6,2.6-2.2c1.4-0.9,2.6-0.5,3.5,0.8c0.6,0.8,1.2,1.5,1.8,2.3l3.4-3.3l-3.7-1.1c-0.4-1.3-0.2-2.5,1.2-2.6
	c1.2,0.1,2.3,0.5,3.3,1.1c0.6,0.4,1.1,0.9,1.5,1.4c1.2,1,2.4,2.1,3.5,3.3c1.2,1.4,2.2,2.3,4.1,1.1c0.4-0.3,0.9-0.4,1.4-0.2
	c2.3,1.5,4.6,0.8,6.9,0.2c4-1.1,3.9-1,6.2,2.4c0.9,1.3,2.8,2.2,4.5,2.8c2.5,0.9,5.1,1.6,7.7,2.8c2,1,4.9,0.5,7.4,0
	c8.3-1.5,16.3-2,23.4,3.8c0.2,0.1,0.5,0.3,0.8,0.4c0.5-1,1.1-2,1.6-2.9c1.1-1.8,3.2-2.7,5.3-2.2c1.5,0.5,1.6,3.4,0.3,5.1
	c-0.5,0.6-1,1.2-1.7,2c1.4,0.3,2.9,0.5,4.4,0.7c0.6-0.1,1.2-0.4,1.4-1c0.4-2.4,1.3-1.8,2.5-0.6c0.7,0.5,1.4,0.8,2.1,1.1
	c0-2.2,0.2-4.2,2.7-4c1.1,0.1,2.9,0.8,3.1,1.6c0.8,3.1-2.3,2.2-4.1,3.2c1.5,1,3,1.9,4.7,2.6c0.9,0.1,1.8,0,2.5-0.5
	c2.3-1,4.3-1.9,6.8-0.3c1.5,1,3.2-0.2,3.5-2c0-0.2,0-0.3,0-0.5c0.5-1.2,0-3.2,2.1-3.3c2.1,0.2,3.8,1.9,3.9,4c0,0.5-0.1,1-0.2,1.8
	c-3.5-0.2-4.8,2-5.4,5c-0.3,0.6-0.8,1-1.4,1.1c-0.9,0.3-1.8,0.2-2.7-0.1c-3.7-1.9-6.4,0.2-9.1,2.1c-1.4,0.8-2.1,2.5-1.7,4.1
	c0.5,2.8,0.9,3.2,3.7,2.4c2.2-0.6,5.6,1.2,6.5,3.3c0.3,0.7,0.3,1.7,0.8,2.1c0.6,0.7,1.5,1,2.5,1c1.1-0.2,1.7-1.2,1.5-2.3
	c0-0.1-0.1-0.3-0.1-0.4c-0.1-0.4-0.4-0.9-0.6-1.2c-0.6-0.9-1.9-2-0.7-2.9s2.8-0.8,4.2-0.9c0.5,0,1.1,0.5,1.5,0.9
	c1.7,1.6,3.1,0.6,4.6-0.4s3-2.5,4.6-2.5c2.5-0.1,3.9-1.4,5.6-2.8c1.1-0.9,2.2-2.2,4.1-1.4c1.9,0.8,3.5,2,3.9,4.1
	c0.6,2.9-2.1,6.6-5,7c-0.4,0-0.8,0.1-1.2,0.1c-5.4,0.2-5.4,0.2-6.5,5.2c3.9,1.3,7.8,2.6,11.7,3.7c1.4,0.4,2.9,0.3,4.3,0.7
	c1.3,0.2,2.5,0.6,3.6,1.2c3,1.7,5.8,3.7,8.9,5.3c3.3,1.6,7.1,1.8,10.5,0.5c7.1-2.3,14.4-3.6,21.5,0.4c0.8,0.3,1.7,0.5,2.6,0.5
	c1.9,0.3,3.7,0.2,5.4,2c1,1.1,3.7,1.3,5.4,0.9c4-0.9,6.9,0.6,9.5,3.2c3,2.9,6.4,5.1,9.6,7.6c3.4,2.6,7.1,3,10.9,4
	c4.3,1.1,6.2,4.4,7.5,8.2c0.9,2.6,1.8,5.2,2.8,7.9l0.7,0.1c0.8-1.2,1.7-2.4,2.5-3.7c1.3-2.1,3.9-3,6.2-2.1c2.3,0.9,3.1,2.6,2.6,5.4
	c-0.1,0.6-0.3,1.2-0.5,1.8c-1.7,4.8,0.1,6.2,4.9,7.7c3.9,1.2,4.9,1.9,5.5,5.9c0,0.7,0.2,1.4,0.6,2c0.5,0.6,1.2,1.1,2,1.3
	c0.4,0.1,1.1-0.7,1.4-1.3c0.5-0.9,0.8-2,1.2-3c0.7-1.8,2.2-3,4.1-3.4c1.9-0.4,3.7,0.8,4.1,2.7c0.1,0.2,0.1,0.5,0.1,0.7
	c0,2.1-0.9,3.7-3.2,5.9c0.8,0.9,2,1.8,2.1,2.7c0.4,3.9,2.2,5.9,6.2,6.3c1.9,0.2,3.8,1.3,5.7,2.1c0.8,0.3,1.5,0.6,2.4,1
	c0.7-2.7,0.8-5.5,3.5-6.7c1.1-0.5,2.4-0.6,3.6-0.4c1.3,0.3,2,1.3,0.8,2.8c-1.2,1.7-0.8,2.7,1.3,3.2s3.4,2,4.9,3.4
	c2.2,1.7,4.7,2.9,7.4,3.6c4.8,1.3,8.1,5.6,8.2,10.5c0,1.3,1.3,2.6,2,4c0.3-0.2,0.8-0.5,0.9-0.7c0.1-0.9-0.1-1.8-0.1-2.7
	c0.2-5.6,4.3-8.6,9.7-7.2c1.2,0.3,2.6,0.2,3.8,0.8c2.3,1,1.2,3.3,1.2,4.9c0,0.8-1.5,1.8-2.5,2.5c-0.5,0.3-1.3,0.1-2,0.1
	c-2.8,0.1-4,2-2.8,4.7c0.9,2.1,1.4,4.5,4.1,5.1c0.6,0.2,1.2,0.3,1.8,0.2c3.4-1.2,7.1-1.3,10-3.9l6.1-5.6c1.5,2.1,0.3,4.2-0.6,6.2
	c-1,2.3-2.5,4.4-3,6.8c-0.8,3.4-2.3,6.8,0.5,10.4c1.7,2.2,2.2,5.3,3.3,8.2c0.1,0.1,0.2,0.1,0.2,0.1c2.8-0.8,4.7-0.3,5.7,1.5
	s-0.1,5.7-2.3,7.1c-2.5,1.8-5.2,3.3-8,4.5c-1.2,0.5-3-0.6-4.8-1l-6.5,5.7c0.5,3.3,0.9,6.1,1.5,9.4l-4.8,1.4c0.8,0.7,1.2,1.5,1.8,1.7
	c2.3,0.6,2.2,2.4,2.2,4.2c0,4,0,8.1-0.1,12.1c0,1-0.7,1.9-0.6,2.9c0.3,1.4,0.6,2.7,1.2,4c0.7-1.1,0.9-1.7,1.3-2.1
	c1.2-1.7,2.2-3.5,3.6-5.2c2.2-2.7,4.6-5.2,6.8-7.9c1.5-1.9,4.6-3,6.5-1.6c0.8,0.6,1.2,2.5,1.1,3.7c-0.3,1.2-0.9,2.3-1.8,3.2
	c-2,2.4-4.3,4.5-6.1,7c-1.2,1.7-1.9,3.7-2,5.7c-0.2,3.3-2.6,5.9-5.9,5.7c-1.8,0-3.7,0.1-5.5,0.3c1.4,6.2-2.1,10.4-4.2,14.9
	c-0.8,1.8-3,1.2-4.6,0.7c-0.7-0.3-1.4-0.7-2-1.2c-0.6,0.6-1.2,1.1-1.8,1.7c-1.2,1.5-3.3,2-5.1,1.3c-1.9-0.7-4-0.1-5.2,1.4
	c-1.3,1.2-2.4,2.6-3.6,3.9l-3.4,3.8c0.5,0.6,1.4,1.3,1.6,2.1c0.3,1.1,0.4,2.8-0.2,3.4c-2.4,2.4-3.8,5.7-3.9,9.1
	c-0.3,3.9-0.5,7.7-2.9,11c-0.3,0.5-0.2,1.3-0.3,2c-0.2,1.7-0.5,3.3-0.9,5c-0.4,1.6-1.8,2.8-3.5,2.9c-0.5,0.1-1,0.3-1.3,0.6
	c0.4,1.8,0.7,3.2,0.9,4.6c0.3,2.2-1.1,2.5-2.9,2.3c-1.2-0.2-2.4-0.3-3.7-0.4c-2.5,0-3.6,2-2.4,4.2c0.5,0.8,1.2,1.4,1.7,2.1
	c1.4,2.1,0.9,3.7-1.5,4.7c-2.6,1.2-4.7,2.5-4.3,6c0.2,2.1-1.5,3.3-3.5,2.7c-6.9-2.1-11.8,0.8-16.1,5.9c-3.5,4.2-7.4,7.7-13.3,8.1
	c-1.8,0.3-3.6,1-5.1,2c-1.9,0.9-2.8,3.1-2.1,5.1c0.8,2.5,0.2,4.9-1,7c-0.3,0.6-0.9,0.9-1.5,1c-2.3-0.3-2.9,1.4-3.4,3
	c-1.1,3.4-1.4,3.7-4.9,3.7c-0.9-0.1-1.7,0.5-1.8,1.4c0,0.4,0,0.7,0.2,1.1c0.8,1.4,0.3,3.1-1.1,3.9c-0.5,0.3-1,0.4-1.6,0.4
	c-1.6-0.1-3.3,0.1-4.9,0.4c-3.4,1-5.6,4.3-5.1,7.9c0.1,0.6,0.8,1.2,1.2,1.8c0.6,0.6,1.2,1.3,1.7,2c2,4.5,0.9,6.9-4,8.4
	c-1.3,0.5-2.6,0.8-4,1c-0.9,0-1.8-0.2-2.5-0.7c-1-0.6-2-1.4-2.9-2.1c-0.8,2-1.5,3.7-2.2,5.4c-1.2,3-3,3.7-5.6,2
	c-1.5-1-2.6-1-3.8,0.2c-1.6,1.5-4,2.2-4.1,5.3c-0.1,2.2-2.6,2.9-4.7,2.7c-3.6-0.3-6.5,1.9-9.8,2.6c-0.7,0.2-1.2,1-2,1.7
	c1.5,1.3,2.8,2.9,1.3,4.6c-1.1,0.9-2.5,1.1-3.9,0.7c-1-0.5-1.4-2.3-2.4-4c-3.8-0.9-7.7,0.6-11.5,3.7c1,0.6,1.9,1.2,2.7,1.9
	c0.8,0.9,1.9,2,2,3c0,0.7-1.5,1.5-2.5,2.2c-0.4,0.2-0.9,0.3-1.3,0.4c-3.3,0.7-3.4,0.7-3.4-2.7c0-1.3-0.4-2-1.9-1.6
	c-1,0.1-1.9,0.3-2.9,0.6c-1.3,0.7-1.8,1.6-0.2,2.8c0.7,0.4,1.4,1,1.8,1.7c0.5,0.8,0.6,1.7,0.4,2.5c-0.5,0.7-1.4,1-2.3,1
	c-0.9-0.2-1.7-0.7-2.2-1.4c-0.5-0.6-0.4-1.6-0.7-2.4c-0.3-0.5-0.7-0.9-1.3-1.1c-0.2-0.1-0.7,0.6-1,1c-1,1.3-2.1,2.6-3,4
	s-0.7,2.3,1.1,3s3.9,0.9,4.2,3.8c0.3,1.2-0.3,2.4-1.4,2.9c-2.4,1.4-5.8,0.5-8.3-2c-1.3-1.4-2.7-2.7-4.2-3.9
	c-2.8-2.2-4.6-1.9-6.8,0.7c0.6,2.3,1.3,4.4,1.7,6.5c0.1,0.4-0.9,1.5-1.2,1.4c-3.5-0.9-6,1-8.7,2.8c-2.1,1.5-4.2,2.9-6.4,4.2
	c-1,0.4-2.1,0.7-3.2,0.9c0.7,0.9,1.3,1.8,1.8,2.8c0.7,1.3,0.2,3-1.1,3.7c0,0,0,0-0.1,0c-1,0.6-1.8,1.4-2.7,2.1c-2,1.5-3.6,1.2-4.9-1
	s-2.1-2.3-3.9-0.7c-1,0.7-1.8,1.6-2.4,2.7c-0.6,2-1.7,1.9-3.2,1.3c-0.4-0.2-0.8-0.4-1.2-0.6c-2.1-1-3.4-0.3-3.7,2
	c-0.2,1.7-0.3,3.4-0.6,5c-0.1,0.9-0.6,1.6-1.3,2.1c-0.5,0.2-1.5-0.5-2.2-0.8c-0.3-0.2-0.5-0.4-0.7-0.6c-2.3-2.5-2.2-2.4-4,0.3
	c-0.9,1.2-2.2,2.1-3.6,2.5c-2.8,0.9-5.3,1.8-4.7,5.6c-3.6,0-7,0-10.4,0c-0.2,0-0.5-0.5-0.7-0.8c-0.7-1.1-0.4-2.6,0.8-3.3
	c0.2-0.1,0.5-0.3,0.8-0.3c1.1-0.3,2.3-0.1,3.4-0.4c0.9-0.2,2-0.8,2.2-1.5c0.1-1-0.2-1.9-0.8-2.7c-1.4-1.6-4.7-1.2-6.2,0.3
	c-1.3,1.3-2.8,2.5-4.4,3.5c-1,0.7-2.2,1-3.2,1.7c-1.5,1.1-3.3,1.9-2.8,4.5c-0.1,1-0.6,1.9-1.5,2.3c-1.7,0.6-3.7,1.5-5.3-0.2
	c-1.2-1.3-2.3-2.7-3.5-4s-2.5-2.1-4.5-0.9c-2.2,1.2-4.5,2.1-6.9,2.8c-0.8,0.1-1.6-0.2-2.3-0.7c-1.3-1-3.2-0.8-4.2,0.5
	c-0.1,0.1-0.1,0.2-0.2,0.3c-1.2,2.1-1.9,2.2-3.8,0.5c-1.2-1-2.1-2.5-4-2c-0.4,0.1-0.9,0.1-1,0.3c-1.4,2.1-3.9,2.2-5.9,3.1
	c-1.3,0.6-2.3,1.6-2.9,2.9c-0.9,1.9-2.2,2.4-3.6,1.4c-3-2-5.5-3.1-8.1,0.5c-0.9,1-1.9,1.7-3.1,2.3c-0.6,0.5-1.4,0.7-2.2,0.8
	c-0.4-0.1-0.8-1.2-0.9-1.8c-0.4-2.3-0.6-4.7-0.9-7.2c-3.1-1.2-5.9,0-8.3,2c-4.2,3.5-8.6,3.5-13.4,1.6c-1.9-0.8-3.7-1.6-5.7-2.3
	c-2.6-0.9-5.1,0.7-4.9,3.6c-2.5-0.5-5-0.8-7.3-1.5c-3.3-1-6.4-1.6-9.6,0.7c-1.1,0.8-3,0.6-4.5,0.4c-2.5-0.5-5.1-1.1-7.5-1.8
	c-3.3-0.9-6.3-0.8-8.4,2.4c-1.1,1.7-2.7,0.9-3.9,0.7c-1.8-0.4-2.9-0.4-3.4,1.7c-0.4,1.5-2.1,1.4-3.5-0.3c-0.4-0.5-0.4-1.2-0.8-1.6
	c-0.4-0.5-1-0.8-1.6-0.8c-0.4,0.1-0.9,0.9-1,1.4c-0.2,1.3-0.1,2.8-0.5,4.1c-0.4,1-1.1,1.7-2.1,2.1c-3.3,0.6-6.6,0.9-9.9,1.3
	c-0.4,0.1-0.8,0.4-1,0.7c-1.5,2.2-3.5,2.4-5.9,2c-2-0.4-4-0.4-6-0.7c-2.2-0.3-2.8,1.2-3.1,2.8s-1.1,2.8-2.6,2.7
	c-2-0.2-4-0.6-5.8-1.4c-1.8-0.7-3.5-1.9-3.9-4.2c-0.2-0.8-1.1-2.2-1.4-2.1c-1.1,0.3-2,0.9-2.9,1.6c-0.7,0.6-1,1.6-1.7,2.1
	c-0.8,0.7-1.8,1.1-2.9,1.1c-2.3-0.3-3.7,1.2-5.3,2.3c-0.8,0.5-1.4,1.2-2.1,1.8c-3.5,2.4-3.7,2.3-6-1.2c-0.6-0.6-1.5-0.9-2.4-0.8
	c-0.9,0.2-1.7,0.6-2.4,1.2c-1.3,0.8-2.5,1.2-3.7-0.1s-2-2.6-1-4.3c0.9-1.1,0.7-2.7-0.3-3.6c-1-1.3-1.6-2.9-1.6-4.5
	c-0.1-3.5-2.3-5.1-5.2-5.9s-5.1-1.9-4.9-5.5c0.1-1.9-1.9-2.8-4.3-1.6c-3.8,1.9-7.5,4-11.1,6.2c-3,1.8-5.9,3.7-9.5,3.4
	c-1.9-0.2-3.6-0.9-5.1-2c-1.7-1.3-3.8-2-5.9-2c-3.8,0-7.6-0.6-11.4-0.7c-0.8,0.1-1.5,0.6-1.9,1.2c-0.6,0.6-0.9,1.6-1.5,2.3
	c-1.7,1.8-2.3,1.5-3.5-0.6c-0.8-1-1.9-1.7-3.1-2c-1.3-0.3-2.7-0.5-4.1-0.7c-4.4-0.9-4.5-6.5-2.9-9.2c-2.6-3.4-6.4-3.3-10-3.6
	c-2.9-0.2-5.8,0.3-8.7,0c-2.6-0.3-5-1.7-7.6-2c-1.7,0-3.4,0.4-4.8,1.3c-1.2,0.6-1.1,1.7-0.6,3.1c0.3,1-0.7,3.1-1.7,3.7
	c-1.3,0.7-2.4-0.3-2.7-2.1c-0.4-2.9-1-3-3.6-1.8c-0.7,0.5-1.4,0.8-2.2,1.1c-1.2,0.3-2.9,0.8-3.4,0.2c-0.8-0.9-1-2.5-1.1-3.8
	c-0.1-0.8,0.7-1.7,0.8-2.6c0.3-2.8-0.7-4.1-4.6-5.3c-1.9-0.6-3.9-0.6-5.8-0.2c-5.3,1.2-8.6-0.2-11-4.9c-0.3-0.5-1-0.8-1.6-1.1
	c-5.1-2.9-10.3-5.7-15.4-8.6C146.2,472,145.9,471.7,145.7,471.3z M813,269.3c-0.8-0.8-1.6-2.3-2-2.2c-1.1,0.2-2,1.2-3,1.9
	c-0.1,0.1-0.1,0.3-0.2,0.4c-1.7,2.9-3.4,5.8-5.1,8.8c-0.3,0.5-0.3,1.6,0,1.8c0.7,0.6,1.6,1,2.5,1.1c0.3,0,0.9-1,1-1.7
	c0.6-3.7,2-6.9,5.3-9.1C812,270.1,812.3,269.8,813,269.3z"/>
<path d="M555.8,43.5l1.1,1.6c-0.4,0.3-0.8,0.5-1.2,0.7c-1,0.2-1.9,0.4-2.9,0.4c-0.5,0-1.5-0.3-1.5-0.5c0-2.8-2.2-2.1-3.8-2.4
	c-0.4-0.1-0.8,0.2-1.1,0c-0.4-0.3-0.7-0.7-0.9-1.1c0.4-0.2,1-0.5,1.3-0.4c2.4,1,4.2,0.3,6-1.8c-0.9-0.7-1.8-1.3-2.7-2
	c-1.7-1.3-1.7-2.5-0.1-3.9c1.4-1.3,2.8-2.6,4.3-3.7c1.1-0.7,2.8-1.5,3.7-1.1c1.2,0.8,2,2,2.2,3.4c0.8,3.9,1.9,5.1,5.6,5.7
	c0.7,0.3,1.2,0.9,1.3,1.6c-0.1,0.8-0.7,2-1.3,2.1c-1.8,0.4-3.7,0.2-5.5,0.5C558.8,42.8,557.4,43.2,555.8,43.5z"/>
<path d="M221.1,498.2c3.6,0.1,4.5,1.6,3.7,4.2c-0.1,0.9,0.1,1.8,0.7,2.6c0.8,0.8,1.7,1.5,2.6,2.2c2.1,1.8,2,3.8-0.2,5.4
	c-3,2.2-6.8,1.6-8.6-1.2s-2.8-5.9-3.9-8.9c0-0.9,0.4-1.7,1.1-2.2C217.9,499.4,219.5,498.8,221.1,498.2z"/>
<path d="M688.4,439.5c-2.4,1.2-2.9,2.4-1.9,5.7c0.6,1.9-0.4,3.6-2.2,3.5c-1.9-0.1-3.8-0.7-5.6-1.5c-0.8-0.4-1.4-2-1.3-3.1
	c0.2-1,0.9-1.8,1.9-2.1c2.3-0.5,2.5-1.7,3.1-3.8c1-3.6,3.2-7,5-10.4c0.3-0.3,0.6-0.4,1-0.4c0.9,0.2,2.4,0.3,2.7,0.8
	c0.4,1.2,0.4,2.5,0,3.6C690.4,434.3,689.5,436.5,688.4,439.5z"/>
<path d="M667.2,453c-0.9,0.8-1.8,1.5-2.8,2.1c-2.3,1.2-2.4,1.8-0.3,3.4c0.7,0.4,1.4,0.9,2,1.5c0.7,0.9,1.7,2.3,1.5,2.9
	c-0.9,1.2-2,2.2-3.2,2.9c-0.2,0.1-0.9-0.5-1.3-0.9c-1.7-1.4-3.4-2.7-5.3-3.9c-2.9-1.6-3.8-3.9-2.1-6.5c0.2-0.3,0.5-0.8,0.7-0.8
	c2.9,0.5,4.3-2.1,6.5-3.1c0.7-0.4,1.5-0.5,2.3-0.3C666,450.8,666.4,451.9,667.2,453z"/>
<path d="M576.9,499.5c-2.3-0.8-3,1.7-4.2,3.4c-1.7,2.4-3.2,2.6-4.8,0.2c-0.5-1.1-0.6-2.4-0.2-3.6c0.1-0.5,1.5-0.8,2.4-0.9
	c1.7-0.2,2.7-0.8,3.2-2.6c0.5-2,1.2-3.9,2-5.8c0.4-1,3.8-1.2,5-0.1c2.2,2,2.8,3.4-0.1,5.6C578.8,496.5,578,498,576.9,499.5z"/>
<path d="M667.7,476.3c-0.3-3.4,0-3.9,3.2-4.7c1.2-0.2,2.4-0.5,3.5-1.1c1.5-1.1,2.9-2.3,4.2-3.6c0.5-0.5,0.7-1.9,1.2-1.9
	c1.4-0.1,2.8-0.1,4.2,0.3c0.3,0.1,0.7,1,0.7,1.5c0.1,1.1,0,2.3-0.4,3.4c-0.4,1-1.1,1.8-2,2.3c-2.9,1.3-5.8,2.4-8.8,3.2
	C671.6,476.1,669.6,476.3,667.7,476.3z"/>
<path d="M651.9,462.2c2.9,0.6,5.3,0.5,6.3,3.6c0.2,0.8,1.4,1.3,2.3,1.8c1.5,1,3.5,2.2,2.5,4c-0.8,1.4-2.9,2.2-4.5,3
	c-0.3,0.2-1.4-1-2-1.6c-0.8-0.9-1.6-1.8-2.5-2.6c-1-0.8-2.3-1.2-3.4-2c-1.4-1-2.7-2.3-1.7-4C649.4,463.5,650.8,462.9,651.9,462.2z"
	/>
<path d="M368,523.2c3.2,0,4.1,1,3.9,4.2c-0.3,4.3-4.3,7.5-8.2,6.7c-2.7-0.6-3.7-2.3-2.9-4.9C361.9,525,364.1,523.1,368,523.2z"/>
<path d="M290,521.1c-0.7,0.9-1.2,2.1-2.2,2.6c-3.1,1.7-7.3-0.8-7.5-4.2c-0.1-1.5-0.7-3.1-0.3-4.5c0.3-1.2,1.5-2.9,2.5-3
	c1.7-0.5,3.5,0.3,4.2,1.9c0.9,2,1.9,4,2.8,6c0.1,0.3,0.1,0.6,0.1,0.9L290,521.1z"/>
<path d="M727,429.6c0.7,3.8,0.2,4.7-2.9,6.4c-1.5,0.8-2.6,2.2-4.1,2.9c-1.5,0.7-3.1,1-4.8,0.8c-2.1-0.2-2.5-1.8-2-4.5
	c0.4-2.1,2-1.8,3.4-1.7c0.8,0,1.7,0.5,2.5,0.3c0.7-0.2,1.3-0.8,1.5-1.5c0.5-2.8,1-3.2,3.7-3L727,429.6z"/>
<path d="M429.3,522.4c2.9-0.2,4,1,4.5,2.6s-0.5,2.7-1.9,3.5c-1.8,1.2-3.7,2.3-5.6,3.2c-0.8,0.3-2.5,0.2-3-0.4
	c-0.8-1-1.6-3.4-1.2-3.7C424.4,525.7,426.8,524,429.3,522.4z"/>
<path d="M344,535.5c-0.9,1.9-1.7,4-2.8,5.8c-0.9,1.5-2.9,2-4.5,1.1c-1-0.6-1.6-2.5-1.6-3.8c-0.1-3.3,1.3-5.5,4.9-6.2
	C343,531.9,343.4,531.9,344,535.5z"/>
<path d="M734.6,126.8c0-2.5,1.8-4.9,3.7-5c2.1-0.1,4.2,2.4,4.2,4.8c0,3.5-1,4.8-3.8,4.8C735.8,131.4,734.6,130.1,734.6,126.8z"/>
<path d="M612.3,493.3c-2.1,0.1-4.2,0.4-4.8-2.5c-0.4-1.7,0.2-2.8,1.7-3.2c2.6-0.8,5.4-0.4,7.7,1c0.6,0.5,1,1.2,1,2
	c-0.3,1-1,1.9-1.9,2.4C614.8,493.3,613.6,493.4,612.3,493.3z"/>
<path d="M317.1,51.8c3.1,0,4.1,1.3,3.7,5.1c0,0.3-0.2,0.6-0.2,0.9c-0.2,1.3,0.4,3.1-2,3s-4.4-1.7-4.5-3.7c-0.1-0.8,0-1.5,0-2.3
	C314,52.3,314.6,51.8,317.1,51.8z"/>
<path d="M458.8,532.1c0,2.1-1.1,3.5-3,3.5c-2.1,0.1-4.4-1.6-4.4-3.2c-0.1-3.5,1.2-5.5,3.6-5.4S458.8,528.7,458.8,532.1z"/>
<path d="M725.4,418.6c-0.8,0.6-1.8,1.8-2.8,1.9c-1.3,0.1-2.6-0.3-3.6-1.1c-1.1-1.1-1.5-2.8-3.5-2.9c-0.3,0-0.9-1.3-0.8-1.9
	c0.2-0.8,0.7-1.4,1.5-1.8c1.6-0.5,8.2,3,8.8,4.5C725.2,417.8,725.3,418.2,725.4,418.6z"/>
<path d="M22.5,314.6c3.6,0,4.8,1.2,4.6,5c-0.1,1.7-1.3,2.2-2.9,2.2c-3.4,0-5-1.3-5-4C19.3,314.8,19.5,314.6,22.5,314.6z"/>
<path d="M292.1,514.6c-2.6,0-6.8-4.1-6.4-5.9c0.4-1,1.1-1.7,2.1-2c3-0.7,6.9,3.2,6.2,6.2C293.8,513.6,292.5,514.2,292.1,514.6z"/>
<path d="M29.9,335.4c-3.2-0.4-4.3-1.5-4.2-4.5c0-0.9,0.2-1.8,0.3-2.7c1.5,0.2,3,0.3,4.4,0.6c0.5,0.2,1,0.5,1.2,1
	c0.6,1.3,1.4,2.7,1.4,4C32.9,334.4,31,334.9,29.9,335.4z"/>
<path d="M648.2,75.4c-0.8,1-1.5,2.5-2.5,2.9c-1.3,0.5-2.8-0.2-3.2-1.5c0-0.1-0.1-0.3-0.1-0.4c-0.4-2-0.6-4.1-0.5-6.2
	c0-1,2.9-1.2,3.8,0C646.6,71.9,647.5,73.6,648.2,75.4z"/>
<path d="M424.9,39.3c3.1,0,4.6,1.3,4.7,4.2c0,0.3-0.2,1-0.4,1c-1.9,0.4-3.9,0.6-5.9,0.6c-1.6-0.1-2-1.6-2-3.1
	C421.5,39.8,422.1,39.3,424.9,39.3z"/>
<path d="M222.5,79.8c0.1,1.7-0.7,3.2-2.3,3.2s-4,0.2-4.9-2c-0.3-0.8-0.4-1.6-0.5-2.5c-0.1-1.5,0.8-2,2.2-1.4c0.9,0.5,2,0.7,3.1,0.6
	C222.1,77.2,222.4,78.4,222.5,79.8z"/>
<path d="M116.2,175.1c1.2-1.4,2.5-2.6,3.8-3.8c1-0.8,2.5-0.7,3.3,0.3c0.2,0.2,0.3,0.5,0.4,0.8c0.6,1.4-0.4,4-1.6,4.6
	C120,178,118.4,177,116.2,175.1z"/>
<path d="M817.5,297.9c-3.2-0.1-3.9-0.8-3.8-3.5c0-1.9,1.2-2.5,2.8-2.5c1.9,0,4.2,2.1,4,3.7C820.3,297.6,819.3,298.6,817.5,297.9z"/>
<path d="M392.6,38.3c0-1.9,1.9-4.1,3.7-4c1.4-0.1,2.6,1,2.7,2.4c0,0.1,0,0.3,0,0.4c0.1,2.2-1.3,4-3.1,4.1
	C394.3,41.1,392.9,39.9,392.6,38.3z"/>
<path d="M354.3,58.5c-0.4,2.2-2.1,4.4-3.6,4.5s-2.7-1.4-2.8-3.3c0-2.1,1.4-4.1,3.2-3.7C352.3,56.3,353.2,57.6,354.3,58.5z"/>
<path d="M687,457.3c-2.6-0.1-3.8-1.2-3.6-3.6c0.1-1.8,1.7-2.3,3.2-2.4c1.7,0,3.1,1.3,3.2,3c0,0.1,0,0.1,0,0.2
	C689.5,456.1,688.8,457.5,687,457.3z"/>
<path d="M73.9,399.5c0.2-1.3,0.8-2.5,2.6-2.6c1.5,0,3.4,2,3.4,3.5c0,1.2-2.4,3.1-3.9,3.1C74.7,403.5,73.8,401.9,73.9,399.5z"/>
<path d="M370.9,34.3c-1.9,0.2-3.3-0.3-3.5-2.5c-0.1-1.3,2.5-2.8,4.5-2.7c2.3,0.1,1.8,1.9,1.8,3.3C373.7,34.2,372.6,34.6,370.9,34.3z
	"/>
<path d="M511.5,36c-1,0.1-2,0-2.9-0.1c-0.2,0-0.4-1.3-0.3-1.3c0.7-0.3,1.5-0.6,2.2-0.8c0.5-0.1,0.9-0.3,1.3-0.7
	c1-1.3,2.1-2.4,3.7-0.8c1.4,1.3,0.6,2.6-0.4,3.6C514,37.1,512.6,37.8,511.5,36z"/>
<path d="M534.9,45.3c-0.4-1.8-0.8-3.7,1.3-4.3c1.4-0.3,2.8,0,4.1,0.7c1.4,0.8,0.7,2.4-0.1,3.3C538.6,46.6,536.7,45.8,534.9,45.3z"/>
<path d="M412.9,47.2c-2.2,0-3.4-0.3-3.5-2.4c-0.2-1.5,0.8-2.9,2.3-3.1c0.1,0,0.1,0,0.2,0c1.6-0.3,3.2,1.7,3.2,3.5
	C415.1,47.2,413.8,47.3,412.9,47.2z"/>
<path d="M792.3,318.5c0.7,1.5-0.5,2.2-1.8,2.4s-3.1-1.9-3.1-3.8s1.3-2,2.7-2C792.5,315,792.4,316.6,792.3,318.5z"/>
<path d="M295.9,66.8c0-2.3,0.9-3.2,2.9-3.1c1.5,0.1,2.7,0.6,2.8,2.4c0,1.5-1.9,3.1-3.5,3S295.6,68.3,295.9,66.8z"/>
<path d="M843.6,227.7c-0.7-0.7-1.3-1.6-1.6-2.5c-0.3-1.3,1.6-2.7,3.2-2.5c1.4,0.1,2.6,0.8,2.4,2.4C847.4,227,846,227.4,843.6,227.7z
	"/>
<path d="M783.6,355.5c-1.8,0.7-1.8-0.5-1.8-1.8c-0.1-1.9,0.8-3.2,2.7-3.3c1.2-0.2,2.2,0.7,2.4,1.8c0,0.2,0,0.4,0,0.6
	C786.7,354.9,785.8,355.9,783.6,355.5z"/>
<path d="M45.8,405.3c-0.4,2.2-1.8,3.3-3.7,3.2c-1.2,0.1-2.3-0.8-2.4-2c0-0.1,0-0.3,0-0.4c0-2.8,2.3-2.3,3.8-2.4
	C44.2,403.7,45,404.8,45.8,405.3z"/>
<path d="M453.3,36.2c-0.7,1.7,0,3.8-2.2,3.4c-1.3-0.2-2.4-1.4-3.5-2.2c1-1,2.1-1.9,3.3-2.6C451.5,34.6,452.6,35.8,453.3,36.2z"/>
<path d="M118.9,453.4c-0.6-0.7-1.8-1.5-1.7-2.1c0.2-1.4,0-3.5,2.5-3.4c1.6,0.1,2.3,0.7,2.2,2.4s-0.4,2.9-2.5,2.6L118.9,453.4z"/>
<path d="M231.3,80.3c0.1-0.2,0.3-0.8,0.7-1.1c1.3-0.7,5.4,2.2,5.3,3.7c0,0.5-0.3,1-0.7,1.3C235.2,84.9,231.3,82.3,231.3,80.3z"/>
<path d="M683,79.9c1.2-0.3,1.6,0.5,1.6,1.8c0,1.5-1.9,3.2-3.4,2.9c-0.7-0.2-1.8-1-1.9-1.7C679.2,81,680.8,79.8,683,79.9z"/>
<path d="M669.3,84.6c-0.7,4.7-0.9,5-3.1,4.7c-2.4-0.4-1.5-2.2-1.4-3.4C664.9,84.3,666.8,83.9,669.3,84.6z"/>
<path d="M24,304.2c-0.2-1.7,0.8-2.8,2.3-2.6c1,0.1,2.4,1.6,2.4,2.4c-0.3,1.2-1.2,2.1-2.3,2.5c-1,0.3-2.1-0.3-2.4-1.3
	C23.9,304.8,23.9,304.5,24,304.2z"/>
<path d="M769.3,365.2c-1.5,1.3-2.4,2.6-3.5,2.8c-0.7,0.1-1.7-1.5-2.5-2.4c0.9-0.8,1.6-2,2.6-2.3
	C766.7,363.1,767.8,364.3,769.3,365.2z"/>
<path d="M7.8,349.8c-1.5,0.3-2.3-0.7-2.2-2.2c0.1-0.8,1.2-2.1,1.7-2.1c1.3,0.1,3.3-0.4,3.3,2.1C10.5,349.3,9.5,349.8,7.8,349.8z"/>
<path d="M124.1,163.8c2,0.6,2.9,1.5,2.5,3c-0.3,0.8-0.8,1.4-1.5,1.9c-1.2-0.7-2.4-1.6-3.5-2.5L124.1,163.8z"/>
<path d="M637.2,74.9c0.7,1,1.7,2,1.5,2.3c-0.6,1-1.5,2.4-2.4,2.5s-1.9-1.3-2.9-2L637.2,74.9z"/>
<path d="M803.1,312.1c-0.7,0.5-1.5,1.2-2.2,1.3c-1.6,0.2-1.9-1-2-2.4c-0.2-0.9,0.4-1.8,1.3-1.9c0.2,0,0.4,0,0.6,0
	C802.3,309.1,802.9,310.1,803.1,312.1z"/>
<path d="M202.1,99.5l2.1,2.4c-0.8,0.8-1.8,1.5-2.8,2c-0.5,0.2-1.4-1-2.1-1.6L202.1,99.5z"/>
<path d="M319,61.8c1.1,1.3,2.3,2.1,2.2,2.7c-0.1,0.9-1.1,1.7-1.8,2.5c-0.9-0.8-1.6-1.7-2.2-2.7C317.1,64,318.1,63.1,319,61.8z"/>
<path d="M498.5,31.3c1,0.9,2,1.4,2.3,2.2c0.1,0.4-1.2,1.9-1.6,1.8c-1-0.5-2-1.1-2.8-1.8L498.5,31.3z"/>
<path d="M635.5,495c-0.6-0.7-1.1-1.5-1.5-2.4c-0.1-0.2,1.2-0.8,1.8-1.3l1,3L635.5,495z"/>
<polyline class="st9" points="200.9,76.7 207.2,73 213,68.3 219.8,65.4 226,61.3 232.5,57.8 239.2,54.5 246.5,53.1 253.6,51.1 
	260.6,48.9 267.7,46.7 274.2,42.9 281.8,42.5 288.6,39.8 295.3,36.6 302.4,34.5 309.1,31.4 316.6,30.7 323.5,29.3 329.5,25.2 
	335.9,22.5 342.9,21.5 350,20.8 356.6,19 363.4,17.6 369.7,13.6 376.8,13.4 383.7,12.5 390.7,11.6 397.6,13.8 404.5,13.6 
	411.4,14.5 418.7,15.2 426.1,14.9 433.3,17.5 440.6,17.5 448,15.9 455.3,15.9 462.7,17.1 470,15.9 477.3,15.4 484.5,13.5 
	491.9,14.8 499.1,13.4 506.4,12.4 513.7,11.5 521,10.4 528.3,10.1 535.7,11.5 543,10.9 550.3,11.5 557.7,11.4 564.8,13.7 572,15.1 
	579.4,15.1 586.6,16.5 593.6,18.9 601.1,18.9 607.9,22 615.3,22.7 622.1,25.7 629.1,27.7 636.2,29.6 642.7,33.4 650,34.8 
	655.8,39.9 663.6,40.5 670.2,43.8 676.6,47.5 682.4,52.1 689.2,55.1 695.3,59.4 700.1,65.7 707,69 713.6,72.6 718.5,78.6 
	723.9,83.8 731.4,86.2 736.4,92.1 742.9,95.9 749.1,98.8 754.4,103.2 760.1,107.1 764.2,112.7 770.4,116 775.4,120.7 779.8,126.1 
	786.4,129 791.7,133.8 797.6,137.7 804,140.6 810.1,144 817.3,145.4 823.5,148.7 829.1,153 835.2,156.7 839.8,162.2 844.9,166.9 
	849.5,172.5 850.9,179.6 854.1,186 854.3,193.2 854.8,200.3 855.7,207.4 856.6,214.5 857.9,221.6 857.4,228.8 859.1,235.8 
	858,243.1 860.1,250.2 860.1,257.5 857.8,264.5 857.7,271.7 855.9,278.6 853.5,285.4 851.7,292.3 849.7,299.2 848.7,306.3 
	845.8,312.9 843.7,319.6 841.9,326.5 839,332.9 836.8,339.8 831.9,345.1 829.2,351.8 824.6,357.2 820,362.6 815.4,367.9 
	810.6,373.1 806,378.5 802.8,384.9 797.7,391 796,398.9 792.4,405.8 787.7,412.1 783.8,418.9 779.3,425.5 771.7,428.4 765.4,433 
	759.2,437.8 751.8,440.9 747.3,446.6 741.6,450.8 736.5,455.7 731.1,460.2 726.3,465.5 720,469.1 715.8,475 709.2,478 704,483 
	699,488.2 692,490.2 686.4,494.3 680,497 674.4,501 668.9,505.2 662.9,508.5 657.5,513 651.7,516.7 644.5,517.8 639.2,522.7 
	632.5,524.7 625.5,525.7 619,528.4 612.5,530.8 605.9,533.5 599.2,535.4 591.8,534.8 585.4,537.7 578.7,539.9 571.6,540.3 
	565.1,543.9 558.1,545.6 551.2,547.8 544.4,550.3 538,553.6 531.9,557.8 524.5,558.5 517.9,562 510.5,561.9 504,563.4 497.2,563.3 
	490.6,563.9 483.8,562.2 477.5,565.1 471,566.4 464.7,568.8 458.1,570.7 451.8,573.4 444.8,573.6 438.5,576.4 431.9,578.4 
	424.9,577.6 417.8,579 410.7,578.1 403.5,578.2 396.3,579 389.3,577.2 382.1,577.8 374.9,577.3 367.7,577.2 360.9,574.1 
	353.6,575.1 346.5,574.4 339.3,573.8 332.2,572.9 325.5,570.2 318.4,571.1 311.4,569.6 304.4,570.5 297.4,569.8 290.4,571.5 
	283.5,568.5 276.4,571 269.5,568.3 262.4,569.2 255.5,568.2 248.6,567 241.5,564.6 234,564.4 226.8,562.7 219.3,562.3 212.6,558.2 
	205.3,557 197.8,556.6 190.9,553.6 183.7,551.7 177,548.3 169.5,547.3 163.2,543.1 156.2,540.8 149.7,537.4 143,534.8 136.4,531.7 
	129.4,529.5 123.5,525.1 117.2,521.1 112.1,514.8 108,507.9 104.7,500.8 100.4,494.2 95.6,488.5 91.2,482.4 86.9,476.2 82.4,470.2 
	76.6,465.2 72.9,458.6 69.6,451.9 66.4,445.1 64.8,437.9 62.2,431.4 60.5,424.5 60.2,417.5 60.2,410.1 53.2,406.9 45.5,406.2 
	39.5,401.7 33.8,397.1 29.2,391.5 24.7,385.4 22.9,378.1 22.9,370.5 20.5,363.5 18.2,356.6 15.9,349.8 12.8,343.2 14.1,335.6 
	10.7,328.8 12.7,321.5 11.7,314.3 12.8,307.2 12.2,299.9 14.1,293.2 14.9,286.3 15.9,279.4 19.1,273.1 21.3,266.5 23,259.8 
	25.7,253.5 27.5,246.8 30.5,240.6 32.8,234 37.4,228.6 40.7,222.6 42.4,215.6 45.5,209.5 49.9,204 53.2,198 56.9,192.2 60,186.1 
	62.4,179.5 66.5,174 70.1,168.1 75.2,163.3 80.6,159.1 86.6,155.1 91.7,150.1 96.9,145.3 102.2,140.5 106.5,134.7 111.9,130 
	117.9,126.1 124.5,123 129.4,117.7 135.8,114.5 141,110.1 146.4,105.2 151.2,99.4 157.7,95.6 165.1,94 171.7,90.5 179.2,89.5 
	185.9,86.1 193.7,86 200.3,82.5 206.7,78.4 210,71.6 "/>
<path class="st10" d="M577.1,128.7c1.3,2,3.8,2.4,3.3,5.2c-2.3-1-2.1,1.4-2.6,1.9c0.8,1.5,1.4,3,2,4.5c0.7,2,4.9,4.4,7.3,4
	c2.6-0.5,5.3-1.1,7.9-1.3c4.5-0.4,9-0.6,13.5-0.6c1.6,0,3.2,1.4,4.8,1.9c0.8,0.2,1.5,0.1,2.3-0.2c1.6-0.5,3.1-1.4,4.8-1.7
	c2.2-0.4,4.4-0.4,6.6-0.3c1.4,0.3,2.6,0.8,3.8,1.6c2.1,1.2,3.9,2.7,6.7,2.2c0.6-0.1,2,1.2,2.2,2c0.7,3,3.2,4.1,5.3,5.6
	c1.4,1.1,2.5,2,2.6,3.9c0.3,4.3,0.9,8.6,1.3,12.9c-0.1,0.7-0.4,1.3-0.8,1.8c-1.4,2.4-2.7,4.8-4.3,7.1c-1.2,1.8-2.7,3.3-4.1,4.9
	c-0.7,0.9-1.4,1.9-2,2.9c-1.9,2.8-5.3,2.7-7.9,4.1c-3.3,1.9-6.6,3.9-9.9,5.9c-0.2,0.1-0.3,0.4-0.4,0.4c-1.9-1.3-2.2,1.7-3.6,1.3
	c-1.2-0.4-2.4-1-3.5-1.7c-0.7-0.4-1.4-0.9-2.2-1.4c-1.5,1.8-3.1,1.7-4.9,0.6c-0.5-0.3-1.4,0.2-1.9,0c-7.1-2.9-12.9,0.8-18.9,3.5
	c-5.4,2.5-5.6,2.2-9.9-1.9c-2.7-2.6-2.5-5.8-2.8-8.7c-0.5-4.3-1.6-8.7,0-13.1c0.3-0.8-0.8-2.1-1.4-3.1c-1.3-2.1-1.9-4.1-0.3-6.4
	c0.8-1.1,0.2-2.9,2.1-3.4c3.3-0.9,6.7,0.7,8.2,3.8c0.2,0.6,0.6,1.1,1.1,1.4c3,1.4,6.1,2.7,9.2,4c0.6,0.2,1.3,0.2,1.9,0.1
	c2-0.2,3.2,1.1,2.4,2.9s-0.2,2.2,1.3,2.8c2.5,1,4.6,1,6.5-1.3c0.3-0.4,1.1-0.6,1.8-0.9l3.5,2.8c0.2,1.6-1.5,4.1,1.3,4.6
	c2,0.3,1.5-2,1.9-3.4c1.7-0.3,3.5-0.7,5.2-0.9c0.5-0.1,1,0,1.3,0.3c0.9,0.8,1.8,1.6,2.8,0.5s2.5-2.4,1.5-4.3
	c-0.3-0.5-0.2-1.2,0.1-1.7c0.5,0.3,0.9,0.6,1.3,1c0.7,1,1.7,1.4,2.7,0.8s2.9-0.6,2.6-2.9c-0.1-2,0.1-4.1,0.5-6.1
	c0.1-0.8,0.4-1.6,1-2.3c3.2-2.9,3.3-3.7,0-6.7c-0.6-0.6-1.4-1.1-2.2-1.5c-3-1-5.4-3.4-8.8-3.1c-0.7-0.1-1.4-0.3-1.9-0.8
	c-1.8-1-3.5-2.1-5.8-0.9c-0.7,0.4-2-0.3-3-0.5c-2.6,1-5.4,2.1-8.2,3.1c-0.4,0.1-0.8,0.1-1.2,0c-2.9-0.3-5.9-0.4-8.8-0.3
	c-3.1,0.2-5.6-1-8.1-2.4c-1.3-0.8-2.7-1.5-4-2.1c-0.6-0.3-1.3-0.2-1.9,0.1c-1,1-1.6,0.3-2.3-0.3c-5.5-4.6-7.5-11.1-8.8-17.8
	c-0.4-1.9,0.9-4.2,1.6-6.2s1.7-4.2,2.6-6.3c0.2-0.6,0.7-1.2,1.2-1.6c4.5-2.6,9.1-4.9,13.4-7.7c2.2-1.4,4.1-0.7,6.2-0.6
	c0.5,0,1.4,0.2,1.5-0.1c1.4-2.3,3.5-1,5.3-1.1s3.6,0.3,5.3-0.2c2.2-0.6,3.8,0.4,5.3,1.4c1.5,1,3.3,1.4,5.1,1.1
	c2-0.3,3.7-0.3,5.2,1.5c1,1.2,2.2,0.6,3-0.6c1.2-1.8,2.3-3.7,3.4-5.6c1.2-2.1,2.9-1.4,4.6-1c0.5,0.1,1.1,0.1,1.6,0.1
	c1.1,2.3,2.4,4.5,3.9,6.6c1,1.2,1.3,2.8,0.8,4.3c-0.4,1.9-1.7,4-1.1,5.6c0.8,2.6,0.6,5.7,2.8,7.8c0.8,0.7,0.3,3.3-0.6,4.1
	s-2.9,0.5-3.9-0.5c-1.2-1.2-2.5-2.2-3.9-3c-2.3-1.2-3.4-3.2-4.7-5.3c-0.9-1.2-2-2.3-3.3-3c-2.5-1.5-5.2-2.8-7.8-4.3
	c-1.6-0.9-3.1-1.8-5-0.9c-3.1,1.4-6.4,0-9.5-0.1c-3.8-0.3-7.6,0.5-11.1,2.1c-1.6,0.8-2.8,2.6-4.1,4
	C580.9,124.4,578.9,126.7,577.1,128.7z"/>
<path class="st10" d="M473.4,184.2c3.3,3.6,3.3,3.6,1.6,5.6c0.4,0.5,0.7,0.9,1.1,1.4c0.6,0.8,1.2,1.8,1.6,2.7
	c1.3,2.5,2.6,5.4,5.7,6.4c4.4,1.4,8.8,2.8,13.2,4.1c0.5,0.1,1,0.4,1.5,0.7c1.5,1.5,3.3,1.6,5.3,1.3c1.2-0.2,2.5,0.4,4.3,0.7
	c2.4-2.3,5.6-3.5,8.9-3.6c2.5-0.1,4.5-2,4.7-4.5c0.5-3.2,2.2-5.3,4.7-7.3c1.7-1.3,2.8-3.4,4.2-5.1c0.5-0.7,1.1-1.3,1.8-1.7
	c0.9-0.4,2.3-1,2.8-0.6c1.6,1.2,2.8,2.7,3.7,4.4c1.2,3.1-1.4,5.3-2.4,7.9c-1.3,3.4-3.9,5.9-5.8,8.9c-1.9,3-4.9,5.1-8.3,5.9
	c-1,0.3-2,0.6-2.9,1.1c-1,0.6-1.9,1.5-2.9,2c-1.3,0.7-2.8,1.3-4.1,1.9c-0.7,0.3-1.7,0.4-2,0.9c-1,2.1-2.8,1.7-4.2,1
	c-2.5-1.1-4.9-1-7.4-0.8c-1.8,0.1-3.6,0.1-5.4,0.4c-2.2,0.2-4.5-0.4-6.2-1.7c-1.3-0.9-3.3-1-3.7-3.1c-0.1-0.4-1.3-0.6-1.8-0.8
	c-0.8-0.8-1.4-1.9-2.3-2.1c-1.9-0.6-3.3-2.1-3.6-4c-0.2-1-0.9-1.9-1.8-2.5c-5.1-2-7.5-6-8.8-11c-0.8-3.2-1.4-6.5-2.5-9.6
	c-0.6-1.6-2-2.9-3-4.4c-0.9-1.1-1.6-2.3-2.2-3.5c-0.3-0.9,0.1-1.9,1-2.3c1.9-1.2,2.9-3.5,2.5-5.7c-0.1-0.8-0.2-1.5-0.5-2.2
	c-1.1-3.1,1.4-5.3,1.7-8.1c0.2-1.6,0.5-3.2,0.9-4.8c0-0.4,0.2-0.8,0.4-1.1c2.5-2.3,5-4.6,7.5-6.9c0.7-0.6,1.6-1,2.4-1.6
	c0.4-0.4,0.7-0.9,0.7-1.4c0.4-3.4,1.2-4.1,4.3-5c0.9-0.3,1.6-1.5,2.5-2.5c1.3,1.3,2.5,1.6,3.1-1c0.1-0.4,1.2-0.9,1.9-0.9
	c7.6-0.4,15.2-0.8,22.8-1.1c0.6,0,1.2,0.4,1.8,0.6c0.9,0.2,1.8,0.4,2.7,0.6c0.4,0.1,1.1,0.3,1.2,0.5c0.2,1.9,1.7,1.4,2.9,1.6
	c0.7,0.1,1.7,0.2,1.9,0.6c1,2.9,3.5,4.1,5.8,5.7c0.9,0.8,1.6,1.7,2.1,2.8c1.5,2.2,2.9,4.5,4.5,6.7c0.6,0.8,1.6,1.3,2.3,2
	c0.4,0.6,0.7,1.3,0.9,2c0.1,0.3,0,0.7,0.2,0.9c2.1,1.8,1.3,3.8,0.5,5.9c-0.4,1.2-0.4,2.5-0.2,3.7c0.2,1.8,0.7,3.5,1.2,5.7
	c-3.2-0.2-5.6,1.4-8.6,0.1c-2.1-0.9-4.2,0.8-5.9,2.4c-3.3,3.2-3.4,3.3-7.3,1.1c-1.9-1.1-3.5-1.5-5.4,0c-1.1,0.9-2.7,1.1-3.9,1.9
	c-1.2,0.6-2.1,1.6-2.8,2.7c-0.6,1.3-1.2,1.9-2.6,1.8c-1-4.3-3.9-3.9-7.7-2.7c-4,1.3-8,2.9-12.1,4.2c-0.7,0.2-1.3,0.2-2,0
	C474.8,181,474.4,181.2,473.4,184.2z M493.2,144.6c-1.5-1.4-4.9-2.4-6.7-2c-2,0.6-3.1,2.6-2.6,4.6c0,0,0,0.1,0,0.1
	c0.2,0.9,0.2,1.8,0,2.7c-0.2,1.3-0.9,2.5-0.8,3.7c0.2,3.8-0.9,7.1-3.8,9.6c-0.5,0.4-0.8,1-0.8,1.6c0.8,3.2,3.7,5.4,6.9,5.2
	c1-0.1,2,0.1,3,0c0.8,0,1.6-0.2,2.4-0.5c1.2-0.7,2.3-1.7,3.5-2.6c2.1-1.5,3-1.4,5,0.3c0.4,0.4,1.5,0.8,1.7,0.5c1.5-1.3,2.9-2.8,4-4
	l5.7-0.3c0.1-0.5,0.2-1.1,0.2-1.7c-0.5-3.8-0.9-7.5-1.5-11.3c-0.1-1-0.4-2-1-2.8c-1.9-2.3-4-4.4-6-6.6l-1,1.4
	C498.5,140.8,496.5,141.3,493.2,144.6z"/>
<path class="st10" d="M369.1,116.5c0.6-0.4,1.2-0.8,1.9-1c4.3-0.6,8.6-1.1,13-1.4c0.9,0,1.7,0.3,2.4,0.9c0.7,1.1,2.1,1.5,3.3,0.9
	c3.3-1.2,6.7-2.2,10.1-3c4.8-1.1,10.2,3,10.9,7.9s1.2,10.1,1.7,15.2c0.1,1.1,0,2.2-0.3,3.2c-0.4,1.4-1.1,2.6,0.8,3.4
	c0.3,0.4,0.5,1,0.3,1.5c-1.8,2.6-0.2,5.1,0.2,7.6c0.1,0.9,0.8,1.8,0.9,2.7c0.2,3.7,1.8,7,3.2,10.4c0.1,0.7,0.1,1.5-0.1,2.2
	c-0.3,1-0.5,2-0.6,3.1c0.4,4.4,1,8.8,1.5,13.1c0,0.5-0.1,1-0.2,1.5c0,0.5-0.1,1.2,0.2,1.4c1.5,0.9,1.4,2.4,1.8,3.8
	c0.2,0.6,0.4,1.1,0.6,1.7c0.1,0.4,0.5,0.8,0.4,1.1c-1.7,4.3,0.3,7.9,1.8,11.6c0.7,1.8,1,3.9,1.9,5.6c1.1,2.3,2.6,4.5,4.3,6.4
	c1.7,1.8,4.3,1.1,5.8-0.9c0.7-0.7,1.4-1.4,2.1-1.9c0.9,0.7,1.9,1.4,2.9,1.9c1.9,0.8,4,1.4,6,2.1c0.3,0,0.5-0.1,0.7-0.3
	c2.1-2.4,5.4-2.3,8-3.5c1.7-0.8,6.5,2.1,7.6,4.2c0.6,1.2-0.7,4.6-2.2,5.9c-1.2,1-2.3,2.2-3.5,3.2c-0.6,0.4-1.2,0.7-1.8,0.9
	c-2.3,0.9-4.6,1.7-7,2.4c-0.8,0.3-1.7,0.4-2.5,0.2c-1.8-0.8-3.8-0.5-5.3,0.7c-1.8,1.5-3.6,0.8-5.1-0.1c-1.4-0.9-3.3-0.8-4.6,0.3
	c-1.5,1.2-3.6,1.4-5.4,0.7c-1.4-0.4-3,0-4.5,0c-1.6,0-3.2,0.1-4.8,0.3c-0.9,0.2-1.7,0.6-2.5,1c-2,0.7-4,1.5-6,2.2
	c-0.3,0.1-0.6,0.2-0.9,0.4c-2.4,2.4-5.4,1.5-8.2,1.4c-2.8-0.1-5.7,0.1-8.5,0.6c-4,0.8-7.1-0.4-10-3.3c0.3-0.6,0.7-1.3,1.1-1.9
	c-0.9-1.2-0.8-4,0.5-4.5c1-0.4,1.6-1.4,1.4-2.5c0-1.7,1.1-1.9,2.3-2c0.9,0,1.8,0,2.7,0.1c3.3,0.2,5.9-1.2,8.4-3.2
	c1.5-1.4,3.6-2,5.6-1.7c2.5,0.5,3.5-1.6,4.7-3.3c0.2-0.3,0.2-0.7,0.4-0.9c2.4-2.3,1.5-4.8,0.3-7.2c-1.4-3-0.5-7.6,1.4-10
	c0.9-1.1,1-2.8,1.5-4.3c-1.7-1.6-3.5-3.1-5.5-4.4c-2-1.2-1.5-2.7-0.7-4c2.1-3,3-6.3,3.6-10s-0.8-6.5-1.5-9.7
	c-0.3-1.5-0.8-2.9-1.3-4.5c2.1-1.1,2-3.6,2.8-5.6c0-0.5-0.2-1.1-0.6-1.4c-2.2-1.2-2.4-3.6-3.4-5.5c-0.3-0.6,0.4-1.7,0.2-2.5
	c-1.5-7.3-3-14.6-4.6-22.2c-1.5,0.8-2.7,1.4-4,2.1c-0.4,0.2-1,0.5-1.2,0.3c-3-2-6-0.1-9,0c-2.7,0.1-5.3,1.2-7.3,3
	c-0.2,0.2-0.6,0.6-0.8,0.5c-3.9-1.1-8.4,0.2-11.8-3.1c-1.9-1.8-1.5-4-1.9-6.1c0-0.2,0.2-0.5,0.5-0.6c2-1,4-1.9,6-2.8L369.1,116.5z"
	/>
<path class="st10" d="M236.1,197.2c2.1,3.1,1.9,5.1-0.6,8c-1.1,1.3-2.1,2.6-3,4c-0.3,0.6-0.3,1.3,0,1.9c1,2.3,2.2,4.5,3.3,6.7
	c0.7,1.5,2,0.8,3.1,0.8c3.3-0.1,6.6,0.1,8.4,3.2c1.2,1.9,1.6,4.2,2.4,6.4c0.2,0.4,0.3,0.8,0.4,1.2c0,2.3,1.7,4.2,4,4.5
	c2.1,0.4,3.9,2,4.5,4.1c1.4,3.5,3.8,5.6,7.8,5.7c1.8,0.1,3.5,0.4,5.2,0.8c0.1-0.1,0.2-0.2,0.3-0.3c1-2.4,2.7-2.7,5.1-2.2
	c1.7,0.3,3.4,0.3,5.2,0.1c2.3-0.1,3.2,0.7,3.2,3.1c0,0.1-0.1,0.4,0,0.4c2.1,1.6,1.5,3.9,1,6.5c-1.3,0.6-2.6,1-3.9,1.4
	c-4,1-7.9,2-11.9,2.8c-1.9,0.4-3.9,0-5.9,0.2c-2.9,0.3-5.8,0.9-8.6,1.3c-2,0.3-3.6,1-4.4,3.1c-0.4,1-1.2,1.4-2.6,1.5
	c-4.6,0.6-6.8-3.1-10-4.9c-0.6-0.4-0.7-1.7-1-2.6s-0.6-1.9-0.9-3l1.2-0.1c2.5-0.3,4.1-1.6,6-3.5c2.3-2.4,1.2-4.3,0.6-6.4
	c-0.8-2.3-1.8-4.5-4.3-5.7c-0.9-0.6-1.6-1.6-1.7-2.7c-0.2-2-1-3.3-3-3.5c-1.6-0.1-1.7-1.1-1.6-2.3c0.1-1,0.2-2.1,0.1-3.1
	c-0.1-0.6-0.3-1.1-0.7-1.6c-0.9-1.4-1.8-2.7-2.8-4c-0.8-1-1.8-1.8-2.6-2.7c-1.2,1.2-2.7,2.1-3.4,3.6c-0.9,1.9-0.6,4.1-3.6,4.8
	c-1.5,0.4-2.6,2.7-3.5,4.3c-0.8,1.3-0.9,3.1-1.7,4.4c-0.2,0.4-1.7,0.1-3.1,0.1c-1.2,1.6-0.7,3.7-0.1,5.7c0.7,1.9,1.6,3.8,2.5,5.6
	c-1.7,0.9-1.4,2.5-0.4,4c1,1.6,1.6,3.8,4.6,3.2c3.2-0.4,6.4-0.6,9.6-0.5c3.5,0,3.9,0.6,4.6,4.1c0.9,4,0,5.8-2.2,9.1
	c-2.2-0.6-4.5-1.1-6.7-1.9c-1.1-0.5-2.4-0.1-3.1,0.8c-0.4,0.5-0.9,0.8-1.4,1c-2.2,0.4-4.2,0.8-5.1,3.3c-0.1,0.4-1.2,0.5-1.8,0.5
	c-6.1,0.2-12.2,0.7-17.9,3.4c-2.8,1.3-3.7,1.1-6.1-1.8c-0.9-1.1-1.7-2.2-2.7-3.2c-2.5-2.6-1.3-6.3,1.6-8.3c3.3-2.3,7.1-3.2,10.5-4.9
	c1.6-0.8,2.6-2.7,4.1-4.4c-2.7-0.8-2.9-1.8-1.6-3.8c1.6-2.6,0.4-5.5,0.1-8.3c0-0.9,0.1-1.7,0.2-2.6c0-0.4-0.1-1.1-0.3-1.2
	c-1.5-0.4-1.4-1.7-1.7-2.8s-0.6-2.1-0.8-3.2s0-2-0.1-3c-0.8-5.2-1.6-10.4-2.5-15.5c-0.3-1.5-0.6-2.6,1.1-3.8
	c0.9-0.6,1.3-2.8,1.2-4.1c-0.3-1.8-0.8-3.6-1.5-5.4c-0.4-1.2-1-2.4,0.2-3.6c0.3-0.5,0.3-1,0-1.5c-2.8-2.2-1.6-5.3-1.8-8.1
	c-0.1-1.3,0-2.3-1.6-2.8c-1.4-0.4-2.2-1.8-2-3.3c0.2-2.9,0.6-5.9-0.1-8.6c-0.7-2.5-1.9-4.9-3.6-6.9c-0.6-0.7-2.8-0.5-4.1-0.3
	c-4.7,0.7-9-1-13.5-1.7c-1.1-0.1-1.7-3.1-1-4c2.6-3.3,5.8-4.3,9-3.3c1.6-0.7,3.3-1.3,4.9-1.8c2.7-0.4,5.5-0.7,8.2-0.9
	c1.3-0.1,2.6,0.1,3.9,0.4c0.3,0.1,0.5,1,0.7,1.5c0.4,1.1,0.2,2.7,2.7,2.2c-0.5,2.7-1,5.1-1.3,7.6c-0.2,0.8-0.1,1.6,0.3,2.4
	c1.6,1.7,1.7,3.7,1.9,5.9c0.5,5.7,1.5,11.4,2.2,17.2c0.2,1.4,0.5,2.9,0.7,4.3s0.4,2.9,2.5,3.1c-0.6,2.6-1.4,5-1.8,7.5
	c0,1.4,0.1,2.7,0.6,4c0.3,1.5,1.1,2.4,2.9,1.8c0.2-0.1,0.7,0.6,0.8,1c0.4,1.2,0.8,2.5,1,3.8c0.2,2.1,1.6,3.9,3.6,4.5
	c2.7,0.9,5.9,1.9,7.7-0.8c2-3,5.4-4.6,6.9-8c1.2-2.6,2.8-5,4.1-7.6c0.3-1,1.3-1.7,2.3-1.7C234.3,197.8,235.2,197.5,236.1,197.2z"/>
<path class="st10" d="M269.7,173.1c-0.3,1.7-0.6,3.2-0.8,4.9c-2.3-0.2-4.9,0.1-5.3-3.4C265,172.3,267.4,173.1,269.7,173.1z"/>
<path class="st10" d="M238.8,178.6l1.8,3.9c2.5,0.4,3.3-1.6,4.3-3.1c2.2-3,4.5-5.5,8.8-4.8c1.5,0.1,3,0,4.4-0.3
	c0.1,0.2,0.2,0.3,0.2,0.5c1.9,4.4-1.8,5.6-4.1,8c-3.3,3.5-7.5,3.4-11.4,4.4c-1.7,0.5-3,1-3,3.1c0,0.2-0.2,0.4-0.4,0.7l-0.6-0.2
	c0.2-1,0.5-2,0.9-3c0.7-1.7,0.5-2.4-1.4-3.1c-3-1.1-5.2,0.4-7.6,1.4c-1.1,0.5-2.1,1.1-3.1,1.8c-0.6-1.9-1.3-3.6-1.7-5.5
	c-0.1-0.5,0.6-1.4,1.2-1.7c1.6-1,3.4-1.8,5.1-2.6c1.3-0.6,2.5-1,3.8,0.2C236.4,178.7,237.6,178.5,238.8,178.6z"/>
<path class="st10" d="M321.1,168.2l-7.7-1.9c2.1-2.5,4.7-3.2,7.5-1.3c0.6,0.4,0.6,1.7,0.8,2.6L321.1,168.2z"/>
<path class="st10" d="M301.1,281.5l-1.5,0.7l0.6-2.1c-2.2-0.3-2.9-1.9-3.4-4c-0.5-2-1.4-3.9-2.5-5.7c-1.4-2.4-1.3-4.9-0.6-7.4
	s1.3-5,2.2-7.4c0.3-0.9,1.5-1.4,2.2-2.1c0.2-0.3,0.4-0.6,0.5-0.9c0.6-0.5,1.1-1.1,1.6-1.7c0.5-1,1-1.7,2.3-1.6
	c2.5,0.1,5,0.2,7.5,0.6c1.6,0.1,2.8,1.4,2.9,2.9c0.2,1.6,2,3,3.2,4.5c0.9,1.2,1.9,2.3,2.8,3.5c-1.7,2.4-3.4,4.7-4.9,7
	c-1.1,1.7-0.6,3.2,1.3,3.8c2.1,0.7,4.3,1.5,6.4,2.2c0.4,0.1,0.9-0.1,1.2-0.4c0.7-0.8,1.2-1.7,1.9-2.5c1.3-1.7,2.4-3.8,4.8-4.5
	c0.3-0.2,0.5-0.5,0.6-0.8c0.8-2.4,2.1-4.8,2.1-7.1s1.3-3.7,2-5.4c0.7-1.5,2.1-2.7,2.6-4.2c0.6-1.7,0.8-3.5,0.5-5.2
	c-0.7-3.3-1.9-6.4-2.9-9.6c-0.3-1.3-1.3-2.3-2.6-2.6c-2.2-0.7-3.7-2.7-3.9-4.9c-0.4-3.4-2.1-6.5-4.8-8.7c-0.9-0.8-1.1-2.4-1.8-3.4
	c-0.8-1-1.6-1.9-2.5-2.8c1.7-1.2,1.3-2.4,0-3.7c-1.2-1.1-2.3-2.4-3.1-3.9c-1-2.3-1.7-4.6-2.3-7c-0.5-2-0.9-4-1.4-6
	c-0.4-1.7-1.7-1.7-2.8-1.5c-1-1-2-2-2.9-3.1c-1-1.4-1.6-2.9-2.5-4.3c-0.8-1.3-1.6-2.5-2.5-3.7c-0.3-0.3-0.5-0.6-0.7-1
	c-0.3-0.8-0.4-2.1-0.9-2.3c-1.4-0.5-2.8-0.8-4.2-0.8c-1.6,0-3.1,0.2-4.7,0.4c-2.7,0.3-5.5,0.7-8.2,1l-1.6-3.9c1.2-1,2.2-2.3,3.6-2.8
	c1.6-0.6,3.5-0.4,5.3-0.5c0.5,0,1,0.1,1.4,0.2c2.7,0.9,5.6,0.4,7.8-1.4c1.6-1.1,3.1-2.5,5.4-1c0.4,0.3,1.7-0.6,2.9-1
	c1.3,0.2,1.9,1.2,1.9,2.8s0.2,3.1,0.3,4.6c0,0.6,0.2,1.2,0.5,1.8c1.1,1.1,1.9,2.1,0.5,3.6c-0.1,0.1,0,0.6,0.1,0.7
	c2.5,1.7,1.5,4.2,1.5,6.4c0.1,1.9,0.5,3.1,2.6,4.1c1.4,0.6,2,3.1,2.8,4.7c1.4,3,2.6,6.2,4.3,9c0.8,1.5,1.9,3,4,3.4
	c2.4,0.4,4.5,4.8,4,6.4c1.2,2.7,2.1,5,3.2,7.1c0.8,1,1.6,2,2.6,2.9c0.3,0.4,0.3,1,0.5,1.4c0.3,0.9,0.8,1.7,1.5,2.3
	c0.3,0.2,1.5-0.4,2-0.9c1.3-1.1,2.9-2.2,3.5-3.7c0.7-1.9,1-4,1-6c0.1-3.4-0.4-6.9,0-10.3c0.4-3.9,0.6-8.1,2.4-11.5
	c1.5-2.7,2.1-5.8,1.7-8.9c-0.2-1.6,1.1-3.4,1.7-5c0.1-0.4,0.5-1,0.3-1.2c-1.6-2.4,0.4-4.4,0.5-6.6c0-1.8-0.7-3.4-1.9-4.7
	c0-0.1-0.1-0.1-0.2-0.1c-2.3-3.9-5.5-1.3-8.2-0.9c-3,0.4-3.6,0.4-4.5-2.7c-0.4-1.5-1.9-3-0.2-4.5c0.5-0.3,1-0.5,1.6-0.5
	c3.8,0,7.5,0.1,11.3,0.2c0.5,0,1.3,0,1.4,0.2c1.1,2.8,3,0.9,4.2,0.4c2.4-0.9,4.5-1.5,6.9,0c1.3,0.9,5-0.2,6.2-1.4
	c0.3-0.4,1.2-0.3,1.8-0.2c0.3,0,0.6,0.6,0.8,0.6c1-0.1,1.7-0.1,1.9,1.2c0.5,2.9,0.5,2.9-0.6,3.8c-1.6,0-2.8,0-4-0.1
	c-0.4,0-1-0.1-1.1-0.4c-0.9-1.7-2.2-0.9-3.4-0.8c-1.5,0.1-1.3,1.4-1.5,2.3c-0.3,1.5-0.9,2.9-1.8,4.1c-1.1,1.6-2,3.5-3,5.2
	c-0.3,0.5,0.2,1.5,0.5,2.3c0.8,2,1.5,3.8,0.5,6.1c-0.7,1.5-0.3,3.4-0.5,5.1c-0.1,0.8-0.5,1.5-1.1,2c-1.3,0.7-1.7,2.4-1,3.6
	c0,0.1,0.1,0.2,0.2,0.2c0.8,1.5,1.5,2.8,0.1,4.8c-1.1,1.7-0.8,4.3-1.1,6.5c-0.1,0.7-0.3,1.4-0.7,2.1c-0.8,1.2-1.1,2.3,0,3.5
	c0.2,0.2,0,0.9-0.1,1.2c-1.2,2.3-2.4,4.5-3.6,6.8c-0.2,0.4-0.7,0.9-0.6,1c2.5,4.1-0.8,7.9-0.5,11.9c0.1,0.7,0.2,1.4,0.4,2.1
	c0.1,0.3,0.2,0.7,0.2,1c-0.3,2.3,0.4,4.3,0.9,6.5s-1,4.7-1.5,7.1c-0.3,1.5-0.5,3.1-0.5,4.7c0.2,3.8-2,6.8-3.6,9.9
	c-1.3,2.1-1.9,4.6-1.8,7.1c0,0.2,0.1,0.7,0,0.7c-2.2,0.8-2,2.9-2.4,4.6c-0.2,0.7-0.2,1.8-1.7,1.8c-0.6,0-1.4,1.1-1.9,1.8
	c-2.8,3.6-6,6.2-10.7,6.6c-1.4,0.2-2.7,0.9-3.9,1.8c-1.8,1.4-4.2,1.7-6.2,0.7c-2-0.6-4.1-0.9-6.2-1c-1.6-0.2-3.1-0.8-4.4-1.8
	C303.8,283.7,302.7,282.1,301.1,281.5z"/>
<g id="killer">
	<path class="st10" d="M647.9,289.1c0.4,1.6,0.8,3.2,1.2,4.8c0.1,0.3,0.1,0.6-0.1,0.9c-1.2,1.3-2,3-4.1,3.2
		c-1.8,0.3-3.4,1.4-4.4,2.9c-0.7,0.6-1.7,0.8-2.5,0.5c-0.9-0.3-1.9-0.3-2.8,0c-0.8,0.1-1.5,0.1-2.3,0.1c-1.3,0.6-2.7,1.1-4,1.9
		c-0.5,0.3-0.7,0.9-1.1,1.5c-2.4,0.1-5,0.1-7.7,0.4c-0.6,0-1.1,0.7-1.7,1c-2,1.2-4.1,2.2-6.2,3c-1.5,0.3-3,0.3-4.4,0
		c-0.8-0.3-1.5-0.7-2.2-1.2l-0.7,0.6l-4.9-3.5c-1.1-0.8-1.5-2.3-1-3.5c0.7-1.6,2-2.8,3.6-3.5c1.5-0.5,2.9-1.1,4.4-1.8
		c0.8-0.4,1.5-0.9,2.1-1.5c2,0.1,4,0.4,5.9,0.4c1.1,0,1.6-1.6,1-2.6s-1-1.8-1.5-2.7c2.3-1.2,2.8-2.3,2.2-4.7
		c-0.7-2.8-1.7-5.5-2.3-8.3c-0.3-2-0.4-4-0.4-6c0-1-0.1-2-0.1-3.2c0.1,0.2,0.1,0.1,0,0.1c-2-0.5-2.7-1.5-2.4-3.8
		c0.2-1.8,0-3.7-0.5-5.5c-0.2-0.8-1.2-1.4-1.9-2.2c0.2-1.6-1.4-2.8-3.3-2.4c-1,0.2-2.1,0.4-3.5,0.6l-6.7,3.4
		c-1.3-0.6-2.6-1.2-3.9-1.9c-2-1.1-1.9-3.1-2.1-5c0-0.1,0-0.2,0.1-0.3c0.7-3.7,0.7-3.7,4.4-3.8c4.3-0.3,8.6-1.1,12.8-2.4
		c1.3-0.4,2.7-0.3,3.8,0.4c1.2,0.6,2.4,1.3,3.5,2.1c2.1,1.7,3,4.5,2.2,7.1c-0.2,0.6,1.1,2.8,2,3.3c0.3,0.2,0.7,0.4,1.3,0.6
		c0.4-1.6,2-2.8,1.1-4.7c1-0.7,1.9-1.4,2.8-2.2c0.4-0.4,0.6-1,0.6-1.6c-0.6-2.2-0.3-3.9,2.1-5c1.7-0.7,3-2,3.8-3.7
		c0.4-0.5,0.9-0.9,1.5-1.1c0.8-0.3,1.6-0.5,2.4-0.6c1.2,0,2.3-0.8,2.8-1.9c0.2-0.4,0.8-0.7,1.3-0.9c1.4-0.6,2.9-1.2,4.4-1.7
		c0.6-0.2,1.2-0.2,1.8,0c1.2,0.6,2.6,0.8,3.1,2.4c0.2,0.7,3.1,1,3.9,0.6c2.6,1.9,2.3,4.9,3.2,7.5c0.1,0.2,0,0.4-0.1,0.5
		c-1.2,1.3-0.4,2.6-0.2,3.9c0,0.6-0.2,1.3-0.5,1.8c0,0.2-0.3,0.3-0.4,0.4c-1,1-1.8,2.5-3,2.8s-2.6-0.8-3.9-1.2s-3.2-3.4-3.3-4.8
		c-0.1-0.6-0.3-1.1-0.6-1.6c-1.5-2.2-3.4-2.8-5.9-1.7c-0.8,0.3-1.5,0.9-2,1.6c-1.2,1.5-2.7,2.7-3.8,4.3c-1.2,1.8-2.1,3.7-2.9,5.6
		c-0.5,1.1-1.7,2-1,3.5c0.1,0.1-0.4,0.6-0.7,0.8c-1.8,1.4-2.8,3.5-3,5.7c0,0.8,0.2,1.5,0.6,2.2c0.5,0.8,0.6,1.8,0.1,2.6
		c-0.8,1.5-0.3,3.1-0.4,4.7c0,0.7,0,1.4,0,2.2c2.8,0.2,2.8,2.8,3.4,4.8c0.1,0.3,0.2,0.5,0.2,0.8c0,3,2.4,4.1,4.2,5.7
		c0.3,0.2,0.6,0.2,0.9,0c1.2-1.3,2.8-1.5,4.4-1.4c2.5,0.1,5,0,7.5,0.1C645.5,288.7,646.7,289,647.9,289.1z"/>
	<path class="st10" d="M545.8,261.4l1.5,0.8c0.2-0.3,0.3-0.6,0.4-0.9c0.2-0.9,0.9-1.6,1.9-1.5c5.1-0.6,10.2-1.3,15.3-1.9
		c0.4,0,0.8,0,1.2,0.1c0.9,0.2,1.7,0.5,3,0.9c0.2,0.9,1.2,1.1,2.4,0.6c0.3,0,0.7,0.1,0.9,0.4c1,2.1,3.1,3,5,3.9
		c0.4,0.2,0.8,0.5,1,0.9c1,2.7,3,4.5,5.2,6.3c0.4,0.4,1.2,0.5,0.8,1.4c0,0.1,0.2,0.4,0.3,0.5c1.1,1.1,1.4,2.7,0.6,4.1
		c-0.4,0.9-0.3,1.9,0.2,2.8c0.8,1,0.5,2,0.6,3c0,0.2-0.2,0.7-0.4,0.7c-1.6,0.2-3,1.3-4.8,0.6c-1.2-0.4-2.5-0.1-3.3,0.9
		c-1,1.1-1.9,2.8-3.1,3.1s-2.7-0.9-4.1-1.2c-0.6-0.1-1.2-0.1-1.8,0.2c-1.4,0.7-2.7,1.5-3.9,2.3c-0.6,0.4-0.9,1.2-1.3,1.8
		s-0.9,1-1.5,1.6c-1.2-2.5-2.1-2.9-4.4-2.1c-3.1,0.9-6.1,2.1-8.9,3.8c-0.8,0.4-1.7,0.4-2.5,0.2c-1.2-0.3-1.4,0.6-1.7,1.2
		c-0.1,0.5,0,1,0.2,1.4c0.5,0.7,1.1,1.3,1.7,1.9c-1.3,1.3-0.5,2,0.6,2.9c0.4,0.4,0.4,1.2,0.8,1.7c1.6,1.8,2.9,3.8,5.8,4.1
		c2.7,0.4,5.3,1,7.9,1.7c0.1,0,0.3,0.1,0.4,0.1c1.5,1.2,3.5,1.4,5.2,0.6c0.2-0.1,0.5-0.1,0.5,0c1.1,1.4,1.9,0.4,2.5-0.4
		c1.2-1.4,2.9-1.7,4.5-2c1.9-0.2,3.4-1.7,3.4-3.6c0.2-1.9,1.1-3.6,2.6-4.8c1.1-1.2,2-2.4,2.8-3.8c0.2-0.2,0.2-0.6,0.5-0.7
		c0.9-0.5,2.1-1.6,2.6-1.4c1.2,0.7,3,1.2,3.1,3.2c0.1,1.2-0.1,2.5-0.6,3.6c-0.6,1.4-1.1,2.9-1.6,4.3c-0.2,0.4-0.4,0.8-0.7,1.2
		c-1.1,1.6-2.1,3.2-3.3,4.8c-0.3,0.5-0.8,0.9-1.3,1.1c-1.8,0.9-3.7,1.7-5.6,2.5c-0.3,0.1-0.5,0.3-0.6,0.5c-0.7,1.6-2,2.1-3.5,2.4
		c-0.4,0.1-0.8,0.3-1,0.7c-0.7,1.5-2,1.4-3,0.9c-1.5-0.5-3.1-0.6-4.6-0.2c-1.7,0.2-3.4,0.8-5.1,0.6c-2-0.2-3.9-0.9-5.6-1.8
		c-0.8-0.4-1.5-1-2.1-1.7c-0.6-0.4-1.2-0.8-1.8-1.1c-1.2-0.2-2.1-1.1-2.3-2.2c-0.2-1.1-1.1-2-2.2-2.2c-2.5-0.7-4.5-2.6-5.3-5.1
		c-1-2.7-1.8-5.5-3-8.1c-0.5-1.1-1.7-2-2.5-3c-0.5-0.7-1-1.4-1.4-2.2c-0.4-0.8,0.1-1.3,0.6-2c0.8-1,1.2-2.3,1-3.6
		c-0.6-2.2-0.6-4.5,0.2-6.7c0.3-1.3,0.4-2.7,0.5-4.1c0.1-0.4,0.3-0.8,0.5-1.1c1.5-2.2,3.4-4.1,5.6-5.7c0.8-0.4,1.2-1.4,0.8-2.2
		c-0.2-0.7,1.3-2.9,2.2-2.8c1.2,0.1,1.3-0.7,1.7-1.4C545.4,261.8,545.6,261.6,545.8,261.4z M555.2,268c-0.7-0.1-1.6-0.1-2-0.5
		c-1-1-1.9-0.5-2.8-0.2c-1.2,0.6-1.8,2-1.4,3.2c0.2,0.6,0.5,1.5,0.2,1.8c-0.6,0.8-0.7,1.8-0.4,2.8c0.4,2.5-0.3,5.1-2.1,7
		c-0.3,0.3-0.5,0.6-0.5,1c0,0.9,3,3.7,3.9,3.5c2.5-0.5,5.1-0.3,7-2.6c1.3-1.7,1.8-1.5,3.7-0.3c0.4,0.2,0.7,0.4,1.1,0.5
		c1-1.2,2-2.4,2.8-3.3l3.1-0.4c0.8-0.1,1-0.5,0.8-1.4c-0.5-2.4-0.9-4.8-1.5-7.2c-0.1-0.8-0.5-1.6-1.1-2.3c-1.4-1.5-3-2.8-4.5-4.3
		l-0.6,1.2l-1.8-1.2L555.2,268z"/>
	<path class="st10" d="M318.4,366.5c0.5-0.2,0.9-0.3,1.4-0.5c1.5,0,2.8-1,3.2-2.5c0-0.2,0.1-0.4,0.3-0.5c2-0.8,0.9-2.2,0.5-3.3
		c-0.5-1.2-1.1-2.3-1.8-3.3c-0.2-0.3-0.6-0.4-0.9-0.5c-1.2-0.6-2.5-1.1-2.6-2.8c0.1-1-0.7-1.8-1.6-1.9c-0.1,0-0.2,0-0.3,0
		c-1.2,0-1.5-0.6-1.5-1.8c0.1-1.4,0.2-2.8-1.5-3.6c-0.6-0.3-0.8-1.5-1.4-2.2s-1.6-1.5-1.8-1.3c-0.9,0.7-1.6,1.5-2.2,2.5
		c-0.3,0.9-0.6,1.7-0.7,2.6c-0.1,0.3-0.4,0.5-0.7,0.6c-2.1,0.6-2.8,2.1-3,4.1c-0.1,0.2-0.2,0.5-0.3,0.7l-0.8,1.7l0.2,0.4l-2.2-0.1
		c-0.2,0.8-0.2,1.6-0.1,2.4c0.3,1.6,0.4,3.4,2.1,4.5c0.3,0.4,0.3,0.9,0.2,1.3c-0.8,0.8-0.5,1.4,0,2.2c0.9,1.5,1.8,2.7,4,2.1
		c2.1-0.4,4.3-0.7,6.5-0.7c2.1-0.1,2.3,0.2,3,2.2c0.9,2.5,0.2,4.6-0.9,6.8c-1.7-0.3-3.4-0.7-5.1-0.9c-0.4-0.1-1.1-0.1-1.3,0.1
		c-0.8,0.9-1.9,1.6-3.2,1.8c-0.5,0.1-1,0.8-1.3,1.4c-0.4,0.8-1.1,1.3-2,1.3c-2.1,0.2-4.1,0.5-6.1,1c-2,0.6-3.9,1.4-5.8,2.3
		c-1.7,0.8-2.2,0.9-3.5-0.4c-0.9-0.9-1.8-1.7-2.7-2.6c-2.1-2-1.3-4,0.7-6s4.7-2.4,6.8-4c0.8-0.8,1.6-1.7,2.1-2.7
		c0.1-0.1-0.4-0.6-0.6-1s-0.8-1.2-0.7-1.4c1.1-1.5,0.9-3,0.5-4.6c-0.3-1.4-0.5-2.7-0.8-4c-0.5-1-0.9-1.9-1.4-2.8
		c-1-1.9-0.7-3.9-1.1-5.9c-0.5-2.8-1.5-5.4-2.3-8.1c-0.2-0.7-0.4-1.4-0.5-2.1c1.6-0.9,2.2-3,1.3-4.7c-0.5-1.2-1-2.4-1.5-3.6
		c-0.1-0.3-0.3-0.8-0.1-0.9c1-1.2,0-1.8-0.6-2.8c-0.6-1.3-0.8-2.7-0.7-4.2c0-1.2-0.3-1.9-1.5-2.3c-0.9-0.3-1.5-1.2-1.4-2.1
		c0.1-2-0.1-4.1-0.6-6.1c-0.5-1.6-1.7-2.9-2.6-4.3c-0.1-0.2-0.7-0.2-1-0.1c-1.6,0.3-3.2,0.4-4.8,0.5c-2.2-0.1-4.4-0.3-6.6-0.7
		c-0.8-0.1-1.2-2-0.7-2.9c1.4-2.4,3.5-3.1,6-2.8c0.3,0,0.7,0,0.8-0.2c0.6-1.1,1.7-1.1,2.8-1.3c0.6-0.1,1.2-0.2,1.8-0.3l6.4-0.9
		c1,2.7,1,2.7,2.2,3c0.1,1.2,0.1,2.4-0.1,3.5c-0.5,1.5-0.2,3.1,0.9,4.2c0.4,0.6,0.7,1.3,0.8,2c0.4,2.3,0.7,4.7,1.1,7
		c0.7,3.1,1.5,6.1,2.2,9.2c0.1,0.4,0.3,1,0.5,1c1.5,0.1,1.1,1.2,1,2c-0.2,1.3-0.4,2.5-0.6,3.8c-0.2,1.7,1,3.4,2.7,3.6
		c0.1,0,0.2,0,0.3,0c0.6,1.3,1.1,2.6,1.6,3.9c0.3,1.1,1.1,1.9,2.2,2c1.8,0.3,3.7,1.3,5.1-0.6c2.5-3.4,5.7-6.3,6.7-10.6
		c0.4-1.6,1.1-2.5,2.7-2.6c0.3-0.1,0.6-0.2,0.9-0.3c1.5,1.8,1.6,2.8,0.5,4.6c-0.4,0.8-0.9,1.6-1.4,2.4c-1.2,1.1-1.2,3-0.1,4.1
		c0,0,0,0,0.1,0.1c0.5,0.6,0.9,1.2,1.2,1.9c0.5,1.7,1.7,1.7,3.2,1.5c3.8-0.6,6,0.9,7,4.3c0.5,1.4,1,2.8,1.6,4.1
		c0.2,0.3,0.4,0.5,0.8,0.7c0.4,0.2,0.8,0.3,1.2,0.4c1.8,0.2,3.3,1.3,4,3c1,2.2,3.3,3.5,5.8,3.2c1,0,2.1,0.1,3.1,0.3
		c0.1,0,0.2,0,0.2-0.1c0.7-1.8,2-2.3,3.9-2c1.1,0.1,2.2,0,3.3-0.3c1.6-0.2,2.2,0.4,2.4,1.9c0.1,0.8,1,1.5,1.5,2.1l-0.5,2.2
		c-1.8,2.5-5.1,2-7.8,3.3c-1.4,0.7-3,1.5-4.5,1.4c-2.7-0.2-4.9,0.9-7.4,1.3c-0.9,0.1-1.8,0.5-2.6,0.9c-0.5,0.4-0.9,0.9-1.1,1.4
		c-0.3,0.9-1.2,1.5-2.1,1.4c-2.9,0.4-4.8-1.6-6.8-2.9C319.4,369.5,319.1,367.9,318.4,366.5z"/>
	<path class="st10" d="M394.6,358.2c-0.9-0.8-1.7-0.3-2.7,0.3c-1.4,0.8-2.9,1.4-4.4,1.8c-1.5,0.4-2.9,1-4.1,2
		c-1.6,1.3-2.2,1.3-4,0.3c-0.2-0.1-0.4-0.2-0.6-0.4c-2,0.5-3.7,1-5.5,1.3c-1.3,0.3-2.5,0.5-3.8,0.6c-0.8,0-1.6-0.1-2.5-0.2
		c-0.3,0-0.5,0-0.8,0.1c-1.1,0.2-2.2,0.4-3.3,0.5c-2,0-4.2-2.2-4.4-4.3l-0.1-1c-0.2-3.1,1.1-4.9,4.2-5.7c1.1-0.1,2-0.6,2.7-1.5
		c0.4-0.4,1-0.7,1.5-0.8c4.2-0.9,8.4-1.8,12.6-2.7c0.5-0.1,1-0.2,1.4-0.4c-0.3-3.2-1.1-6-3.3-5.9l-0.2-0.3l1.3-0.7l0.1,0.2
		c0.1-0.1,0.1-0.1,0.2-0.2c0.6-1.3,0.7-2.7,0.4-4.1c-0.7-2.5-0.6-5.2-0.9-7.8c0-0.5-0.1-0.9-0.3-1.3c-0.9-2.2-1.8-4.4-2.6-6.7
		c-0.6-1.5-1-3-1.3-4.5c-0.1-1.2-0.1-2.5,0.1-3.7c0-0.8,0-1.6,0-2.4c0-1.8-0.6-2.7-2.2-2.9c-1.2-0.2-1.9,0.6-2.5,1.6
		c-0.7,1.2-1.5,2.3-2.3,3.5c-1-0.7-1.9-1.4-2.8-2c-1.4-0.9-4.3-0.2-5.3,1.1c-1.2,1.2-3,1.5-4.5,0.6c-0.4-0.2-0.8-0.5-1.1-0.9
		c-0.4-0.4-0.7-1-0.8-1.6c-2.7-1.1-2.3-3.6-2.5-5.8c0-0.2,0.3-0.5,0.5-0.7c0.4-0.4,0.9-0.8,1.4-1.2c6-0.8,12.3-1.6,18.6-2.2
		c1-0.1,1.6-0.1,2-1.1c0.1-0.3,0.9-0.2,1.4-0.4c2.7-0.8,4.7,0.1,6.1,2.5c0.7,1,1.2,2,1.6,3.1c1.9,6.8,3.7,13.7,5.5,20.5
		c0.1,0.5,0.4,1.1,0.2,1.5c-1.2,2.7,0.5,5,1.1,7.4c1,3.7,2.6,7.3,4.7,10.5c0.8,1,1.7,1.5,2.8,0.9c5.2-2.9,11-4,16.9-4.8
		c1-0.1,3,2,3.1,3.2s0.1,2.2,1.4,2.7c0.1,0.1,0.2,0.2,0.3,0.3c0.5,1-0.8,5-1.6,5.8c-2,1.7-4.6,2.2-6.9,3.1c-0.3,0.1-0.7-0.1-1.1-0.2
		c-1-0.2-2-0.7-2.9-0.5c-3,0.7-6,1.6-8.9,2.5C396.1,357.5,395.3,357.8,394.6,358.2z"/>
	<path class="st10" d="M503.9,269c-1.2,2.4-0.5,4.4,0.6,6.3c0.2,0.3,0.3,0.6,0.3,0.9c0.5,2.7,1.6,5.3,3,7.6c0.1,0.4,0.2,0.9,0.1,1.4
		c-0.2,0.7-0.3,1.5-0.3,2.2c0.5,3,1.2,6,1.8,9c0.1,0.5-0.1,1.1,0.2,1.6l2.3,4.6c-1,2.2,0,4.3,0.9,6.3c0.6,1.5,1.9,2.8,2.3,4.4
		s1.7,2.8,2.4,4.4c0.9,2,4.2,2.2,5.1,0.2c0.4-0.6,0.8-1.2,1.3-1.6c0.9,0.6,1.8,1.1,2.8,1.5c1.2,0.3,2.4,0.6,3.6,0.7
		c0.2,0,0.5-0.1,0.6-0.2c1.3-1.8,3.4-2.2,5.3-2.8c3-1.1,6.2,2.2,5.4,5.2c-0.2,0.4-0.4,0.7-0.7,1c-1.8,2.3-4.2,4-7,4.9
		c-1.6,0.6-2.9,1.6-4.8,1c-0.6-0.2-1.6,0.5-2.2,1c-1,0.8-2.4,0.9-3.5,0.2c-1.1-0.7-2.6-0.5-3.5,0.6c-1,1-2.1,0.8-3.3,0.6
		c-1.1-0.1-2.3,0-3.4,0.2c-1,0.1-2,0.3-3,0.5c-0.7,0.2-1.3,0.5-1.9,0.9c-0.5,0.2-1,0.5-1.5,0.8c-1,0.3-2,0.7-2.9,1.3
		c-1.9,1.6-4,1.4-6.2,1.4c-1.9,0.1-3.8,0.4-5.6,0.9c-2.5,0.7-5.1,0.1-7-1.7c0.2-0.7,1-1.3,0.1-2.3c-0.3-0.4,0.3-1.5,0.6-2.3
		c0.3-0.6,0.6-1.2,0.8-1.9c0.1-0.9,0.4-1.3,1.4-1.4c1.2-0.1,2.4-0.2,3.6-0.4c0.6-0.1,1.2-0.3,1.7-0.7c1.1-0.8,2.2-1.7,3.3-2.5
		c0.7-0.4,1.4-0.6,2.1-0.7c1.4,0,2.7-0.8,3.4-2.1c1.4-2.3,1.6-4.2,0.1-6.7c-1.2-2-1-4.5,0.5-6.3c0.5-0.6,0.3-1.6,0.7-2.4
		c0.7-1.4-0.7-1.4-1.2-1.8c-1-0.6-1.9-1.2-2.9-1.9c-0.5-0.6-0.7-1.5-0.5-2.2c1.5-2.4,2.2-5.3,2-8.1c-0.1-1.2-0.2-2.4-0.6-3.5
		c-0.6-1.9-1.4-3.7-2-5.6c0.9-1.2,1.5-2.7,1.6-4.3c0-0.2-0.2-0.3-0.3-0.4c-1.8-0.6-2-2.4-3-3.6c-0.1-0.1-0.3-0.4-0.2-0.5
		c0.8-2.3-0.5-4.2-1.1-6.2c-0.9-3.2-1.9-6.3-2.9-9.4c-0.1-0.2-0.2-0.4-0.3-0.6c-0.5,0.2-0.9,0.5-1.3,0.8c-1,0.7-2,1.7-3.3,0.5
		c-0.1-0.1-0.5-0.1-0.8,0c-2.2,0.4-4.3,1-6.5,1.7c-1.2,0.6-2.3,1.5-3.3,2.4l-0.1-0.4c-0.6,0.1-1.2,0.1-1.8,0.2
		c-0.2,0-0.3,0.2-0.5,0.2c-1.8-0.3-3.6-0.7-5.3-1.3c-1.5-0.6-2-2.3-2.1-3.8c0-0.5,0.2-1.1,0.6-1.4c1.2-0.7,2.4-1.4,3.6-1.9
		c0.5-0.4,1.1-0.8,1.7-1c2.9-0.6,5.7-1.1,8.6-1.7c0.7-0.1,1.2-0.2,1.6,0.5c0.6,0.9,1.5,0.9,2.5,0.4c2.2-1,4.4-1.9,6.7-2.6
		c3.5-0.9,7.1,1.3,8,4.9c0,0,0,0.1,0,0.1c0.7,3.5,1.3,6.9,2,10.4c0.1,0.6,0.1,1.3,0,1.9C502.3,267.5,502.3,268.5,503.9,269z"/>
	<path class="st10" d="M462.1,330.5c1,0.6,2,1.2,3,1.6c1.1,0.3,2.3,0.5,3.5,0.6c0.2,0,0.4,0,0.5-0.2c1.2-1.9,3.3-2.3,5.1-2.7
		c1.3-0.4,3,0.4,4.4,1.1c1.6,0.9,1.5,2.6,1.1,4.2c-0.1,0.3-0.4,0.6-0.6,0.9c-1.7,2.3-4.1,3.9-6.9,4.8c-1.6,0.6-3,1.7-4.9,1
		c-0.6-0.2-1.5,0.5-2.2,1c-1,0.8-2.4,0.9-3.5,0.2c-1-0.7-2.3-0.5-3.1,0.4c-1,1-2.5,1.3-3.8,0.8c-1-0.3-2.3,0.2-3.4,0.3
		c-0.9,0.1-1.8,0.2-2.7,0.5c-0.7,0.3-1.4,0.6-2,1c-0.5,0.3-1.1,0.5-1.6,0.8c-1,0.3-2,0.7-2.9,1.3c-1.8,1.6-3.8,1.4-5.9,1.3
		c-0.3,0-0.7,0-1,0.1c-1.6,0.2-3.1,0.5-4.6,0.9c-2.3,0.8-4.8,0.3-6.6-1.3c-0.2-0.9-0.3-1.8-0.4-2.7c0.2-0.8,0.5-1.6,0.9-2.4
		c0.2-0.5,0.6-0.9,0.6-1.3c0-1.4,0.5-1.9,1.9-1.9c1.2,0,2.3-0.1,3.5-0.3c0.4-0.1,0.8-0.2,1.1-0.5c1.1-0.9,2.2-1.8,3.4-2.6
		c0.7-0.4,1.4-0.7,2.2-0.8c1.5-0.2,2.8-0.4,3.3-2.1c0,0,0-0.1,0.1-0.1c1.5-2.1,1.5-4,0.2-6.4c-1.3-2.1-1.1-4.8,0.6-6.5
		c0.2-0.3,0.4-0.6,0.4-1c0.1-0.6,0.1-1.3,0.2-2.3c-1.1-0.7-2.4-1.7-3.8-2.5c-1.2-0.7-1.6-1.6-0.9-2.7c1.5-2.4,2.2-5.2,2-8.1
		c-0.1-1.1-0.3-2.3-0.6-3.4c-0.6-1.9-1.3-3.7-1.9-5.6c1.7-1,0.9-3,1.8-4.4c-2.1-0.7-2.6-2.6-3.6-4.1c-0.2-0.4,0.2-1.1,0-1.6
		c-1.4-5-2.8-9.9-4.3-15.1c-1,0.6-1.7,1.1-2.5,1.5c-0.4,0.2-1.1,0.5-1.5,0.2c-0.8-0.5-1.7-0.5-2.5-0.2c-0.5,0.1-0.9,0.2-1.4,0.3
		c-2.8,0.6-5.6,1.1-7.4,3.7l-0.2-0.6l-1.9,0.3c-0.1,0-0.3,0.2-0.4,0.2c-1.9-0.3-3.7-0.7-5.5-1.4c-1.7-0.7-1.9-2.6-2.2-4.3
		c0-0.2,0-0.5,0.1-0.6c1.4-0.8,2.8-1.5,4.2-2.2c0.5-0.3,0.9-0.9,1.4-1c3-0.7,6-1.2,9-1.8c0.5,0,1,0.1,1.4,0.5c0.6,0.8,1.7,1,2.6,0.5
		c2.2-1,4.4-1.9,6.7-2.6c3.5-0.9,7.1,1.3,8,4.8c0,0,0,0.1,0,0.1c0.7,3.3,1.3,6.6,1.9,10c0.2,0.8,0.2,1.6,0,2.5
		c-0.2,1.3-0.3,2.3,1.3,2.8c-1.1,2.3-0.3,4.4,0.7,6.4c0.1,0.2,0.1,0.3,0.2,0.5c0.5,2.9,1.6,5.6,3.2,8.1c0.2,0.3,0,0.8,0,1.2
		c-0.2,0.7-0.3,1.4-0.3,2.2c0.5,3,1.2,6,1.8,9c0.1,0.5-0.1,1.1,0.1,1.5c0.8,1.5,1.5,3,2.3,4.7c-1,2.1,0.1,4.2,1,6.3
		c0.6,1.5,1.9,2.8,2.3,4.4c0.5,1.7,1.8,2.8,2.4,4.3c0.8,1.9,4,2.3,5.1,0.2C461.2,331.5,461.6,331,462.1,330.5z"/>
	<path class="st10" d="M364.1,283.2c0.2-0.4,0.6-0.9,0.8-1.4l2.2-4c0.1-0.1,0.2-0.3,0.3-0.3c2,0.3,2.7-1.7,4.2-2.3
		c0.4-0.1,0.9-0.2,1.3-0.2c0.3,0,0.5,0.2,0.8,0.2c4.1,0.2,5.7,3.1,7.3,6.3c1.4,2.8,0.7,4.6-1.2,6.7c-1.1,1.2-2.5,1.1-3.7,1.5
		c-2.6,0.7-5.3,1.3-8,1.7c-0.5,0-0.9-0.3-1.2-0.7c-0.7-2-1.3-4-2-6C364.8,284.1,364.5,283.6,364.1,283.2z"/>
	<path class="st10" d="M308.3,322.8c-0.2-0.6-0.5-1.1-0.7-1.6c-1-3-1-3,1.8-4.5c0.6-0.3,1.2-0.6,1.8-1c0.5-0.6,1.4-0.6,2-0.1
		c0.2,0.2,0.4,0.3,0.6,0.3c0.5,0,1.1-0.3,1.5-0.1c0.5,0.3,0.8,0.6,1.1,1.1c0.2,0.4,0.4,0.9,0.6,1.4c1,0.1,2.1-0.4,2.5-1.4
		c0.5-1,1.1-1.9,1.8-2.8c1.9-2.4,4.6-1.8,7.1-2.1c0.2,0,0.4,0.1,0.5,0.2c0.9,0.8,0.7,3.1-0.2,3.9c-1.2,1.1-2.4,2.3-3.6,3.4
		c-0.3,0.2-0.6,0.4-1,0.5c-1.9,0.6-3.8,1.2-5.7,1.8c-0.9,0.1-1.5,0.9-1.4,1.7c-0.1,0.3-0.2,0.6-0.4,0.9l-0.5-0.1
		c0.2-0.8,0.4-1.6,0.6-2.4c0.3-1,0-1.4-1-1.6C313.3,319.3,311.6,320.6,308.3,322.8z"/>
	<path class="st10" d="M336.5,313.6c-2.9,0.1-2.9,0.1-3.9-2c1-1.6,2.6-1.3,4.2-1.6L336.5,313.6z"/>
</g>
<g id="brew">
	<path class="st10" d="M486,377c1.4,1.6,1.4,1.6,1.3,2.5c0.6,0.3,1.2,0.5,1.8,0.7c0.7,0.3,1.5-0.1,1.7-0.8c0,0,0,0,0,0
		c0.2-0.7,0.5-1.3,0.8-1.9c0.3-0.4,0.6-0.7,1-1l0.2,0.2c0-0.1,0.1-0.1,0.1-0.2c-0.3-2.7,1.5-3.8,3.5-5c1-0.6,1.8-1.5,2.8-2.1
		c0.5-0.3,1.1-0.5,1.6-0.6c1.6,0,3.2-0.2,4.8-0.4c1.9-0.5,3.8-1.2,5.6-2c0.3-0.1,0.5-0.5,0.9-1c2.5,0,4.6,1.8,5,4.3
		c0.3,1.4,1.8,1.7,2.4,2.8c0,0,0.7-0.3,1.2-0.6l1.1,1.4l-0.3,0.3c0.3,0.1,0.6,0.2,1,0.3c1.2,0.1,1.7,0.7,2.1,1.8
		c0.5,0.9,1.2,1.7,2,2.3c0.8,0.7,1.4,1.7,1.6,2.8c0.2,1.2,0.5,2.3,0.9,3.5c0.1,0.5,0.4,1,0.8,1.4c2,1.4,3,3.9,2.7,6.3
		c-0.1,2.6,0.2,5.3,1,7.8c0.3,0.7,0.2,1.6-0.3,2.2c-0.2,0.2,0,0.9,0.1,1.3c0.2,0.7,0.3,1.3,0.3,2c-0.4,1.3-0.7,2.7-1,4.1
		c-0.3,4.4-3.3,7.6-5.2,11.3c-1.1,1.8-2.3,3.4-3.7,4.9c-0.2,0.3-0.5,0.4-0.8,0.5c-0.8,0.2-1.6,0.6-2.1,1.3c-0.6,0.6-1.4,0.9-2.2,1
		c-1.7,0.3-3.6,0.4-4.8,1.4c-1.1,0.1-2.1,0-3.2-0.1c-1.3-0.3-2.5-0.7-3.7-1.1c-1.6-0.6-3.2-1.4-4.7-2.1c-0.6-0.3-0.9,0-1.3,0.3
		c-1.6,1.6-3.1,3.3-4.9,4.8c-0.9,0.6-1.8,1-2.9,1.2c-0.2,0-0.5-0.3-0.7-0.5c-0.3-0.4-0.5-0.9-0.9-1.2c-1.2-1.2-1.6-2.9-1.1-4.5
		c0.1-0.9-0.1-1.8-0.6-2.6c-0.6-1.4-1.3-2.6-0.4-4.1c0.1-0.4,0.1-0.8-0.1-1.2c-0.6-1.6-1.4-3.2-2-4.8c-0.1-0.2-0.1-0.4,0-0.6
		c0.9-2-0.7-3-1.6-4.2c-0.3-0.3-0.5-0.7-0.7-1.1c-0.8-2.9-1.5-5.8-2.2-8.7c-0.1-0.4-0.1-0.7,0.1-1.1c0.8-0.9,0.5-1.8,0-2.6
		c-0.2-0.7-0.3-1.3-0.4-2c-0.6-1.8,0.2-4.1-1.5-5.6c-0.3-0.4-0.5-0.8-0.6-1.2c-0.2-0.8-0.4-1.6-0.6-2.4c-0.8-3.1-1.4-6.3-2.9-9.2
		c-1-2.2-1.7-4.4-2.3-6.7c-0.2-0.6-0.6-1.1-1.2-1.4c-1.6-1.4-3.4-1.2-5.3-0.9c-2,0.5-4.1,0.4-6.1-0.1c-1.2-0.5-2.3-1.4-2.9-2.5
		c-0.9-1.3-0.9-3,0.1-4.3c0.8-1.2,1.3-2.5,2-3.7c0.3-0.4,0.8-0.7,1.3-0.8c1.7-0.3,3.5-0.4,5.2-0.7c3-0.6,6.1-1.2,9.1-1.9
		c0.9-0.2,1.8,0,2.4,0.5c1.1,0.9,2.3,1.7,3.4,2.6c0.4,0.3,0.6,0.8,0.7,1.3c0.1,1.2,0,2.4,0.1,3.5c0,0.5,0.2,0.9,0.3,1.3
		c0.8,2.1,1.6,4.2,2.4,6.3c0.1,0.3,0.2,0.7,0.1,0.9c-1,1.5-0.1,3.1-0.1,4.7c0,0.4,0.1,0.8,0.2,1.2C487,375.7,486.9,376,486,377z
		 M494.3,401.2c-0.1,0.3-0.2,0.7-0.3,1c-0.3,0.9-0.4,1.9-0.3,2.9c0.5,1.8,1,3.6,1.7,5.3c0.1,0.5,0.4,0.9,0.8,1.2
		c1.5,1.3,3,2.6,4.5,3.9c0.2,0.2,0.6,0.5,0.9,0.5c1.9-0.1,3.1,1.1,4.5,2s2.8,1.6,4.6,1.4c0.8,0,1.5,0.1,2.2,0.3c0.5,0.1,1,0,1.5-0.3
		c1.7-1.1,3.3-2.3,4.9-3.5c0.6-0.3,1-1,0.8-1.7c-0.1-0.3,0.4-0.7,0.6-1s0.4-0.5,0.4-0.7c0-1.5,0.4-3,1.3-4.3
		c0.9-1.3,1.4-2.8,1.5-4.4c-0.1-1.7,0-3.5-0.1-5.2c0-0.2-0.1-0.5-0.2-0.6c-0.8-1.1-1.6-2.2-2.4-3.3c-1.2-1.4-2.6-2.6-1.7-4.8
		c0.1-0.3-0.2-1.1-0.6-1.4c-1.5-1.1-2.5-2.8-2.7-4.6c0-0.3-0.2-0.6-0.2-0.9c0-0.7-0.6-1.3-1.3-1.3c-0.1,0-0.1,0-0.2,0
		c-1.4-0.1-2.7-0.7-3.6-1.8c-0.9-0.7-1.8-1.4-2.8-1.9c-0.7-0.5-1.1-0.3-1.4,0.6c-0.1,0.4-0.4,1.1-0.7,1.2c-1.6,0.5-3.3,0.9-5,1.3
		l-0.5-1.1c-1.2-0.2-2.4,0.6-2.7,1.8c-0.3,0.8-0.6,1.5-0.9,2.3c-0.4,1-0.7,2-1,3c-0.1,1.1-0.4,2.2-0.7,3.2c-1.1,2.4-2.3,4.7-2.2,7.4
		c0,0.3-0.1,0.6-0.2,0.9l1,0.7l-0.5,1.2L494.3,401.2z"/>
	<path class="st10" d="M577.1,401.9c1.3-0.8,2.6-1.4,4-1.9c1-0.2,2.2,0.3,3.2,0.4c0.8,0.1,1.6-0.1,2.4,0c1.8,0.1,3.7-0.5,5.5,0.4
		c0.2,0.1,0.5,0,0.8-0.1l1.3,5.1c0,0.1,0.1,0.4,0,0.4c-1.1,1.2-1.7,2.9-3.5,3.3c-1.6,0.2-3.1,0.9-4.3,2c-0.1,0.1-0.3,0.2-0.5,0.3
		c-1,1.4-1.9,1.5-3.5,1c-0.7-0.1-1.4,0-2,0.1c-0.7,0.1-1.4,0.6-2.2-0.1c-0.1-0.1-0.7,0.1-0.9,0.3c-0.8,0.9-1.9,1.5-3.1,1.8
		c-0.5,0.1-0.8,0.8-1.2,1.3l0.2,0.3c-1.9,0-3.9-0.1-5.8-0.1c-1.4,0-2.9,0-3.8,1.4c-0.1,0.1-0.1,0.2-0.2,0.2
		c-1.8,0.9-3.7,1.8-5.5,2.6c-0.2,0.1-0.6,0-0.8-0.1c-0.6-0.2-1.3-0.3-2-0.3c-1.2,0.5-2.6,0.3-3.6-0.6c-0.2-0.1-0.7,0.2-1.2,0.3
		l-5.1-3.6c-0.8-0.6-1-2.6-0.4-3.7c1-2.1,2.9-2.9,4.9-3.6c1-0.4,2.1-0.8,3.1-1.3c0.7-0.5,1.4-1,2-1.5c1.7,0.7,3.7,0.5,5.7,0.6
		c1,0,1.6-1.6,1-2.5s-1.1-1.9-1.6-2.7c0.8-0.5,1.7-0.8,1.9-1.3c0.6-1.1,0.7-2.4,0.3-3.5c-0.6-2.1-1-4.3-1.7-6.4
		c-0.6-2.6-1-5.3-1-7.9c-0.1-0.8-0.1-1.7-0.2-2.5l0.3-0.1c-0.7-0.3-1.3-0.7-2-0.9s-0.7-0.6-0.7-1.2c-0.1-2.4-0.2-4.8-0.4-7.2
		c-0.1-0.4-0.4-0.8-0.7-1c-0.4-0.2-0.9-0.4-1.4-0.6c0.3-1.3-0.5-2.7-1.9-3c-0.3-0.1-0.6-0.1-0.9,0c-0.6,0.1-1.2,0.3-1.8,0.4
		c-0.6,0-1.1,0.1-1.7,0.2l-7,3.5c-0.2-0.1-0.4-0.4-0.7-0.6s-0.4-0.4-0.5-0.4c-1.8,0.6-2.8-0.9-3.5-1.8s-0.8-2.8-1.1-4.2
		c0-0.2,0.1-0.5,0.1-0.7c0.2-1,0.2-2.2,0.8-2.8s1.8-0.5,2.7-0.5c4.9-0.1,9.6-1.5,14.3-2.6c0.7-0.1,1.5-0.1,2.2,0.2
		c1.7,0.8,3.4,1.4,4.8,2.8c1.7,1.7,2.3,4.1,1.7,6.4c-0.2,0.7-0.3,1.2,0.5,1.7c0.7,0.6,1.3,1.3,1.9,2c0.5,0.4,0.9,0.2,1.1-0.4
		c0.3-0.8,0.7-1.5,1-2.3c0.1-0.6,0-1.1-0.1-1.7c0.8-0.6,1.7-1.4,2.7-2.1c0.5-0.3,0.7-0.9,0.6-1.4c-0.7-3.4-0.7-3.4,2.3-5.2
		c1.4-0.8,2.6-2,3.4-3.4c0.4-0.5,0.9-0.9,1.5-1.1c0.8-0.3,1.6-0.5,2.4-0.6c1.2-0.1,2.3-0.7,2.8-1.8c0.3-0.5,1.1-0.9,1.7-1.2
		c1.3-0.6,2.7-1.1,4-1.6c0.2-0.1,0.4-0.2,0.6-0.3c0.7-0.1,3.5,1.6,3.9,2.3c0.2,0.4,0.5,0.7,0.9,0.8c1,0.2,2.1,1.1,3.2,0.2
		c1.1,0.9,1.9,2.1,2.2,3.5c0.2,0.9,0.4,1.8,0.7,2.7c0.4,0.9,0.3,2-0.2,2.8c-0.2,0.7-0.2,1.4,0.2,2.1c0.6,1.1,0.2,2.5-0.9,3.2
		c-0.2,0.1-0.3,0.3-0.5,0.5c-0.8,0.8-1.7,2.2-2.4,2.1c-1.7-0.1-3.3-0.7-4.6-1.7c-1.4-1.1-2.3-2.7-2.3-4.5c0-0.4-0.1-0.8-0.4-1.1
		c-0.7-0.8-1.5-1.5-2.3-2.2c-0.3-0.2-0.7-0.3-1.1-0.3c-1.2,0.2-2.4,0.6-3.6,0.9c-0.2,0-0.4,0.1-0.6,0.3c-1.4,1.7-2.7,3.5-4.3,5
		s-1.9,3.5-2.8,5.2c-0.4,0.9-0.8,1.7-1.2,2.6c-0.1,0.2-0.3,0.4-0.2,0.5c0.7,1.1-0.2,1.6-0.8,2.1c-1.8,1.4-2.2,3.5-2.6,5.5
		c0,0.6,0.2,1.2,0.5,1.7c0.7,0.9,0.7,2,0.2,3c-0.7,1.4-0.2,2.9-0.3,4.4c0,0.7,0,1.4-0.1,2.3c0.1,0.1,0.1,0.1,0.2,0.1
		c1.9,0.1,2.3,1.6,2.8,3c0.3,0.8,0.5,1.5,0.6,2.3C572.9,399.1,575.2,400.5,577.1,401.9z"/>
	<path class="st10" d="M662,350.3c0.2,0.4,0.4,0.8,0.6,1.1c0.9,1,1.1,2.5,0.4,3.7c-0.3,0.5,0.2,2.7,0.4,3.2c0.3,0.9,0.4,1.9,0.4,2.9
		c0,0.3-0.8,0.6-1.3,0.7c-0.6,0.2-1.2,0.4-1.9,0.5c-0.5,0.1-1.1,0-1.6-0.1c-1.2-0.3-2.5,0-3.5,0.8c-0.8,0.9-1.7,1.8-2.4,2.7
		c-0.3,0.5-1,0.7-1.5,0.4c-1.1-0.5-2.2-0.9-3.3-1.2c-0.6-0.1-1.2-0.1-1.7,0.2c-1,0.5-2,1.2-3,1.7c-1.1,0.5-2,1.4-2.4,2.6
		c-0.1,0.4-0.4,0.8-0.8,1c-0.5,0.3-0.9,0.2-1.1-0.5c-0.4-1.2-1.8-1.9-3-1.5c-3.3,1.2-6.7,2.2-9.8,4.2c-0.8,0.3-1.7,0.3-2.5,0.1
		c-0.6-0.1-0.9,0.1-1.2,0.6s-1,1.1-0.3,1.8c0.3,0.4,0.7,0.7,1,1.1c0.7,0.6,1,1.2,0.4,2c-0.2,0.2,0.1,0.8,0.3,1.1
		c0.6,0.7,1.7,1,1.4,2.2c1.5,1.3,2.2,3.4,4.5,3.9c3,0.7,6,1.7,9.2,2c0.4,0,0.7,0.1,1,0.3c1.3,1.1,2.6,1,4,0.5
		c0.5-0.3,1.2-0.2,1.6,0.3c0.4,0.2,0.9,0.1,1.2-0.1c1.5-1.6,3.5-2.6,5.6-2.8c1.6-0.2,2.9-1.6,2.9-3.2c0.2-2,1.1-3.8,2.6-5.1
		c1.2-1.1,1.8-2.7,2.9-4c0.7-0.7,1.4-1.3,2.2-1.9c0.1-0.1,0.3-0.1,0.4-0.1c1,0.1,3.1,2.4,3.3,3.5c0.2,1.2,0,2.4-0.6,3.5
		c-0.6,1.3-1,2.8-1.6,4.1c-0.4,0.8-0.9,1.5-1.4,2.2c-0.5,0.8-1.4,1.4-1.6,2.2c-0.6,2-2.1,2.9-3.9,3.6c-1.3,0.5-2.5,1-3.8,1.7
		c-0.4,0.3-0.8,0.6-1,1.1c-0.4,0.9-1.3,1.5-2.2,1.6c-1,0-1.8,0.6-2.3,1.5c-0.5,0.9-1.6,0.6-2.3,0.3c-1.5-0.5-3.1-0.6-4.7-0.3
		c-1.5,0.2-3.1,0.5-4.6,0.7c-0.8,0.1-1.6,0-2.3-0.2c-1.1-0.3-2.2-0.7-3.2-1.2c-0.3-0.1-0.6-0.3-0.7-0.5c-0.3-1.1-0.9-1.5-2.1-1.1
		c0-0.9-0.8-1.6-1.7-1.6c-1.6-0.2-2-1.4-2.4-2.7c-0.2-0.8-0.9-1.4-1.7-1.5c-1.7-0.4-3.3-1.4-4.2-2.9c-1.1-2-2.1-4.1-3-6.3
		c-0.6-1.4-0.8-3-1.5-4.4c-0.6-0.9-1.3-1.7-2.2-2.4c-0.8-0.7-1.7-1.4-1.7-2.6c0-0.5,0.1-0.9,0.5-1.2c1.5-0.9,1.5-2.4,1.5-3.7
		s-0.9-2.7-0.8-4s0.8-2.5,1.1-3.8c0.1-1,0.2-2,0.2-3c0.1-0.4,0.3-0.9,0.5-1.2c1.6-2.3,3.6-4.3,5.8-5.9c0.5-0.4,0.9-0.8,0.6-1.4
		c-0.5-1.1,0.1-1.8,0.8-2.3s1-1.6,2.2-0.9l1.2-2.2l1.4,0.8c0.1-0.1,0.2-0.1,0.2-0.1c0.5-2.8,3-2.3,4.8-2.6c3.3-0.6,6.7-0.9,10.1-1.4
		c0.9-0.1,1.9-0.2,2.8-0.3c0.2,0,0.4,0,0.5,0.1c0.8,0.8,2,0.9,3,0.4c0.3,1.5,1.1,1.6,2.3,1.2c0.4-0.1,0.8,0,1.1,0.3
		c1,2.1,2.9,2.9,4.8,3.8c0.7,0.2,1.1,0.8,1.2,1.5c0.1,0.4,0.2,0.7,0.5,1c1.7,1.9,3,4.1,5.4,5.3L662,350.3z M646.9,358.7
		c-0.7-3.3-1.3-6.5-2-9.6c-0.1-0.3-0.2-0.5-0.4-0.6c-1.6-1.5-3.2-3-4.8-4.4c-0.6,1.3-0.9,1.3-2.1,0.1c-1.3,0.7-2.9,0.9-3.7,2.4
		c-0.1,0.1-0.3,0.2-0.5,0.3c-0.5-0.8-1.6-0.3-2-0.7c-0.8-0.9-1.6-0.5-2.5-0.3c-1.3,0.4-2.1,1.9-1.6,3.2c0,0,0,0.1,0,0.1
		c0.2,0.5,0.5,1.4,0.3,1.7c-0.8,1-0.5,2.1-0.4,3.1c0.3,2.2-0.3,4.5-1.8,6.2c-1.2,1.4-1.2,1.4-0.1,2.7s2.5,2.6,4.6,1.9
		c0.1-0.1,0.3-0.1,0.5-0.1c1.8,0.3,3.2-0.7,4.4-1.9c1.8-1.7,1.7-2.4,4.5-0.5c0.3,0.2,0.6,0.2,0.9,0c1-1,1.8-2.1,2.8-3.2
		C644.2,359.8,645.4,358.7,646.9,358.7L646.9,358.7z"/>
	<path class="st10" d="M673.8,343.5c-0.1-0.5-0.2-0.9-0.3-1.4c-0.2-0.9-0.7-1.7-1.5-2.2c-1.1-1-1.9-2.2-2.5-3.5
		c-0.8-1.4-2-2.6-3.5-3.3c-0.1-0.1-0.3-0.2-0.4-0.2c-2.2,0.6-3-1.5-4.7-2.1c1-1.4,0.6-3.4,2.3-4.2c0.4-0.3,0.9-0.4,1.4-0.4
		c3.2,0.4,6.2-0.4,9.2-1.2c0.6-0.1,1.2-0.3,1.8-0.4c0.3,0,0.5,0,0.7,0.1c0.7,0.5,1.2,3.2,0.8,3.9c-0.6,1-1.3,2-1.9,3.1
		c1,1,2,1.9,2.9,2.9c0.4,0.4,0.7,1,0.7,1.6c0.1,1.6,0.5,3.2-0.3,4.7c-0.1,0.2,0.2,0.6,0.4,0.8c1,1,2.1,1.8,3,2.8
		c0.4,0.4,0.6,1,0.6,1.6c0,1.6-0.2,3.3-0.3,4.9c0,0.5,0.1,0.9,0.4,1.3c0.6,0.8,1.3,1.5,2,2.2c0.2,0.2,0.5,0.5,0.8,0.5
		c2-0.1,3.3,1.3,4.8,2.1c1.2,0.6,2.6,0.1,3.2-1c0.1-0.1,0.1-0.2,0.2-0.4c0.5-2.4,0.8-4.7,1.1-7.1c0-0.3-0.2-0.6-0.4-0.8
		c-1.7-1-2.3-2.6-2.6-4.4c0.1-1.3,1-2.4,2.3-2.7c0.4,0,0.8,0,1.1-0.1c1.5-0.2,2.9,0.7,3.3,2.1c0.7,1.4,0.4,3.1-0.6,4.2
		c-1,1-1.1,2.5-0.2,3.6c0.3,0.5,0.5,1.1,0.5,1.7c0.4,1.6,0.7,3.1,1.2,4.7c0.8,1.9,0.7,4-0.4,5.8c-0.4,0.6-0.2,1,0.3,1.4
		c0.3,0.2,0.6,0.5,1,0.8c-0.8,1-0.1,1.5,0.4,2.2c0.4,0.5,0.7,1.2,0.7,1.9c-0.2,2.1-0.2,4.2,0,6.2c0.3,1.7-0.4,3.3-1.8,4.3
		c-0.6,0.5-1.6,0.8-1,2c-0.9,0.4-1.7,0.8-2.7,1.1c-0.5,0.1-0.9,0-1.3-0.3c-1.6-1.4-3.1-2.9-4.6-4.4c-0.2-0.2-0.5-0.6-0.8-0.7
		c-1.5-0.3-1.7-1.5-1.9-2.8c-0.4-2-0.8-4-1.2-6.1c-0.1-0.5-0.3-1-0.7-1.4c-1.5-1-2.4-2.7-2.5-4.5c-0.1-0.9-0.6-1.7-1.4-2.1
		c-0.4-0.2-0.6-0.6-0.7-1c-0.3-1.7-0.5-3.5-0.7-5.2c-0.1-0.8,0.1-1.6,0.1-2.4c0-0.7-0.5-1.2-1.1-1.3c0,0,0,0-0.1,0
		c-0.8-0.1-1.2-0.6-1.4-1.3c-0.4-1.4-1-2.8-1.5-4.2C675.7,343.1,675.7,343.1,673.8,343.5z"/>
	<path class="st10" d="M730.7,311.7l-0.7,2.2c-2.2,1.3-2.8,4.1-1.6,7c0.1,0.4,0.1,0.7,0,1.1c-0.5,1.9-1,3.8-0.2,5.7
		c0.4,0.7,0.3,1.6-0.2,2.3c-0.2,0.3-0.3,0.8-0.2,1.1c1,2.7,0,5-1.3,7.3c-0.6,1.1-1,2.1-0.1,3.2c0.3,0.7,0.6,1.4,0.8,2.1
		c-1.5,0.2-1.1,1.4-1.3,2.2c-0.1,0.3,0.5,0.8,0.8,1.2c0.4,0.5,0.6,1.1,0.8,1.8c0,1.7-0.1,3.3-0.3,5c-0.1,1.2,0.1,2.4,0.7,3.5
		c0.6,1.5,1.1,3,1.5,4.6c0.2,0.7,0.1,1.5,0.3,2.1c0.8,2.5-0.2,4.8-0.8,7.2c-0.1,0.3-0.4,0.5-0.7,0.5c-1.9,0.4-3.7,0.7-5.6,1
		c-0.3,0-0.5,0-0.7-0.2c-1.6-1.2-3.2-2.4-3.9-4.5c-0.8-2.7-1.8-5.4-2.7-8c-0.1-0.3-0.1-0.8-0.3-0.9c-2-1-2.2-3.1-3.1-4.7
		c-0.6-1.1-1.2-2.2-1.8-3.3c-0.1-0.4-0.1-0.8-0.1-1.3c0-0.7,0.2-1.5,0.2-2.2s-0.3-1.2-0.2-1.8c0.2-1.7,0.1-1.8-1.2-1.7
		c-0.8-0.5-1.4-0.9-1.9-1.3c-0.2-0.2-0.3-0.5-0.3-0.7c-0.2-1-0.3-2-0.5-2.9c-0.1-0.6-0.2-1.2-1.1-1.2c-0.6,0-1-1.4-0.5-1.9
		s1.1-1,1.8-1.5c0.3,0.6,0.6,1.3,0.9,2c0.5,1.9,1.8,3.5,3.4,4.4c2.5,1.5,3.4,4.1,4.7,6.5c1.1,1.7,2.3,3.3,3.6,4.8
		c0.8,0.9,3.1,0.3,3.6-0.8c0.1-0.3,0.2-0.7,0.4-1c1.2-2,1.4-4.4,0.4-6.6c-0.3-0.6-0.1-1.2,0.4-1.6c0.6-0.6,1.2-1.3,1.7-1.9
		c-0.9-1.9-1.6-3.5-2.4-5.2c-0.6-1.2-1.1-2.4-1.5-3.6c-0.3-1-0.4-2.1-0.4-3.1c0.2-2.6-0.2-5.1-1-7.5c-0.3-0.8-1.3-1.3-2-1.8
		c-0.1-0.1-0.8,0.6-1.3,1c-0.9-0.9-1.5-2.2-1.5-3.5c0-0.3,0.4-0.7,0.7-0.9c1.9-1.2,3.9-2.4,5.8-3.6c0.5-0.4,1-0.8,1.5-1.3
		c0.2-0.2,0.3-0.3,0.6-0.3c1.4-0.2,2.9-0.5,4.3-0.6c0.2,0,0.6,0.1,0.6,0.2C728.9,311.3,730,311.5,730.7,311.7z"/>
	<path class="st10" d="M703.5,329.6l-1.5,0.9c-0.7-1.7-1.3-3.3-1.9-5c-1.7,0.8-2.3,3-4.4,3.2c-0.1-1.9-1.7-2.4-2.9-3.2
		c-0.6-0.2-1.3-0.3-1.9-0.2c-1.5,0.1-2.9-1.1-3-2.6c1.9-0.5,3.8-1,5.7-1.4c2.4-0.4,4.7-1.3,6.7-2.8c0.3-0.2,0.7-0.3,1-0.4
		c0.9-0.1,1.8-0.2,2.7-0.2c0.6,0,1.5-0.1,1.6,0.1c0.4,1.1,0.6,2.2,0.8,3.3c0,0.1-0.7,0.5-1,0.5c-1.7,0-2.2,1.7-3.5,2.3
		c-0.1,0-0.1,0.6,0,0.8C702.5,326.6,703,328.1,703.5,329.6z"/>
</g>
<g id="cold">
	<path class="st10" d="M412.4,396c1.1-0.8,1.1-1.1-0.1-1.9c-0.3-0.2-0.5-0.5-0.7-0.8c-0.2-1.1-0.9-2.1-2-2.6
		c-0.5-0.2-0.7-0.7-0.5-1.2c0-0.1,0.1-0.1,0.1-0.2c1-1.8,0.5-3.1-1.1-4.3s-3.2-1.8-4.8-0.5c-0.2,0.2-0.5,0.3-0.8,0.3
		c-2,0.4-4,0.8-6,1.1c-0.5,0.1-0.9,0-1.3-0.3c-1.2-0.7-2.3-1.5-3.4-2.4c-0.2-0.2-0.5-0.5-0.5-0.7c0.2-1.9,0.5-3.8,0.7-5.7l0.4,0.2
		c0.3-0.3,0.7-0.6,0.8-0.9c0.2-0.9,0.6-1.3,1.6-1.2c2.1,0.3,4.3,0,6.3-0.6c0.4-0.1,0.8,0,1.2,0.2c0.7,0.3,1.3,0.3,1.7-0.4
		c0.5-1,1.3-1.2,2.4-1.4c1.8-0.4,3.7-0.4,5.5,0c0.4,0.1,0.7,0.3,1,0.6c1.2,1.4,2.1,3,2.4,4.8c1,3.7,2,7.4,3,11.1
		c0.2,0.4,0.2,0.9,0.1,1.4c-0.7,1.5-0.1,2.8,0.5,4c1.5,3,2.4,6.2,2.8,9.6c0.1,0.9,0.8,1.7,1,2.6c0.6,2,1,4,1.5,6
		c0.1,0.2,0.1,0.5,0.1,0.8c-0.4,0.8,0,1.8,0.8,2.1c0.1,0.1,0.3,0.1,0.4,0.1c0.2,0.1,0.3,0.7,0.4,1c0.2,1.4,0.3,2.9,0.5,4.3
		c0,0.4,0.2,0.8,0.5,1c0.9,0.4,1.1,1.2,1.4,2.1c1,3.5,2.1,7,3.1,10.6c0.2,0.7,2.3,1.8,3.1,1.6c0.5-0.1,0.9-0.2,1.4-0.4
		c0.9-0.4,1.9-0.2,2.5,0.5c0.2,0.3,0.9,0.2,1.4,0.2c1.1-0.3,2.3-0.4,3.5-0.2c2.5,0.7,3.1,2.9,3.9,4.9c0.1,0.2-0.1,0.6-0.3,0.8
		c-1,1.3-2,2.5-3.1,3.6c-0.6,0.4-1.4,0.7-2.1,0.9c-0.9,0.1-1.7,0.6-2.2,1.4c-0.6,1-1.9,0.5-2.8,0.3c-0.9-0.4-2-0.1-2.6,0.7
		c-0.2,0.2-0.5,0.3-0.7,0.4c-0.7,0.2-1.4,0.3-2,0.5c-0.8,0.3-1.7,0.2-2.4-0.4c-1.2-0.8-1.2-0.8-1.7,0.5c-1.5-0.2-3-0.2-4.2-1.4
		c-0.6-0.6-1.2-0.7-1.6,0.3c-0.4,1.2-1.5,2-2.7,2.2c-0.3,0-0.6,0.4-0.8,0.8c-0.5,1.1-0.9,2.2-1.4,3.3c-0.2,0.6-0.5,1-1.3,0.9
		c-0.5,0-0.9,0-1.4,0.1c-0.8,0-1.6-0.2-2.7-0.3c-0.8,1.7-2.9,1.3-4.4,1.9c-0.7-1.3-1.1-1.4-2.5-1.1c-0.7,0.1-1.3,0.3-2,0.5
		c-1,0.5-2.2,0.1-2.8-0.9c-0.5-0.6-1.1-1.1-1.8-1.6c-0.3-0.2-0.8-0.1-1.1-0.1c-0.2,0-0.5-0.1-0.7-0.1c-1-0.6-2.1-1.2-3.1-1.9
		c-0.3-0.2-0.4-0.8-0.6-1.2s-0.1-0.9-0.3-1.1c-1.9-1.7-3.8-3.4-5.8-5.1c-0.5-0.3-0.7-0.9-0.7-1.5c0.2-1.1-0.2-2.2-1-2.9
		c-0.8-0.8-1.5-1.7-2.1-2.6c-0.1-0.1-0.2-0.2-0.2-0.4c-0.4-2.1-0.9-4.2-1.3-6.3s-0.7-4.4-0.9-6.6c0.1-1,0.3-1.9,0.6-2.8
		c0.1-0.3,0.2-0.5,0.2-0.8s0.1-0.8,0.1-1.2c0.1-0.5,0.2-0.9,0.1-1.4c-0.4-1.1-0.4-2.2,0-3.2c0.4-0.9,0.1-2.1,0.2-3.2
		c0.1-0.7,0.3-1.4,0.5-2.1c0.2-0.5,0.2-1.2,1.1-1c0.2,0,0.5-0.5,0.7-0.8c0.9-1.3,1.9-2.7,2.8-4c1.3-1.9,2.9-3.5,5.4-3.9
		c0.4-0.1,0.8-0.3,1.1-0.6c1.2-1.7,2.8-2.1,4.7-2.1c1.4-0.1,2.7-0.2,4.1-0.4c0.2,0,0.5-0.1,0.5,0c1.1,1.1,2.3,0.4,3.5,0.2
		c0.8-0.1,1.1,0.1,1.3,0.8c0.2,0.9,1.1,1.5,2,1.3c0.1,0,0.3-0.1,0.4-0.1c0.3-0.1,0.6-0.2,1-0.3C411.8,398.9,412.4,397.9,412.4,396z
		 M404.9,445.4c0.9-0.2,1.9-0.5,3-0.7c0.2-0.1,0.4-0.2,0.5-0.5c0.4-1,0.8-2,1.2-3c0.1-0.3,0.3-0.6,0.5-0.7c0.8-0.4,1.3-1,1.5-1.9
		c0.3-0.5,0.6-1,1.1-1.3c0.6-0.5,1.4-0.8,1.8-1.4c0.8-1.2,1.6-2.5,2.3-3.8c0.2-0.3,0.2-0.7,0.2-1.1c0-0.6,0-1.2,0-1.8
		c0.1-0.7,0.7-1.3,0.7-2c0.1-2.1-0.2-4.2-2.1-5.7c-1.1-1-1.8-2.4-1.9-3.9c-0.2-1.7-0.6-3.3-0.9-4.9c-0.3-1.4-1.7-3-2.6-2.8
		c-1.8,0.5-3.7,0-4.9-1.4c-0.3-0.3-0.6-0.5-0.9-0.6c-0.6-0.3-1.2-0.5-1.8-0.5c-2.4,0.2-4.7,0.4-7,0.7c-0.4,0.1-0.8,0.3-1.1,0.6
		c-1.5,1.2-2.5,3-2.7,4.9c0,0.4-0.3,1-0.6,1c-0.9,0.2-0.9,0.8-1.1,1.4c-0.4,1.3-0.9,2.5-1.3,3.8c-0.5,1.4-1.1,2.8-0.4,4.4
		c0.5,1.1,0.9,2.1,1.2,3.3c1.3,3.5,2.1,7.3,4.5,10.3c0.5,0.6,0.9,1,1.7,0.7s3.2,0.7,3.6,1.3c0.6,0.8,1.1,1.5,1.8,2.3
		C402.6,443.1,403.7,444.1,404.9,445.4L404.9,445.4z"/>
	<path class="st10" d="M294.6,484.6c-0.4-1-1.5-1.5-2.5-1.1c0,0-0.1,0-0.1,0c-3.3,1-6.6,2-9.9,3c-0.6,0.3-1.4,0.1-1.7-0.5
		c-1-1.7-2.7-1.1-4.2-1.4c-0.7-0.1-1.5-0.3-2.1-0.6c-2.5-1.3-4.9-2.7-7.3-4.2c-1.1-0.7-2-1.6-3-2.4c-0.3-0.2-0.7-0.3-1-0.4
		c-0.7-0.2-1.4-0.5-2-0.8c-0.6-0.3-1.4-0.5-1.2-1.4c0-0.2-0.2-0.4-0.4-0.6c-1.4-1.5-2.3-3.4-2.5-5.4c-0.3-1.9-0.2-3.8-0.6-5.7
		c-0.6-3.5-0.7-7-1.8-10.4c-0.2-0.5-0.2-1.1,0-1.6c0.9-2.7,1.4-5.4,1.6-8.2c0-0.1,0-0.4,0-0.4c0.9-0.4,0.7-1.4,1.1-2
		c1.9-3.4,4-6.6,6-9.8c0.3-0.4,0.8-0.7,1.3-0.9c1.1-0.5,2.2-1.1,3.1-1.9c1.7-1.4,3.7-2.2,5.9-2.3c2.1,0,4.1-0.9,5.5-2.5
		c0.7-0.9,3.5-1,4.5-0.4s1.9,1.1,2.9,1.6c0.6-0.9,1.3-0.9,2-0.2c0.1,0.1,0.3,0.2,0.4,0.2c2-0.7,2.5,1.6,4,2c0.5,0.1,0.8,0.7,1.4,0.1
		c0.1-0.1,0.5,0.1,0.7,0.2c1.1,0.9,2.2,1.8,3.3,2.7c0.1,0.1,0.3,0.2,0.3,0.3c0.3,2.1,2.3,2.5,3.6,3.7c0.3,0.2,0.4,0.6,0.6,0.9
		c0.3,0.4,0.6,0.7,1,1c1.3,0.6,2.3,1.7,2.8,3c0.2,0.4,0.2,0.8,0,1.2c-0.3,0.6-0.3,0.9,0.2,1.3c0.8,0.6,1.3,1.4,1.5,2.3
		c0.4,1.3,1.1,2.5,1.5,3.8c0.6,1.8,1,3.7,1.5,5.6c0,0.1,0,0.2-0.1,0.3c-1.3,3.1-0.2,6.1,0,9.2c0,0.6,0,1-0.5,1.4
		c-1,0.6-1.5,1.9-1.1,3c0.1,0.7-0.6,1.6-0.9,2.4c-0.1,0.4-0.1,0.8-0.1,1.2c0,0.3-0.1,0.5-0.3,0.8c-1.3,1.8-2.6,3.5-3.8,5.3
		c-0.3,0.5-0.5,1.1-0.8,1.6s-0.6,1.2-1.1,1.5c-2.5,1.1-4.8,2.7-6.9,4.6C295.3,484.3,295,484.5,294.6,484.6z M294.6,467.4
		c0.7-1.2,1.4-2.4,2.2-3.4c0.7-0.9,0.8-2.1,0.2-3.2c-0.1-0.3-0.1-0.7,0-1c0.4-0.8,0.9-1.4,1.2-2.2c0.3-0.5,0.4-1,0.3-1.6
		c-0.6-1.8-0.6-3.8,0-5.7c0.1-0.3,0.1-0.7,0-1c-0.8-1.3-1.8-2.6-2.9-3.7c-0.8-0.5-1.2-1.3-1.2-2.2c0.1-0.8-0.5-1.4-1.2-1.5
		c0,0,0,0,0,0c-0.6,0-1.1-0.5-1.1-1.1c-0.4-2.5-1.6-4.1-4.3-4.3c0,0-0.1,0-0.1,0c-1.9-0.5-3.8-1.1-5.6-1.6c-0.6-0.1-1.3-0.2-1.9-0.5
		c-1.4-0.9-2.5-0.6-3.6,0.5c-0.7,0.6-1.8,0.8-2.4,1.5c-0.7,0.9-1.8,1.5-2.9,1.7c-1.1,0.3-2.2,0.7-3.3,1.1c-0.3,0.1-0.6,0.3-0.8,0.6
		c-0.6,0.8-1.2,1.6-1.7,2.4c-0.9,1.5-1.6,3-1.2,4.8c0.4,1.1,0.2,2.3-0.5,3.2c-0.8,1-0.4,1.8,0.1,2.7c1.4,2.3,2.5,4.8,3.4,7.4
		c0.9,3.2,2.7,6.1,5.1,8.4c1.8,1.7,3.7,3.3,5.5,5c0.2,0.2,0.5,0.5,0.7,0.5c1.2,0.2,2.4,0.3,3.5,0.2c3-0.6,6.1-0.9,8-3.7
		c0.1-0.2,0.3-0.4,0.5-0.5c0.7-0.6,1.6-0.7,2.4-0.2c0.4,0.2,0.9,0.7,1.1,0S295.7,468.5,294.6,467.4L294.6,467.4z"/>
	<path class="st10" d="M234.1,485.4c0.1-0.9,0.2-1.9,0.3-2.8c0.1-0.3,0.2-0.6,0.5-0.8c0.5-0.4,0.9-0.8,1.4-1.2
		c0.7-1.1,1.4-2.2,2-3.4c0.1-0.4,0.2-0.9,0.2-1.3c1.6-1.1,3.4-2.4,5.4-3.5c0.7-0.2,1.4-0.3,2.1-0.2c3.1,0,3.1,0,3.8,3
		c0.1,0.3,0.1,0.6,0.2,0.9c0.2,1.7,0.2,1.7,1.5,2.8c-0.9,1.3-1.8,2.7-2.6,4c-0.1,0.3-0.2,0.7-0.2,1c0,0.2,0.1,0.4,0,0.6
		c-0.8,1.6-1.5,3.3-2.4,4.9c-0.3,0.5-0.8,0.8-1.4,1c-0.7,0.1-1.2,0.6-1.3,1.3c-0.1,0.7-0.3,1.5-1.4,1c-0.2-0.1-0.7,0.4-0.8,0.6
		c-0.4,0.8-1.2,1.4-2.1,1.5c-0.5,0.2-0.9,0.6-1.1,1.1c-0.1,0.9-0.9,1.6-1.8,1.6c-0.1,0-0.2,0-0.3,0.1c-1.7,1.8-4.7,1.3-6.3,3.4
		c-0.3,0.5-1,0.7-1.6,0.4c0,0-0.1-0.1-0.1-0.1c-0.4-0.2-0.9-0.6-1.3,0.1c0,0.1-0.4-0.1-0.6-0.1c-0.6-0.1-1.3-0.4-1.7-0.2
		c-2.9,1.3-5.4,0-8-0.8s-5-1.6-7.6-2.5c-1.6-0.5-3.1-1.5-4.1-2.8c-1.3-1.6-2.7-3-4.2-4.5c-0.2-0.2-0.6-0.1-0.9-0.2
		c-0.6-0.3-1.3-0.6-2-1c0.3-0.9,0-1.9-0.6-2.6c-0.6-1.2-1.1-2.4-1.5-3.7c-0.8-2.1-1.6-4.2-2.3-6.4c-0.1-0.6,0-1.2,0.2-1.7
		c0.1-0.4,0.2-0.9,0.2-1.3c-0.3-1.9-0.6-3.8-0.9-5.7c0-0.4,0-0.9,0.2-1.3c0.7-2.3,1.4-4.6,2.1-6.9c0.2-0.7,0.7-1.2,1-1.9
		c0.3-0.6,0.6-1.3,0.7-2c0.3-1.4,1.1-2.6,2.2-3.5c0.4-0.6,0.8-1.2,1-2c0,0,0-0.1,0-0.1c0.2-0.4,0.4-0.9,0.4-1.3
		c0-0.3-0.3-0.6-0.6-1.3c1.1,0.8,1.5,0.7,2.1-0.2s1.8-1.3,2.8-1.7c1.2-0.6,2.6-0.9,3.7-1.6c1-0.5,1.8-1.4,2.7-2
		c0.9-0.7,1.9-1.2,3-1.5c1.2-0.1,2.4-0.1,3.6-0.1c1-0.1,2-0.2,3-0.4c0.9-0.2,1.8-0.5,2.7,0c0.3,0.2,0.9,0,1.2-0.2
		c0.7-0.4,1.7-0.4,2.3,0.2c1,0.7,2.1,1.2,3.2,1.9c0.8,0.5,1.4,0.6,1.9-0.4c0.8,0.4,1.6,0.7,2.3,1c0.7,0.2,1.2,0.7,1.4,1.4
		c0.1,0.4,0.8,0.6,1.3,0.8c0.3,0.3,0.6,0.7,0.9,0.9c0.7,0.5,1.5,0.8,2.2,1.3c0.3,0.2,0.6,0.4,0.7,0.7c0.1,1,0.7,1.8,1.6,2.1
		c0.5,0.9-1.5,2.2,0.7,2.5c0.3,2.1-1.1,4.3-0.1,6.4c-1,1.2-2.1,2.5-3,3.9c-0.4,0.7-1.1,1.1-1.9,1.1c-1.5,0.1-3,0.5-4.5-0.1
		c-0.3-0.1-0.8,0.3-1.1,0.5c-0.6,0.6-1.9,0.7-2.3,0c-0.9-1.5-2.3-2.8-2.3-4.6c0-0.6,0-1.3,0.2-1.8c0.6-1.3,1.3-2.6,2-3.9
		c0.4-0.5,0.3-1.3-0.2-1.7c-0.1-0.1-0.3-0.2-0.5-0.2c-1-0.4-2-0.7-3-1.1c-0.5-0.2-1-0.6-1.3-1.1c-0.2-0.5-0.8-0.9-1.4-0.8
		c-2.7,0-5.4-0.1-8.1-0.1c-0.4,0-0.7,0.2-1,0.5c-1.4,1.3-2.8,2.6-4.2,3.9c-0.3,0.3-0.8,0.6-1.2,0.7c-1.2,0.2-2.1,0.9-2.6,2
		c-1.1,1.9-2.3,3.7-3.3,5.6c-0.5,1.2-1,2.3-1.3,3.5c0.5,0.5,1.1,1.1,0.4,2.3c-0.3,0.4,0.1,1.4,0.4,2c1.3,2.5,2.6,4.9,3.9,7.4
		c0.2,0.6,0.3,1.2,0.3,1.8c0.2,1.7,1.1,3.3,2.4,4.4c0.5,0.4,0.9,0.9,1.3,1.5c0.5,0.9,1.6,1.3,2.5,0.8c0.4-0.1,0.8,0,1.1,0.2
		c2.1,2.2,5,3.6,8.1,3.8c0.1,0,0.2,0,0.3,0.1c3.5,1.3,6.3,0,8.8-2.5c0.3-0.4,0.7-0.8,1.1-1.1c0.4-0.2,0.9-0.4,1.3-0.6L234.1,485.4z"
		/>
	<path class="st10" d="M346.9,437.4c1.2,0.3,1.3,1.4,1.6,2.6c0.2,0.5,0.4,1,0.8,1.5c-0.8,2.5,0.3,4.7,1.4,6.9
		c0.6,1.2,1.6,2.2,1.9,3.4c0.3,1.6,1.5,2.7,2.2,4c0.6,1.3,2.2,1.9,3.5,1.2c0.5-0.2,0.9-0.6,1.2-1.1c0.4-0.5,0.8-1,1.3-1.5
		c0.9,0.6,1.8,1.1,2.8,1.5c1.1,0.3,2.3,0.5,3.5,0.7c0.1,0,0.3,0,0.4-0.1c1.1-1.8,3.2-1.9,4.8-2.7c1.4-0.8,5.2,1.2,5.4,2.8
		c0.3,1.1,0,2.4-0.8,3.2c-0.5,0.4-0.9,0.9-1.3,1.4c-0.9,1.2-2.3,2.1-3.8,2.4c-1,0.2-1.9,1-2.9,1.4c-0.6,0.3-1.3,0.4-2,0.3
		c-0.9-0.3-2-0.1-2.7,0.6c-1.3,1.2-2.6,0.9-4.2,0.2c-0.8-0.2-1.7,0-2.4,0.5c-1,0.9-2.4,1.2-3.7,0.8c-1-0.3-2.2,0.2-3.3,0.3
		c-0.9,0.1-1.9,0.2-2.8,0.4c-0.5,0.2-1,0.5-1.5,0.8l-1.2,0.7c-1.6,0.8-3.1,1.6-4.7,2.4c-0.3,0.2-0.7,0.3-1.1,0.3
		c-2.2-0.2-4.4-0.1-6.6,0.4c-1.4,0.3-2.9,0.5-4.3,0.8c-0.2,0-0.5,0-0.7-0.1c-1.1-0.6-2.1-1.2-3.3-1.8c0.5-0.7,0.6-1.6,0.2-2.3
		c-0.3-0.5,0.3-1.5,0.6-2.2c0.2-0.5,0.7-1,0.7-1.4c0-1.1,0.4-1.6,1.5-1.6c0.6,0,1.2-0.2,1.7-0.1c2.5,0.1,4.1-1.6,5.8-3
		c0.7-0.6,1.6-1,2.6-1c1.2,0.2,2.4-0.5,2.8-1.7c0.3-0.8,0.7-1.5,1.1-2.2c0.6-0.7,0.6-1.8-0.1-2.5c-1.4-1.9-1.3-4.1-1.3-6.3
		c0.1-0.4,0.3-0.8,0.6-1.1c0.5-0.6,1.2-1.1,0.8-2.1c-0.1-0.1-0.1-0.3,0-0.4c0.7-0.9,0.1-1.3-0.6-1.7c-1.1-0.6-2.2-1.3-3.3-2.1
		c-0.4-0.3-0.4-1-0.5-1.5c0-0.2,0.1-0.4,0.2-0.6c1.5-2.3,2.1-5.1,1.9-7.8c-0.1-1.1-0.3-2.2-0.6-3.3c-0.5-1.8-1.2-3.5-1.7-4.9
		c0.4-0.7,0.7-1.2,0.9-1.7s0.2-1,0.4-1.5c0.3-0.9,0-1.3-0.7-2c-1.2-1-2.5-2.3-2.1-4.3c0-0.2,0-0.4-0.1-0.6
		c-1.2-4.3-2.5-8.6-3.7-12.9c-0.1-0.4-0.3-0.8-0.5-1.1c-0.6,0.3-1.1,0.7-1.6,1.1c-0.8,0.7-1.6,1-2.6,0.2c-0.2-0.1-0.5-0.1-0.8,0
		c-0.6,0.1-1.3,0.3-1.9,0.5c-2.6,0.6-5.4,1-7.2,3.6c-0.7-0.9-1.3-1.2-2-0.3c-0.1,0.1-0.5,0.1-0.8,0.1c-1.3-0.1-2.5-0.4-3.7-0.8
		c-1-0.4-1.8-1.2-2.3-2.2c-1.1-2.7-1-2.7,1.5-4.1c0.7-0.3,1.4-0.6,2.1-0.9c0-0.7,0.7-0.8,1.5-1c2.7-0.5,5.4-1.1,8.1-1.6
		c0.6-0.1,1-0.1,1.5,0.5c0.4,0.7,1.2,0.9,1.9,0.6c1.6-0.7,3.2-1.5,4.9-2.1c1.2-0.4,2.5-1,3.8-0.5c0.2,0.1,0.3,0.1,0.5,0.1
		c1.8-0.1,3.4,0.9,4.2,2.5c0.5,0.9,0.9,1.9,1.1,2.9c0.6,2.8,1.2,5.6,1.6,8.4c0.1,1.1,0.1,2.2-0.1,3.3c-0.1,0.6,0.1,1.2,0.6,1.5
		c0.3,0.2,0.5,0.8,0.4,1c-0.8,1.8,0.2,3.4,0.6,5c0.2,0.4,0.3,0.8,0.5,1.2c0.5,2.5,1.5,5,2.9,7.1c0.4,0.5,0.4,1.1,0,1.6
		c-0.3,0.5-0.4,1-0.3,1.6c0.6,2.9,1.2,5.9,1.8,8.8C347,436.1,347,436.7,346.9,437.4z"/>
</g>
<g id="r">
	<path class="st10" d="M750.3,316.9h-1.7c-0.5-0.1-0.9-0.2-1.4-0.3c-2.5-0.9-5.3-1.5-6.8-4c-0.7-1.3-0.8-2.9-1.3-4.3
		c-1.5-4.1-0.2-7.5,2.4-10.5c1.9-2.2,6.2-3.8,9.2-2.3c2.5,1.3,5.2,2.6,6.2,5.6c0.5,1.5,1.1,3,1.7,4.5v3.4c-0.8,3.8-3.8,6.8-7.7,7.5
		C750.8,316.6,750.5,316.7,750.3,316.9z M740.2,305.6c1.1,2.6,0.5,6.4,4.5,8.4c3.8,2,9,1.3,11-2.4c2.9-5.4,0.9-11.3-4.9-14.3
		c-1.3-0.7-2.7-1-4.2-0.8C742.6,297.6,740.5,300.6,740.2,305.6z"/>
	<path class="st10" d="M754.4,310.2c-0.6,0.1-1.4,0.5-1.9,0.3c-0.6-0.4-1.1-1-1.3-1.7c-0.4-0.7-0.5-1.8-1-2.1
		c-0.9-0.2-1.9-0.3-2.8-0.1c0.3,1.2,0.6,2.5,1.1,3.7c0.1,0.3,0.8,0.3,1.3,0.9l-4.1,0.7c0.4-1.4,0.5-2.8,0.6-4.3
		c-0.2-1.5-0.6-3-1.2-4.4c-0.1-0.4-0.9-0.5-1.3-0.8c-0.3-0.2-0.6-0.5-0.8-0.8c0.3-0.2,0.6-0.7,0.9-0.7c2.1-0.4,4.2-0.6,6.4-0.7
		c2,0,3,2.5,1.8,4.5s0.2,4.8,2.3,4.9L754.4,310.2z M749.2,300.9c-1,1-1.9,1.6-2.1,2.4c-0.1,0.4,1.2,1.7,1.5,1.6
		c0.9-0.4,1.6-1,2.1-1.8C750.8,302.8,749.9,301.9,749.2,300.9z"/>
</g>
<g>
	<path class="st10" d="M535,107.1c-0.1-0.4-0.2-0.9-0.3-1.3c0-0.5,0-1.1,0-1.6c0.1-0.5,0.1-1.2,0.4-1.6c0.8-1,1.3-2,1.4-3.2
		c0.1-1.3,1-1.9,2.1-2.4c0.9-0.4,1.9-0.8,2.5-1.7c0.1-0.2,0.6-0.3,0.9-0.3c1.7,0.1,3.4,0.2,5.1,0.3c1.2,0.1,2.2,0.6,2.9,1.5
		c1,1.3,1.9,2.5,2.9,3.9c0.7,1,0.8,2.2,0.4,3.5c1,0.5,0.8,1.3,0.7,2.3c-0.2,1.5-1.1,2.9-0.5,4.5c0.2,0.5-0.3,1.1-0.4,1.7
		c-0.2,0.6-0.4,1.3-0.4,1.9c0.1,2.9,0.1,5.7-0.2,8.6c-0.2,1.4,0.5,2.9,0.8,4.3c0.1,0.6,0.2,1.1,0.4,1.7c0.2,0.6,0.4,1.1,0.7,1.8
		c-0.1,0.1-0.5,0.3-0.8,0.6c0.9,0.8,0.6,1.5,0.4,2.4c-0.3,1.2-1.3,1.3-2.1,1.9c-0.4,0.3-0.8,0.7-1.2,1.1c-0.9,0.9-1.9,1.8-2.8,2.7
		c-0.1,0.1-0.3,0.1-0.4,0c-1-0.9-2.7,0.4-3.6-1c-0.1-0.1-0.1-0.1-0.2-0.2c-0.2-1.7-1.8-2.5-2.4-4c-0.2-0.5-0.5-1.1-0.5-1.6
		c-0.2-3.3-1.2-6.4-2-9.6c-0.8-3-1.1-6.2-1.4-9.3c-0.1-0.9-0.3-1.5-0.8-2.1c-0.4-0.5-0.6-1.2-0.8-1.8c-0.2-0.6,0.1-1.4-0.6-1.9
		c-0.1-0.1,0.1-0.7,0.1-1C535.1,107,535.1,107.1,535,107.1z"/>
</g>
</svg>
