<svg id="Kyle_s_Killer_Cold_Brew" data-name="Kyle&apos;s Killer Cold Brew" xmlns="http://www.w3.org/2000/svg" xmlns:xlink="http://www.w3.org/1999/xlink" viewBox="0 0 870.14 589.19"><defs><style>.cls-1{fill:#664233;}.cls-2{fill:#6d4b3d;}.cls-3{fill:#795a4d;}.cls-4{fill:#bfb0aa;}.cls-5{fill:#010100;}.cls-6{fill:#040202;}.cls-7{fill:#050302;}.cls-8{fill:#050303;}.cls-9{fill:#080504;}.cls-10{fill:none;stroke:#000;stroke-miterlimit:10;stroke-width:20px;}.cls-11{fill:#fff;}</style></defs><title>kyles killer cold brew</title><path class="cls-1" d="M857.31,231.43c1,1.47,1.44,3,3.08,4.32,1.2.93.87,4,1,6.1.31,4.75.79,9.52.63,14.26s-1,9.36-1.55,14a9.17,9.17,0,0,0,0,3.18c1.11,4.58-.64,8.87-1.28,13.26a72.52,72.52,0,0,1-2.51,10.89c-1.7,5.56-3.52,11.1-5.64,16.51-2.18,5.59-4.71,11-7.2,16.5-2.65,5.81-5.31,11.63-8.22,17.31-2.49,4.86-5.15,9.66-8.08,14.27-3.88,6.09-8.13,11.95-12.17,17.95-2.45,3.65-4.87,7.32-7.16,11.07-.81,1.34-1.1,3-1.78,4.41-1.3,2.75-2.67,5.47-4.08,8.15a18.83,18.83,0,0,1-2.29,3.52,4.63,4.63,0,0,1-2.5,1.59c-3.45.4-5.52,2.82-7.7,5-5.27,5.26-10.33,10.72-15.62,16-4.62,4.57-9.42,9-14.17,13.42-2.16,2-4.22,4.06-7.18,5.15-2.19.8-4.06,2.54-6,4-.19.14.21,1.09.36,1.76-1.46.7-3.36,1.24-4.79,2.38-1.66,1.31-4.64,1.39-4.51,4.77,0,.72-2.57,2.31-3.77,2.15-3-.4-4.59,1.5-6.66,2.77q-11.49,7.13-23,14.17c-5.84,3.55-11.65,7.18-17.65,10.45C679.05,495,671,499,663.05,503c-7.58,3.84-15.15,7.69-22.81,11.34-7.3,3.47-14.72,6.67-22.08,10-4.49,2-8.94,4.18-13.47,6.12-3,1.31-6.17,2.37-9.28,3.5q-10.75,3.93-21.52,7.83c-5.93,2.15-11.88,4.23-17.8,6.4-7.39,2.71-14.64,5.88-22.18,8.11-8.61,2.55-17.42,4.46-26.22,6.31-12.9,2.72-25.85,5.2-38.81,7.66-4.48.86-9,1.31-13.55,2.05-6.71,1.1-13.38,2.49-20.12,3.4A70.39,70.39,0,0,0,419,580.37a4.57,4.57,0,0,1-3.87-.68c-2.22-1.89-4.57-.76-6.78-.69-4.91.15-9.82.73-14.73,1.14-3.88.33-7.76.7-11.65,1-8.27.63-16.53,1.43-24.81,1.76-4.07.16-8.43,1.15-12.2-1.45-4-2.77-8.59-1.38-12.88-1.68a308.34,308.34,0,0,1-37.68-5.07,12.64,12.64,0,0,0-6.84.61A17.64,17.64,0,0,1,277,576.38c-6.68-1.29-13.43-2.16-20.12-3.41q-13.5-2.54-26.94-5.41c-4.56-1-9.06-2.24-13.52-3.58-5.39-1.61-10.78-3.28-16.07-5.2-5.92-2.16-11.72-4.65-17.6-6.95-5.23-2-10.63-3.72-15.71-6.07-6.28-2.91-12.36-6.25-18.43-9.59-6.75-3.71-13.48-7.48-20-11.53A123,123,0,0,1,118.36,517a93.67,93.67,0,0,1-8-6.36c-3.46-3.31-6.67-6.89-9.85-10.47-2.86-3.21-5.51-6.62-8.32-9.88-4.79-5.55-9.23-11.31-12.42-18-1.73-3.65-4.3-6.9-6.06-10.54a68.14,68.14,0,0,1-3.44-9.64c-1.67-5.48-3.21-11-4.78-16.52-1.2-4.19-2.31-8.41-3.55-12.59-1-3.18-2.05-6.3-3.09-9.45-.24-.76-.49-1.52-.72-2.21-5.66-2-11.44-3.7-17-6.05-2.37-1-4.36-3.17-6.22-5.11a60,60,0,0,1-7.44-8.83c-1.89-2.95-3.56-5.77-6.74-7.66-1.17-.69-1.5-2.92-2.06-4.51-1.67-4.76-3.28-9.54-4.89-14.32-.27-.81-.43-1.65-.64-2.48-1.7-6.84-3.49-13.67-5.08-20.54a32.15,32.15,0,0,1,.21-13.46c1.72-9,4.14-17.86,5.08-26.9a62.51,62.51,0,0,1,3.36-13.81c1.5-4.44,3.66-8.64,5.36-13,1.92-4.92,3.46-10,5.5-14.84,2.16-5.13,4.76-10.07,7.08-15.13,1.54-3.38,2.87-6.85,4.39-10.23,1.18-2.61,2.43-5.19,3.78-7.71,1.47-2.75,3.08-5.43,4.67-8.13,2.25-3.81,4.5-7.61,6.8-11.4,3.79-6.24,7.41-12.6,11.49-18.66,3.28-4.86,7.08-9.37,10.74-14,2.14-2.7,4.47-5.25,6.67-7.9,2.45-2.95,4.88-5.92,7.25-8.93s4.6-6.12,7-9.1a18.54,18.54,0,0,1,2.74-2.3c2.88-2.46,5.82-4.85,8.61-7.4,3.61-3.28,7.09-6.71,10.64-10.06,4.58-4.32,9.38-8.43,13.69-13,2.94-3.11,6.52-5.09,10-7.3,4.2-2.66,8.3-5.47,12.51-8.11,3.87-2.42,7.77-4.8,11.77-7,5.69-3.12,11.44-6.17,17.27-9,5.29-2.62,10.79-4.83,16.07-7.48,3.88-2,7.52-4.4,11.34-6.49a43.86,43.86,0,0,1,7.85-3.7,29.27,29.27,0,0,0,11.44-7c3.69-3.47,8.43-4.8,12.76-6.94,3.32-1.64,6.86-2.82,10.32-4.19,7.34-2.9,14.55-6.19,22.06-8.58,11.69-3.71,23.56-6.89,35.4-10.14,7.52-2.07,15.11-3.86,22.67-5.78,4.4-1.13,8.76-2.49,13.21-3.35C355.39,19.3,363,18,370.62,16.88c6.05-.92,12.14-1.57,18.22-2.28,5.75-.67,11.52-1.23,17.27-1.88s11.55-1.51,17.34-1.94c3.49-.25,7,.2,10.55.26,4.22.07,8.46,0,12.68.1,6.46.19,12.91.47,19.36.76,7.82.35,15.63.8,23.46,1.07,4,.14,8.1-.06,12.15,0,2.32,0,4.64.1,7,.31a102.06,102.06,0,0,0,20.08.11c3.33-.36,6.77.38,10.16.47,3.82.1,7.65.06,11.48,0,1.89,0,3.8-.32,5.68-.17,5,.38,9.87.71,14.72,2.47,5.1,1.85,10.65,2.44,16,3.75,4.09,1,8.12,2.22,12.17,3.39,3.08.89,6.16,1.8,9.21,2.79,5.18,1.66,10.32,3.41,15.5,5.07,4.1,1.32,8.26,2.44,12.32,3.85C641,36.79,646,38.82,651.1,40.68c2.63,1,5.35,1.69,7.94,2.74,3.79,1.52,7.51,3.22,11.24,4.88,3.45,1.55,6.93,3,10.3,4.74s6.44,3.64,9.69,5.39c2.34,1.25,4.78,2.29,7.11,3.54,4.63,2.49,9.33,4.86,13.78,7.63,3.87,2.42,7.46,5.31,11.13,8,5.81,4.33,11.64,8.62,17.34,13.08q9.18,7.17,18.12,14.64a132.43,132.43,0,0,1,10,9c5.07,5.17,9.81,10.66,14.87,15.84,1.57,1.62,3.85,2.52,5.6,4,3.81,3.2,8.24,4.89,12.87,6.58,4.26,1.55,8,4.58,12,6.72,2,1.05,4.37,1.41,6.45,2.36a57.37,57.37,0,0,1,5.71,3.33,64.67,64.67,0,0,1,6.49,4.11,55.2,55.2,0,0,1,5.65,5.49A61.73,61.73,0,0,1,842,168c2.1,2.72,4.15,5.49,6,8.37a15.59,15.59,0,0,1,2.33,5.1c1,4.8,1.8,9.65,2.41,14.51.68,5.34,1,10.72,1.56,16.08.27,1.77.55,3.55.83,5.32.2.79.41,1.57.61,2.36.08.39.16.78.25,1.17.17.72.35,1.45.52,2.17.22,1.75.45,3.49.67,5.23l.18,1.54C857.34,230.37,857.33,230.9,857.31,231.43ZM195.48,498.18a21.84,21.84,0,0,0-4.53,1.31c-1.16.63-3.27.13-3.32,2.33,0,1.89-.46,3.69,1.81,5.05s4,3.37,5.87,5.16c.35.33.77,1.2.64,1.35-1.24,1.39,0,2.15.79,2.74a61.64,61.64,0,0,0,6.86,4.48c3.17,1.72,6.52,3.1,9.75,4.72,3.71,1.85,7.28,4,11.06,5.67s7.82,2.93,11.71,4.47c4.08,1.62,8,3.72,12.19,4.94,4.5,1.32,9.26,1.73,13.85,2.77,7.92,1.79,15.81,3.76,23.71,5.64,2.28.54,4.57,1.67,6.84-.2.32-.26,1.12,0,1.68.08,7,1.19,14.06,2.52,21.12,3.56,4.27.63,8.6,1,12.91,1.18,6.58.34,13.17.5,19.75.69,6.37.17,12.75.42,19.12.39,7.29,0,14.58-.29,21.87-.56a59.21,59.21,0,0,0,6-.83c-2.71-2.14-5.56-3.48-8-5.31-1.4-1-2.63-1.95-4.32-1.53-2,.5-3.86,1.26-6,2-1-1.57-2.64-1.56-4.7-1.2-2.59.45-5.4,1.38-7.9-.6-.2-.16-.65-.06-1,0-3,.62-6,1.35-9,1.84a3.21,3.21,0,0,1-2.61-.65c-1.69-2.2-3.11-4.62-4.63-6.95l.48-.86c4.27.38,8.54.77,12.82,1.12a5.63,5.63,0,0,0,2-.09c4.36-1.35,8.73-2.41,13.36-1.5a2.38,2.38,0,0,0,1.81-.7c1.7-1.79,3.09-1.5,4.88.05s4.13,1.38,6.38.82l1.22,2.66c1-2.59,1.73-4.45,2.53-6.49.91.34,2.09.42,2.59,1,1.22,1.52,2.59,1.36,4.17,1,6.86-1.47,13.71-3,20.61-4.31,5.9-1.11,11.85-2.13,17.82-2.74a70.73,70.73,0,0,0,15.6-2.87,146.16,146.16,0,0,1,19.84-5c6.93-1.3,13.76-2.75,20.27-5.5a23.06,23.06,0,0,1,2.87-.83,25.77,25.77,0,0,0-6.51,0c-3.09.32-6.16.81-9.25,1-5,.3-10,.41-15,.59-4.61.17-9.24.66-13.82.41-10.38-.57-20.74-1.57-31.12-2.28-7.37-.5-14.75-.87-22.13-1.22-3.15-.15-6.31-.08-9.47-.13-7.4-.12-14.82-.56-22.21-.27-8,.32-16,1.36-24.07,2a33.38,33.38,0,0,1-6.08-.08c-6-.63-11.95-1.38-17.92-2.09-4.52-.53-9.05-1-13.57-1.61-4.83-.61-9.66-1.28-14.48-2-5.34-.77-10.71-1.4-16-2.46s-10.44-2.65-15.68-3.86c-4.84-1.12-9.72-2.06-14.59-3.05-4.28-.86-8.55-1.9-12.87-2.45-6.07-.78-12.2-1.07-18.27-1.78-4.5-.53-8.94-1.45-13.42-2.12-2.06-.31-4.13-.45-6.56-.7ZM601.32,503c.08.33.15.66.22,1,.67.08,1.43.4,2,.19,1.9-.68,3.72-1.6,5.6-2.34,8.07-3.17,16.27-6.06,24.22-9.51,8.78-3.82,17.42-8,26-12.31,11.08-5.59,22.21-11.1,32.45-18.24,4.78-3.34,10-6,14.78-9.41,7.42-5.33,14.67-10.9,21.81-16.61A36.19,36.19,0,0,0,737.09,425a14.59,14.59,0,0,0-2.29.7q-7.06,3.9-14.09,7.88c-1.46.82-3.65,1.38-4.19,2.63-2.48,5.68-8,7.42-12.53,10.49-1.55,1.05-3.28,1.83-4.79,2.93-3.17,2.31-6.09,5-9.4,7.08-7.87,4.91-17.29,7.28-23.67,14.63a2.92,2.92,0,0,1-.87.54c-7.81,4.06-15.83,7.79-23.39,12.27-8.87,5.26-18.22,9.33-27.7,13.22C609.85,499.13,605.6,501.09,601.32,503ZM436.7,548.66l.35-1c-1.28-1.15-2.4-2.9-3.88-3.29a13,13,0,0,0-6.11.25c-7.24,1.72-14.43,3.64-21.63,5.52-2.76.72-5.49,1.53-8.23,2.3l.12.7C410.54,552.4,423.61,550.47,436.7,548.66Zm49.13-7.81c-2.48-3.28-5.35-2.93-8.62-2.54-7.19.86-14.24,1.9-20.61,5.65-1.42.83-3,1.45-4.44,2.17l.27.67Zm5.86-1.93c.12.32.24.64.37,1l28.07-6.5c-.06-.29-.11-.58-.17-.87-2.07-.76-3.94-2.17-6.47-.78-1.55.86-3.48,1-5.24,1.56-4.81,1.41-9.62,2.81-14.41,4.3A9.6,9.6,0,0,0,491.69,538.92Zm40.27-10,14.25-4.31C542.64,521.71,535,524.76,532,528.94Z" transform="translate(0)"/><path class="cls-2" d="M857.63,223c-.38-3-.82-5.92-1.11-8.89a10.2,10.2,0,0,1,.44-2.63h1.28q1.23,10,2.45,19.95l-.77.31c-.67-1.17-1.33-2.34-2-3.51Z" transform="translate(0)"/><path class="cls-3" d="M847.75,173.35l-3.34-5.86a6.06,6.06,0,0,1,4.05,5.54Z" transform="translate(0)"/><path class="cls-4" d="M857.63,223l.3,5.24-.76.07c-.22-1.74-.45-3.48-.67-5.23Z" transform="translate(0)"/><path class="cls-4" d="M855.12,217.36c-.28-1.77-.56-3.55-.83-5.32C854.56,213.81,854.84,215.59,855.12,217.36Z" transform="translate(0)"/><path class="cls-4" d="M857.31,231.43c0-.53,0-1.06,0-1.6C857.34,230.37,857.33,230.9,857.31,231.43Z" transform="translate(0)"/><path class="cls-4" d="M856,220.89c-.09-.39-.17-.78-.25-1.17Z" transform="translate(0)"/><path class="cls-5" d="M195.48,498.18l-2.25-3.74c2.43.25,4.5.39,6.56.7,4.48.67,8.92,1.59,13.42,2.12,6.07.71,12.2,1,18.27,1.78,4.32.55,8.59,1.59,12.87,2.45,4.87,1,9.75,1.93,14.59,3.05,5.24,1.21,9.45.31,14.73,1.36s12.65-4.77,18-4c4.82.7,8.6,10.33,13.43,10.94,4.52.58,9,1.08,13.57,1.61,6,.71,11.94,1.46,17.92,2.09a33.38,33.38,0,0,0,6.08.08c8-.63,16-1.67,24.07-2,7.39-.29,14.81.15,22.21.27,3.16.05,6.32,0,9.47.13,7.38.35,14.76.72,22.13,1.22,10.38.71,20.74,1.71,31.12,2.28,4.58.25,9.21-.24,13.82-.41,5-.18,10-.29,15-.59,3.09-.19,6.16-.68,9.25-1a25.77,25.77,0,0,1,6.51,0,23.06,23.06,0,0,0-2.87.83c-6.51,2.75-13.34,4.2-20.27,5.5a146.16,146.16,0,0,0-19.84,5,70.73,70.73,0,0,1-15.6,2.87c-6,.61-11.92,1.63-17.82,2.74-6.9,1.28-13.75,2.84-20.61,4.31-1.58.34-2.95.5-4.17-1-.5-.62-1.68-.7-2.59-1-.8,2-1.52,3.9-2.53,6.49l-1.22-2.66c-2.25.56-4.56.75-6.38-.82s-3.18-1.84-4.88-.05a2.38,2.38,0,0,1-1.81.7c-4.63-.91-9,.15-13.36,1.5a5.63,5.63,0,0,1-2,.09c-4.28-.35-8.55-.74-12.82-1.12l-.48.86c1.52,2.33,2.94,4.75,4.63,6.95a3.21,3.21,0,0,0,2.61.65c3-.49,6-1.22,9-1.84.32-.06.77-.16,1,0,2.5,2,5.31,1,7.9.6,2.06-.36,3.67-.37,4.7,1.2,2.13-.71,4-1.47,6-2,1.69-.42,2.92.5,4.32,1.53,2.48,1.83,5.33,3.17,8,5.31a59.21,59.21,0,0,1-6,.83c-7.29.27-14.58.52-21.87.56-6.37,0-12.75-.22-19.12-.39-6.58-.19-13.17-.35-19.75-.69-4.31-.22-8.64-.55-12.91-1.18-7.06-1-14.08-2.37-21.12-3.56-.56-.1-1.36-.34-1.68-.08-2.27,1.87-4.56.74-6.84.2-7.9-1.88-15.79-3.85-23.71-5.64-4.59-1-9.35-1.45-13.85-2.77-4.19-1.22-8.11-3.32-12.19-4.94-3.89-1.54-7.9-2.78-11.71-4.47s-7.35-3.82-11.06-5.67c-3.23-1.62-6.58-3-9.75-4.72a61.64,61.64,0,0,1-6.86-4.48c-.81-.59-2-1.35-.79-2.74.13-.15-.29-1-.64-1.35-1.91-1.79-3.67-3.85-5.87-5.16s-1.85-3.16-1.81-5.05c.05-2.2,2.16-1.7,3.32-2.33A21.84,21.84,0,0,1,195.48,498.18Z" transform="translate(0)"/><path class="cls-6" d="M601.32,503c4.28-1.88,8.53-3.84,12.85-5.62,9.48-3.89,18.83-8,27.7-13.22,7.56-4.48,15.58-8.21,23.39-12.27a2.92,2.92,0,0,0,.87-.54c6.38-7.35,15.8-9.72,23.67-14.63,3.31-2.07,6.23-4.77,9.4-7.08,1.51-1.1,3.24-1.88,4.79-2.93,4.51-3.07,10-4.81,12.53-10.49.54-1.25,2.73-1.81,4.19-2.63q7-4,14.09-7.88a14.59,14.59,0,0,1,2.29-.7,36.19,36.19,0,0,1-8.72,10.75c-7.14,5.71-14.39,11.28-21.81,16.61-4.74,3.4-10,6.07-14.78,9.41-10.24,7.14-21.37,12.65-32.45,18.24-8.55,4.32-17.19,8.49-26,12.31-8,3.45-16.15,6.34-24.22,9.51-1.88.74-3.7,1.66-5.6,2.34-.57.21-1.33-.11-2-.19C601.47,503.63,601.4,503.3,601.32,503Z" transform="translate(0)"/><path class="cls-7" d="M436.7,548.66c-13.09,1.81-26.16,3.74-39.38,4.44l-.12-.7c2.74-.77,5.47-1.58,8.23-2.3,7.2-1.88,14.39-3.8,21.63-5.52a13,13,0,0,1,6.11-.25c1.48.39,2.6,2.14,3.88,3.29Z" transform="translate(0)"/><path class="cls-8" d="M485.83,540.85l-33.4,5.95-.27-.67c1.48-.72,3-1.34,4.44-2.17,6.37-3.75,13.42-4.79,20.61-5.65C480.48,537.92,483.35,537.57,485.83,540.85Z" transform="translate(0)"/><path class="cls-9" d="M491.69,538.92a9.6,9.6,0,0,1,2.15-1.34c4.79-1.49,9.6-2.89,14.41-4.3,1.76-.52,3.69-.7,5.24-1.56,2.53-1.39,4.4,0,6.47.78.06.29.11.58.17.87l-28.07,6.5C491.93,539.56,491.81,539.24,491.69,538.92Z" transform="translate(0)"/><path class="cls-9" d="M532,528.94c3.07-4.18,10.68-7.23,14.25-4.31Z" transform="translate(0)"/><path d="M145.67,471.28c1.22-1.94.43-3.44-1-4.8a7.94,7.94,0,0,1-1.94-1.94,51.94,51.94,0,0,1-1.93-5,9.46,9.46,0,0,0-1.14,1.28c-.5.76-.74,2.17-1.33,2.32a11.67,11.67,0,0,1-4.95.21c-1.52-.31-2-1.72-2.08-3.39s.71-2.18,2-2.56c1-.29,2-.71,3.46-1.25-.76-.55-1.35-1.32-1.88-1.29-2.77.16-3.53-1.94-4.64-3.74-.93-1.53-1.95-3-3-4.47-1.35-1.95-3.19-2.19-5.46-1.95a3.62,3.62,0,0,1-2.85-1.94c-1.16-3.84-2-7.79-2.78-11.73-.07-.32.88-.95,1.46-1.28,1.27-.72,2.61-1.33,3.92-2l-.74-.42c-.2-2-.83-4-.5-5.95.39-2.27-.83-2.36-2.23-2.33a4.44,4.44,0,0,0-4.37,4.75c.19,2.09.64,4.53-2,5.57a5.09,5.09,0,0,1-3.58.25c-5.25-2.36-8.94-6.55-12-11.28-.57-.89.05-2.61.29-3.92a18.76,18.76,0,0,1,.93-2.3c.43-1.3,1.51-3.12,1-3.83a12.77,12.77,0,0,0-4.81-4.25c-2.54-1.19-5-2.25-6.77-4.54a23.07,23.07,0,0,0-3.17-2.89c-.58-.5-1.46-.85-1.72-1.48a24.16,24.16,0,0,1-.92-3.84c1.21-.27,2.47-.9,3.62-.74,4.35.62,4.22.67,5.84-3.53.94-2.4,2.38-4.62,3.55-6.94.24-.48.61-1.21.42-1.55-.92-1.68-2-3.26-3-4.88s-2.08-1.11-3.07.07c-1.89,2.24-4.76,1.79-5.86-1s-1.93-6-3.21-8.81c-1.59-3.52-3.51-6.89-5.44-10.63a6.82,6.82,0,0,0-.27-5.64,97.88,97.88,0,0,1-3.33-10.24c-1.33-4.56-2.92-4.67-6-3.44a21.65,21.65,0,0,1-2.47.56c-1.37.38-2-.29-2.21-1.53-.51-2.58-1.14-3.16-3.62-2.59a10.54,10.54,0,0,0-3.87,1.87c-6.39,4.75-13.38,2.18-17-4.68-2-3.88-1.12-5.85,2.09-8.34,1.54-1.19,2.5-3.11,3.76-4.67a16.5,16.5,0,0,1,2.11-2.3c1.75-1.45,3.4-2.82,3.13-5.5-.14-1.48.49-2.51,2.43-2.52,4.46,0,7.45-3.89,6.83-8.33a21.26,21.26,0,0,1,0-4.85c.18-2.07,1.92-3.43,4.29-3.82a43.67,43.67,0,0,0,7.41-1.52A5.19,5.19,0,0,0,71,280.36a3.53,3.53,0,0,1,2.36-2.5c3.43-.36,4.67-2.81,6.07-5.34a42.2,42.2,0,0,1,3.71-5.7c2.18-2.76,4.59-5.33,6.83-8,1-1.18,1.2-2.69.07-3.78a3.34,3.34,0,0,1-.57-4.19c1.34-2.81,3-5.49,4.52-8.2a43.43,43.43,0,0,1,3.25-5.48c.93-1.2,2.42-2,3.57-3,.68-.61,1.66-1.4,1.66-2.11s-1-1.62-1.73-2c-3.28-1.66-3.63-4.37-.72-6.53a14.83,14.83,0,0,0,5.47-7.67,9.74,9.74,0,0,1,2.91-4c1.32-1.14,1.33-2.08.48-3.34-.13-.2-.27-.38-.4-.57-2.2-3.28-2-3.1.75-5.75,1.45-1.39,2.21-3.52,3.24-5.35.4-.7.46-1.82,1-2.17,3.37-2.06,4.42-5.7,6.4-8.73,2.29-3.5,5-6.69,7.46-10.13a17,17,0,0,0,2.44-4.9c.59-2.11,1.91-3.63,3.8-3.69,6.17-.21,8.84-4.37,11.64-9a117.6,117.6,0,0,1,10.13-14.23c1.7-2,4.62-3.06,6.92-4.63a4.8,4.8,0,0,0,1.95-2c1.49-4.71,5.45-6.18,9.47-7.82a42.49,42.49,0,0,0,7.09-4,2.81,2.81,0,0,0,.85-2.22c-.17-1.72.75-2.3,2.06-3.09,3.89-2.36,7.55-5.12,11.47-7.43s7.68-4.53,12.25-5.58a9,9,0,0,0,6.54-5.23c.4-1,2.46-1.53,3.86-2,2.19-.65,4.26-1.28,4.76-3.62,3.14-1.08,6.14-2.14,9.17-3.13a22.42,22.42,0,0,1,4.43-1.16c1.49-.17,2.46-.1,2.51-2.23,0-1,2-2.21,3.27-2.72,1.46-.56,3.18-.4,4.78-.62,2.26-.3,2.77-1.38,1.68-3.39s-.31-4.36,2.6-5.69c1.17-.54,2.69-.35,4.06-.42.44,0,.92.34,1.33.26,3.77-.73,7.63-1.19,11.26-2.38,3.09-1,5-.45,5.78,2.75a10.52,10.52,0,0,0,1,2c3.52-3.18,4-3.29,7.25-1.55a21.59,21.59,0,0,1,1.7-3.52c.9-1.27,1.88-2.78,3.19-3.37,2-.87,2.85.13,2.77,2.29-.07,1.76,0,3.45,2,4.49,3.37,1.8,3.59,3.79,1,6.66a3.65,3.65,0,0,0-.41.75c3.34,2.67,4.63,2.85,7.91.83,3.12-1.92,6.08-3.86,10.13-3.54,2,.16,4.1-1,6.11-1.72.61-.21,1.4-.72,1.54-1.25.57-2.13,2.14-2.9,4-3.25,1.41-.25,2-.89,1.7-2.37a16.3,16.3,0,0,1-.35-2.51c-.19-2.27,1-3,3.18-2.65a9.14,9.14,0,0,0,4.47-.81c2.19-.89,4.23-2.16,6.36-3.22,3.2-1.58,5.21-.37,5.85,3.09.24,1.34,1.37,2.53,2.47,4.44,1.45-5.32,5.39-5.28,8.95-5.65a11.7,11.7,0,0,0,6.36-2.08c1.95-1.5,4.16-2.26,6.69-1.26a6.44,6.44,0,0,0,5.67-.6,11.42,11.42,0,0,1,8.17-1.55c1.12.23,2.68-.84,3.81-1.64,1.4-1,2.43-1,3.68.18a2.61,2.61,0,0,0,2,.52c5.1-.93,10.22-1.84,15.27-3,4.36-1,8.69-2.22,12.93-3.64,1.24-.42,2.26-1.78,3.13-2.89,1.3-1.66,1.85-3.67,4.91-3.35,1.82.19,4-1.31,5.73-2.51,4.07-2.89,5.17-3.08,9.3-.53,2.64-2.86,6.11-3.15,9.71-3,.08,0,.16.06.23.05,3.77-.72,7.65-1.13,11.26-2.34,1.34-.45,2-2.79,3.39-4.81,1.16-.08,1.53,1.72,2,3,1.79,4.4,6,5.17,9.16,1.6a14.36,14.36,0,0,1,2.61-2.25c1.4-.94,2.59-.5,3.55.83.57.8,1.22,1.55,1.84,2.32L489,36.55l-3.72-1.11c-.44-1.31-.24-2.55,1.23-2.62a7.46,7.46,0,0,1,3.32,1.1,7.33,7.33,0,0,1,1.53,1.38,34.75,34.75,0,0,1,3.48,3.26c1.16,1.41,2.23,2.32,4.06,1.1a1.71,1.71,0,0,1,1.44-.23c2.28,1.54,4.61.83,6.88.2,4-1.11,3.9-1,6.24,2.41.92,1.35,2.84,2.21,4.49,2.82,2.55.94,5.14,1.6,7.66,2.8,2,1,4.94.46,7.36,0,8.27-1.48,16.31-2,23.36,3.82a4.57,4.57,0,0,0,.75.38c.55-1,1.11-2,1.62-2.93A4.88,4.88,0,0,1,564,46.72c1.45.51,1.61,3.37.26,5.09-.48.62-1,1.22-1.65,2a39,39,0,0,0,4.36.68,1.79,1.79,0,0,0,1.43-1c.38-2.36,1.26-1.77,2.49-.62A9.51,9.51,0,0,0,573,54c0-2.22.21-4.19,2.67-4,1.12.11,2.89.82,3.1,1.6.85,3.08-2.34,2.24-4.13,3.22a35,35,0,0,0,4.66,2.63,3.85,3.85,0,0,0,2.53-.5c2.26-1,4.34-1.9,6.82-.26,1.48,1,3.21-.21,3.49-2a1.75,1.75,0,0,1,0-.46c.53-1.2,0-3.21,2.06-3.28a4.21,4.21,0,0,1,3.9,4c0,.53-.11,1.05-.19,1.79-3.54-.24-4.78,2-5.41,5a2,2,0,0,1-1.38,1.13,4.52,4.52,0,0,1-2.73-.06c-3.7-1.9-6.36.18-9.13,2.1a3.64,3.64,0,0,0-1.7,4.06c.5,2.82.93,3.2,3.68,2.45,2.19-.59,5.64,1.18,6.47,3.34.28.71.32,1.67.83,2.12a3.32,3.32,0,0,0,2.45,1,1.94,1.94,0,0,0,1.4-2.7,5.77,5.77,0,0,0-.6-1.25c-.62-.91-1.91-2-.65-2.87s2.79-.75,4.24-.86c.48,0,1.09.53,1.52.94,1.7,1.59,3.08.61,4.58-.4s3-2.47,4.61-2.54c2.47-.12,3.9-1.41,5.58-2.77,1.13-.92,2.22-2.19,4.13-1.38s3.45,2,3.89,4.09c.61,2.89-2.09,6.58-5,7a11.12,11.12,0,0,1-1.16.06c-5.43.17-5.43.17-6.5,5.18,3.91,1.27,7.76,2.59,11.66,3.74,1.38.41,2.89.35,4.31.67A13.18,13.18,0,0,1,626.61,86c3,1.69,5.82,3.74,8.9,5.28a13.24,13.24,0,0,0,10.5.53c7.08-2.27,14.43-3.63,21.54.44a7.47,7.47,0,0,0,2.64.48c1.93.26,3.7.24,5.36,2,1,1.07,3.68,1.26,5.37.86,4-.94,6.92.61,9.5,3.15,3,2.89,6.39,5.09,9.63,7.56,3.44,2.61,7.11,3,10.86,4,4.32,1.06,6.17,4.41,7.5,8.23.9,2.63,1.85,5.25,2.78,7.87l.71.06c.83-1.23,1.68-2.45,2.5-3.68a5.14,5.14,0,0,1,6.18-2.14c2.27.89,3.08,2.57,2.6,5.45a11.2,11.2,0,0,1-.46,1.79c-1.65,4.82.07,6.24,4.89,7.71,3.93,1.2,4.91,1.87,5.52,5.88a4.32,4.32,0,0,0,.57,2,3.72,3.72,0,0,0,1.95,1.31c.36.08,1.08-.73,1.36-1.27.5-.95.75-2,1.16-3a5.27,5.27,0,0,1,4.06-3.36,3.43,3.43,0,0,1,4.12,3.41c0,2.15-.9,3.67-3.15,5.9.78.94,2,1.75,2.1,2.66.36,3.92,2.15,5.94,6.19,6.33,1.94.19,3.78,1.34,5.66,2.06.75.29,1.49.6,2.38,1,.69-2.71.85-5.52,3.5-6.74a5.86,5.86,0,0,1,3.62-.37c1.3.32,2,1.3.85,2.8-1.21,1.66-.77,2.72,1.3,3.24s3.36,2,4.92,3.36a20.3,20.3,0,0,0,7.4,3.62,11,11,0,0,1,8.19,10.5c.05,1.34,1.32,2.64,2,4,.3-.24.84-.46.86-.72.06-.91-.13-1.83-.1-2.74.17-5.63,4.27-8.62,9.73-7.17,1.24.33,2.63.25,3.77.75,2.29,1,1.16,3.26,1.22,4.88,0,.81-1.5,1.81-2.5,2.48-.48.33-1.35.09-2,.13-2.85.15-4,2-2.77,4.69.92,2.06,1.37,4.49,4.08,5.11a3.64,3.64,0,0,0,1.79.25c3.36-1.19,7.14-1.33,10-3.93l6.07-5.6c1.46,2.15.3,4.18-.61,6.22-1,2.26-2.5,4.42-3,6.8-.76,3.41-2.28,6.84.49,10.43,1.7,2.2,2.2,5.33,3.28,8.16a.32.32,0,0,0,.24.09c2.75-.8,4.71-.27,5.65,1.54s-.08,5.67-2.3,7.11a44.3,44.3,0,0,1-8,4.48c-1.23.48-3-.56-4.81-1l-6.54,5.66c.51,3.26.94,6.09,1.45,9.36l-4.79,1.42c.76.72,1.21,1.5,1.83,1.67,2.32.65,2.22,2.4,2.2,4.21,0,4,0,8.08-.09,12.12,0,1-.68,1.93-.61,2.86a21.17,21.17,0,0,0,1.16,4c.67-1.15.94-1.66,1.26-2.13,1.17-1.74,2.25-3.55,3.56-5.16,2.19-2.69,4.63-5.17,6.79-7.87,1.5-1.87,4.62-3,6.53-1.59.85.63,1.17,2.49,1.06,3.73a6.7,6.7,0,0,1-1.77,3.17c-2,2.38-4.31,4.52-6.06,7a11.5,11.5,0,0,0-2,5.71c-.15,3.32-2.57,5.87-5.9,5.66A42,42,0,0,0,815,271c1.38,6.16-2.08,10.35-4.15,14.89-.84,1.84-2.95,1.19-4.57.67a10,10,0,0,1-2-1.23c-.59.57-1.2,1.14-1.8,1.73a4.53,4.53,0,0,1-5.1,1.31,4.72,4.72,0,0,0-5.25,1.37c-1.26,1.23-2.38,2.6-3.56,3.91l-3.4,3.8c.46.59,1.38,1.29,1.58,2.15.26,1.1.43,2.81-.19,3.43a13.82,13.82,0,0,0-3.89,9.08c-.28,3.88-.48,7.67-2.88,11-.35.48-.22,1.29-.33,1.95a43,43,0,0,1-.87,4.95,3.75,3.75,0,0,1-3.46,2.91,3.4,3.4,0,0,0-1.35.62c.36,1.79.72,3.21.91,4.65.28,2.25-1.14,2.52-2.89,2.32a30.09,30.09,0,0,0-3.65-.37c-2.5,0-3.64,2-2.38,4.22.46.78,1.18,1.39,1.68,2.15,1.4,2.14.86,3.67-1.45,4.71-2.56,1.16-4.69,2.52-4.27,6,.25,2.09-1.5,3.33-3.51,2.71-6.93-2.14-11.8.8-16.07,5.94-3.47,4.18-7.41,7.68-13.33,8.11a12.28,12.28,0,0,0-5.07,2,4.08,4.08,0,0,0-2.07,5.09c.83,2.54.16,4.85-1,7.05a2.05,2.05,0,0,1-1.52,1c-2.34-.26-2.89,1.38-3.41,3-1.1,3.43-1.36,3.66-4.92,3.68a1.6,1.6,0,0,0-1.57,2.43,2.87,2.87,0,0,1-2.65,4.28,22.25,22.25,0,0,0-4.91.37,7.18,7.18,0,0,0-5.14,7.86c.1.65.79,1.22,1.25,1.8a10.71,10.71,0,0,1,1.68,2.05c2,4.55.87,6.92-4,8.37a22.42,22.42,0,0,1-4,1,4.82,4.82,0,0,1-2.51-.68,25,25,0,0,1-2.9-2.14c-.81,2-1.51,3.71-2.22,5.43-1.23,3-3,3.72-5.57,2-1.47-1-2.56-1-3.79.16-1.61,1.54-4,2.21-4.13,5.26-.12,2.22-2.59,2.87-4.68,2.7-3.6-.31-6.5,1.85-9.79,2.58-.69.16-1.21,1-2,1.73,1.52,1.29,2.85,2.93,1.29,4.61a4.18,4.18,0,0,1-3.87.73c-1-.48-1.44-2.26-2.39-4-3.85-.85-7.67.56-11.5,3.66a18.6,18.6,0,0,1,2.7,1.94c.83.89,1.93,2,2,3,0,.67-1.53,1.49-2.45,2.16a3.43,3.43,0,0,1-1.32.36c-3.3.72-3.37.69-3.44-2.69,0-1.31-.36-2-1.88-1.59a17.28,17.28,0,0,0-2.88.61c-1.33.67-1.85,1.65-.24,2.75a5.64,5.64,0,0,1,1.83,1.73,3.31,3.31,0,0,1,.37,2.52,2.71,2.71,0,0,1-2.26,1,3.7,3.7,0,0,1-2.23-1.4c-.47-.61-.36-1.64-.72-2.38a2.32,2.32,0,0,0-1.29-1.07c-.2-.07-.69.59-1,1-1,1.33-2.1,2.64-3,4s-.67,2.29,1.07,3,3.92.86,4.2,3.79a2.51,2.51,0,0,1-1.39,2.89c-2.37,1.39-5.79.46-8.3-2.05a47.89,47.89,0,0,0-4.19-3.88c-2.82-2.22-4.58-1.92-6.81.72.64,2.29,1.3,4.37,1.74,6.5.08.39-.92,1.46-1.21,1.39-3.51-.87-6.05,1-8.66,2.81-2.1,1.46-4.22,2.9-6.43,4.18a13.67,13.67,0,0,1-3.19.91,20.33,20.33,0,0,1,1.77,2.81,2.74,2.74,0,0,1-1.15,3.75c-1,.61-1.8,1.43-2.72,2.13-2,1.52-3.61,1.2-4.92-.95s-2.11-2.29-3.94-.73a7,7,0,0,0-2.36,2.72c-.62,2-1.72,1.85-3.16,1.27-.42-.17-.82-.4-1.24-.6-2.11-1-3.43-.3-3.73,2-.22,1.68-.26,3.39-.6,5a3.22,3.22,0,0,1-1.3,2.12c-.5.24-1.46-.45-2.19-.78a2.34,2.34,0,0,1-.68-.62c-2.3-2.45-2.15-2.35-4.05.32a7.36,7.36,0,0,1-3.63,2.53c-2.84.88-5.3,1.8-4.73,5.59-3.63,0-7,0-10.38,0-.25,0-.54-.49-.71-.81a2.4,2.4,0,0,1,1.52-3.62c1.1-.3,2.34-.1,3.42-.43.86-.25,2-.84,2.24-1.53a3.44,3.44,0,0,0-.81-2.69c-1.36-1.61-4.7-1.2-6.23.34a30.75,30.75,0,0,1-4.37,3.5c-1,.7-2.25,1-3.23,1.73-1.48,1.07-3.34,1.9-2.81,4.45a2.89,2.89,0,0,1-1.47,2.34c-1.72.63-3.69,1.46-5.33-.25-1.22-1.28-2.3-2.68-3.47-4s-2.52-2.07-4.54-.86a33.4,33.4,0,0,1-6.88,2.79,3.27,3.27,0,0,1-2.29-.68,3,3,0,0,0-4.41.82c-1.22,2.13-1.87,2.24-3.78.53-1.18-1.05-2.13-2.49-4.05-2-.36.09-.9.07-1.05.3-1.42,2.15-3.86,2.22-5.92,3.12a6.1,6.1,0,0,0-2.9,2.86c-.86,1.94-2.2,2.36-3.62,1.4-3-2-5.55-3.09-8.12.53a10.24,10.24,0,0,1-3.11,2.3,3.62,3.62,0,0,1-2.19.75c-.41-.07-.81-1.16-.91-1.84-.36-2.33-.58-4.69-.86-7.18-3.1-1.22-5.91,0-8.31,2-4.21,3.45-8.65,3.55-13.42,1.58-1.88-.77-3.74-1.61-5.66-2.26-2.61-.87-5.07.72-4.92,3.63-2.52-.5-5-.81-7.3-1.48-3.33-1-6.43-1.59-9.63.69-1.06.76-3,.63-4.47.4a76.61,76.61,0,0,1-7.54-1.83c-3.3-.86-6.33-.75-8.42,2.41-1.12,1.71-2.72.94-3.93.67-1.83-.4-2.87-.37-3.42,1.71-.4,1.55-2.13,1.39-3.55-.3-.37-.45-.39-1.22-.79-1.62a2.21,2.21,0,0,0-1.62-.77c-.42.09-.86.9-1,1.45-.25,1.35-.08,2.82-.53,4.08a3.54,3.54,0,0,1-2.11,2.06c-3.27.61-6.59.87-9.88,1.33a1.73,1.73,0,0,0-1,.73c-1.48,2.16-3.49,2.44-5.89,2-2-.38-4-.42-6-.71-2.24-.32-2.76,1.23-3.07,2.84s-1.06,2.83-2.61,2.7a20.19,20.19,0,0,1-5.82-1.39c-1.84-.74-3.46-1.9-3.93-4.16-.17-.8-1.1-2.18-1.36-2.11a7.84,7.84,0,0,0-2.86,1.64c-.67.57-1,1.62-1.69,2.11a4.91,4.91,0,0,1-2.91,1.12c-2.33-.26-3.72,1.21-5.32,2.35-.75.54-1.38,1.23-2.13,1.76-3.45,2.44-3.74,2.31-6-1.21a3,3,0,0,0-2.42-.85,6.18,6.18,0,0,0-2.42,1.23c-1.28.79-2.45,1.16-3.73-.08s-2-2.6-1-4.26a2.66,2.66,0,0,0-.34-3.61,7.81,7.81,0,0,1-1.63-4.53c-.12-3.54-2.33-5.08-5.18-5.9s-5.07-1.93-4.92-5.53c.08-1.9-1.94-2.75-4.29-1.58-3.81,1.88-7.52,4-11.13,6.22-3,1.83-5.94,3.69-9.51,3.4a11.39,11.39,0,0,1-5.14-2,10.15,10.15,0,0,0-5.88-2c-3.79,0-7.57-.57-11.36-.74a3.23,3.23,0,0,0-1.95,1.19c-.61.65-.87,1.63-1.48,2.28-1.66,1.76-2.27,1.46-3.46-.56a6,6,0,0,0-3.15-2,33.22,33.22,0,0,0-4.07-.67c-4.39-.94-4.51-6.47-2.85-9.19-2.55-3.4-6.39-3.31-10-3.56-2.87-.19-5.82.32-8.66,0-2.58-.32-5-1.66-7.62-2a9.39,9.39,0,0,0-4.83,1.26c-1.17.57-1.14,1.66-.62,3.12.34,1-.66,3.15-1.66,3.72-1.26.71-2.38-.33-2.66-2.12-.45-2.88-1-3-3.59-1.77a10.47,10.47,0,0,1-2.22,1.11c-1.16.26-2.94.77-3.45.23-.83-.86-1-2.49-1.12-3.83-.06-.84.67-1.71.76-2.6.26-2.79-.67-4.08-4.59-5.28a12,12,0,0,0-5.82-.23c-5.29,1.16-8.6-.19-11-4.87-.27-.52-1-.83-1.58-1.15-5.12-2.87-10.26-5.72-15.38-8.58A6.26,6.26,0,0,1,145.67,471.28ZM813,269.27c-.75-.83-1.56-2.27-2-2.17-1.08.24-2,1.23-3,1.93-.11.07-.09.29-.17.42-1.7,2.92-3.44,5.82-5.07,8.78-.27.5-.34,1.56,0,1.82a5.3,5.3,0,0,0,2.54,1.14c.27,0,.94-1.05,1-1.68.58-3.72,2.05-6.89,5.26-9.08C812,270.14,812.35,269.79,813,269.27Z" transform="translate(0)"/><path d="M555.82,43.55l1.08,1.63a5.17,5.17,0,0,1-1.25.7,14.69,14.69,0,0,1-2.94.43c-.52,0-1.51-.34-1.51-.53,0-2.84-2.22-2.09-3.76-2.4-.36-.08-.84.17-1.11,0a4.54,4.54,0,0,1-.94-1.09c.43-.15,1-.54,1.27-.41,2.39,1,4.24.31,6-1.85-.92-.68-1.81-1.34-2.68-2-1.7-1.3-1.71-2.53-.11-3.88a46.33,46.33,0,0,1,4.35-3.73c1.07-.7,2.79-1.47,3.71-1.06a5.19,5.19,0,0,1,2.21,3.43c.75,3.86,1.92,5.14,5.58,5.65A2.05,2.05,0,0,1,567,40c-.1.77-.74,2-1.34,2.09-1.78.38-3.67.25-5.5.49C558.77,42.76,557.41,43.19,555.82,43.55Z" transform="translate(0)"/><path d="M221.09,498.19c3.58.08,4.51,1.59,3.68,4.19a3.32,3.32,0,0,0,.67,2.56,17.24,17.24,0,0,0,2.6,2.16c2.05,1.8,2,3.84-.25,5.42-3,2.16-6.78,1.61-8.63-1.18s-2.76-5.86-3.86-8.91a2.64,2.64,0,0,1,1.13-2.23A41,41,0,0,1,221.09,498.19Z" transform="translate(0)"/><path d="M688.41,439.55c-2.38,1.2-2.89,2.36-1.88,5.71.56,1.85-.41,3.63-2.25,3.49a15.29,15.29,0,0,1-5.59-1.51c-.8-.4-1.37-2-1.34-3.06a3,3,0,0,1,1.89-2.11c2.26-.46,2.55-1.66,3.13-3.78,1-3.65,3.23-7,5-10.38a1.15,1.15,0,0,1,1-.38c.94.19,2.44.29,2.65.83a6.29,6.29,0,0,1,.05,3.65C690.44,434.29,689.51,436.49,688.41,439.55Z" transform="translate(0)"/><path d="M667.2,453a22.59,22.59,0,0,1-2.75,2.08c-2.3,1.22-2.39,1.77-.28,3.41a10.68,10.68,0,0,1,2,1.53c.66.88,1.74,2.32,1.45,2.86a10.73,10.73,0,0,1-3.23,2.92c-.15.11-.88-.52-1.32-.85a47.26,47.26,0,0,0-5.3-3.91c-2.89-1.57-3.8-3.91-2.08-6.47.21-.31.53-.84.72-.81,2.94.48,4.35-2.12,6.55-3.1a3,3,0,0,1,2.29-.29C666,450.84,666.37,451.85,667.2,453Z" transform="translate(0)"/><path d="M576.86,499.45c-2.28-.8-3,1.68-4.25,3.41-1.68,2.37-3.25,2.56-4.83.19a5,5,0,0,1-.23-3.58c.13-.49,1.54-.82,2.4-.93,1.66-.22,2.74-.79,3.17-2.62a37.86,37.86,0,0,1,2-5.78c.43-1,3.77-1.21,5-.12,2.15,2,2.84,3.44-.12,5.59C578.81,496.49,578.05,498,576.86,499.45Z" transform="translate(0)"/><path d="M667.66,476.3c-.35-3.4,0-3.88,3.23-4.72a11.73,11.73,0,0,0,3.46-1.06,29.36,29.36,0,0,0,4.23-3.58c.55-.53.74-1.87,1.22-1.93a12.92,12.92,0,0,1,4.15.26c.35.07.72,1,.73,1.5a8.58,8.58,0,0,1-.36,3.41,4.39,4.39,0,0,1-2,2.28,72.8,72.8,0,0,1-8.82,3.25A33,33,0,0,1,667.66,476.3Z" transform="translate(0)"/><path d="M651.88,462.17c2.86.57,5.27.55,6.26,3.64.25.76,1.44,1.27,2.26,1.8,1.53,1,3.47,2.21,2.51,4-.76,1.43-2.86,2.24-4.5,3-.34.16-1.36-1-2-1.6a31.11,31.11,0,0,0-2.52-2.61c-1-.78-2.3-1.23-3.38-1.95-1.42-.95-2.69-2.28-1.72-4C649.38,463.47,650.82,462.93,651.88,462.17Z" transform="translate(0)"/><path d="M368,523.16c3.21,0,4.12,1,3.89,4.21-.3,4.32-4.26,7.54-8.19,6.67-2.68-.6-3.67-2.26-2.91-4.91C361.92,525,364.14,523.14,368,523.16Z" transform="translate(0)"/><path d="M290,521.06c-.71.88-1.25,2.08-2.17,2.59-3.08,1.69-7.27-.78-7.52-4.24-.1-1.5-.67-3.09-.33-4.47.31-1.2,1.47-2.86,2.49-3.05a3.52,3.52,0,0,1,4.19,1.93c.85,2,1.89,4,2.82,6a2.65,2.65,0,0,1,.12.9Z" transform="translate(0)"/><path d="M727,429.64c.67,3.8.2,4.66-2.87,6.43-1.45.84-2.61,2.24-4.11,2.9a9.6,9.6,0,0,1-4.76.84c-2.11-.25-2.55-1.75-2-4.5.43-2.08,2-1.77,3.39-1.7.83,0,1.71.46,2.46.28a2.42,2.42,0,0,0,1.55-1.47c.53-2.76,1-3.21,3.73-3Z" transform="translate(0)"/><path d="M429.29,522.4c2.85-.22,3.95,1,4.46,2.59s-.45,2.71-1.88,3.5a64.66,64.66,0,0,1-5.64,3.24c-.82.35-2.51.17-3-.41-.77-1-1.6-3.36-1.17-3.74A75.2,75.2,0,0,1,429.29,522.4Z" transform="translate(0)"/><path d="M344,535.49c-.91,1.94-1.67,4-2.77,5.82a3.26,3.26,0,0,1-4.47,1.1c-1-.59-1.56-2.49-1.61-3.83-.12-3.27,1.26-5.48,4.88-6.17C343,531.86,343.4,531.94,344,535.49Z" transform="translate(0)"/><path d="M734.59,126.82c0-2.51,1.77-4.89,3.67-5,2.06-.08,4.23,2.42,4.21,4.83,0,3.51-1.05,4.8-3.76,4.77C735.76,131.43,734.57,130.09,734.59,126.82Z" transform="translate(0)"/><path d="M612.35,493.33c-2.09.07-4.17.37-4.85-2.5-.41-1.69.18-2.76,1.69-3.21a9.74,9.74,0,0,1,7.74,1,2.4,2.4,0,0,1,1,2A4.06,4.06,0,0,1,616,493,12.47,12.47,0,0,1,612.35,493.33Z" transform="translate(0)"/><path d="M317.11,51.76c3.12,0,4.09,1.31,3.71,5.09,0,.3-.19.58-.24.88-.19,1.33.4,3.13-2,3.05s-4.37-1.67-4.52-3.67c-.06-.76,0-1.53,0-2.3C314,52.3,314.58,51.77,317.11,51.76Z" transform="translate(0)"/><path d="M458.82,532.12c0,2.12-1.11,3.45-3,3.51-2.09.07-4.35-1.57-4.4-3.19-.11-3.45,1.2-5.45,3.57-5.43S458.79,528.73,458.82,532.12Z" transform="translate(0)"/><path d="M725.44,418.6c-.84.61-1.76,1.77-2.81,1.92a4.79,4.79,0,0,1-3.56-1.08c-1.1-1.08-1.53-2.79-3.55-2.87-.3,0-.89-1.3-.76-1.86a2.69,2.69,0,0,1,1.47-1.77c1.59-.46,8.2,3,8.85,4.48A11.35,11.35,0,0,1,725.44,418.6Z" transform="translate(0)"/><path d="M22.53,314.61c3.62,0,4.81,1.23,4.64,5-.08,1.7-1.3,2.24-2.88,2.23-3.35,0-5-1.29-5-3.95C19.34,314.8,19.53,314.6,22.53,314.61Z" transform="translate(0)"/><path d="M292.09,514.59c-2.58,0-6.82-4.12-6.41-5.94a3.3,3.3,0,0,1,2.11-2c3-.72,6.94,3.2,6.22,6.15C293.8,513.64,292.51,514.22,292.09,514.59Z" transform="translate(0)"/><path d="M29.86,335.43c-3.25-.39-4.31-1.46-4.2-4.53,0-.91.19-1.81.28-2.71,1.47.19,2.95.31,4.4.61a2,2,0,0,1,1.21,1c.61,1.31,1.43,2.69,1.4,4C32.94,334.4,31,334.91,29.86,335.43Z" transform="translate(0)"/><path d="M648.21,75.45c-.84,1-1.47,2.52-2.52,2.93a2.54,2.54,0,0,1-3.36-1.95,30.17,30.17,0,0,1-.54-6.22c0-1,2.92-1.21,3.79,0A37.19,37.19,0,0,1,648.21,75.45Z" transform="translate(0)"/><path d="M424.91,39.33c3.15,0,4.62,1.33,4.7,4.21,0,.35-.22,1-.4,1a28.55,28.55,0,0,1-5.87.57c-1.61-.11-2-1.59-2-3.13C421.47,39.8,422.13,39.3,424.91,39.33Z" transform="translate(0)"/><path d="M222.46,79.85c.08,1.69-.7,3.22-2.28,3.16s-4,.24-4.92-2a8.47,8.47,0,0,1-.49-2.46c-.11-1.52.8-2,2.22-1.42a5.65,5.65,0,0,0,3.06.59C222.13,77.22,222.36,78.36,222.46,79.85Z" transform="translate(0)"/><path d="M116.15,175.13a28.55,28.55,0,0,1,3.85-3.78,2.37,2.37,0,0,1,3.76,1.09c.61,1.37-.38,4-1.63,4.58C120,178,118.38,177,116.15,175.13Z" transform="translate(0)"/><path d="M817.51,297.93c-3.21-.13-3.9-.84-3.84-3.46.05-1.94,1.18-2.5,2.85-2.49,1.86,0,4.16,2.08,4,3.7C820.32,297.58,819.32,298.58,817.51,297.93Z" transform="translate(0)"/><path d="M392.64,38.29c0-1.91,1.89-4.06,3.71-4a2.57,2.57,0,0,1,2.7,2.81c.07,2.19-1.34,4-3.12,4.1A3.53,3.53,0,0,1,392.64,38.29Z" transform="translate(0)"/><path d="M354.29,58.45c-.4,2.21-2.15,4.38-3.63,4.47s-2.73-1.41-2.77-3.27c0-2.13,1.39-4.07,3.16-3.66C352.26,56.27,353.22,57.59,354.29,58.45Z" transform="translate(0)"/><path d="M687,457.26c-2.62-.1-3.76-1.21-3.58-3.64.13-1.77,1.65-2.31,3.15-2.4a3.1,3.1,0,0,1,3.18,3.18C689.51,456.15,688.84,457.54,687,457.26Z" transform="translate(0)"/><path d="M73.86,399.49c.18-1.28.76-2.55,2.61-2.62,1.49-.05,3.41,2,3.42,3.54,0,1.2-2.42,3.14-3.89,3.11C74.74,403.49,73.81,401.87,73.86,399.49Z" transform="translate(0)"/><path d="M370.85,34.26c-1.86.25-3.29-.34-3.48-2.52-.11-1.26,2.53-2.84,4.54-2.72,2.28.14,1.76,1.93,1.79,3.29C373.73,34.2,372.57,34.61,370.85,34.26Z" transform="translate(0)"/><path d="M511.54,36a16.39,16.39,0,0,1-2.93-.07c-.19,0-.41-1.27-.28-1.33a16.61,16.61,0,0,1,2.25-.79,2.9,2.9,0,0,0,1.29-.68c1-1.34,2.12-2.36,3.75-.83,1.41,1.32.6,2.57-.37,3.56C514,37.1,512.56,37.84,511.54,36Z" transform="translate(0)"/><path d="M534.88,45.27c-.37-1.79-.77-3.73,1.3-4.3a5.84,5.84,0,0,1,4.06.7c1.36.8.66,2.44-.1,3.27C538.59,46.62,536.66,45.77,534.88,45.27Z" transform="translate(0)"/><path d="M412.92,47.23c-2.23,0-3.39-.31-3.47-2.37a2.72,2.72,0,0,1,2.46-3.12c1.61-.27,3.21,1.68,3.2,3.47C415.11,47.24,413.75,47.27,412.92,47.23Z" transform="translate(0)"/><path d="M792.28,318.55c.74,1.54-.45,2.18-1.8,2.41s-3.13-1.89-3.13-3.83,1.31-2,2.68-2C792.51,315,792.39,316.63,792.28,318.55Z" transform="translate(0)"/><path d="M295.9,66.77c0-2.28.9-3.16,2.88-3.06,1.55.08,2.73.65,2.76,2.42,0,1.51-1.88,3.14-3.51,3S295.57,68.35,295.9,66.77Z" transform="translate(0)"/><path d="M843.58,227.69a8.2,8.2,0,0,1-1.64-2.53c-.3-1.29,1.6-2.68,3.19-2.52,1.42.14,2.57.75,2.44,2.42C847.43,227,846,227.42,843.58,227.69Z" transform="translate(0)"/><path d="M783.59,355.55c-1.75.67-1.78-.5-1.83-1.79-.08-1.92.76-3.17,2.66-3.31a2.12,2.12,0,0,1,2.37,2.46C786.72,354.87,785.76,355.92,783.59,355.55Z" transform="translate(0)"/><path d="M45.79,405.32c-.43,2.2-1.8,3.3-3.7,3.21a2.23,2.23,0,0,1-2.41-2.45c0-2.75,2.27-2.26,3.81-2.35C44.22,403.69,45,404.76,45.79,405.32Z" transform="translate(0)"/><path d="M453.33,36.25c-.66,1.69,0,3.83-2.17,3.43-1.27-.25-2.37-1.44-3.55-2.2a14.93,14.93,0,0,1,3.33-2.64C451.48,34.62,452.59,35.78,453.33,36.25Z" transform="translate(0)"/><path d="M118.92,453.41c-.62-.72-1.8-1.52-1.72-2.14.19-1.4,0-3.48,2.49-3.36,1.62.07,2.33.72,2.25,2.42s-.4,2.94-2.54,2.59Z" transform="translate(0)"/><path d="M231.3,80.26c.1-.16.3-.85.74-1.07,1.34-.68,5.43,2.18,5.31,3.7a1.81,1.81,0,0,1-.72,1.29C235.23,84.91,231.3,82.29,231.3,80.26Z" transform="translate(0)"/><path d="M683,79.92c1.19-.28,1.62.5,1.59,1.77,0,1.51-1.88,3.25-3.41,2.89-.74-.17-1.81-1-1.86-1.67C679.21,81,680.78,79.8,683,79.92Z" transform="translate(0)"/><path d="M669.34,84.6c-.7,4.72-.91,5-3.06,4.66-2.39-.37-1.48-2.2-1.41-3.43C664.94,84.32,666.75,83.87,669.34,84.6Z" transform="translate(0)"/><path d="M24,304.16c-.16-1.68.82-2.83,2.31-2.6.95.15,2.37,1.56,2.36,2.39a3.56,3.56,0,0,1-2.3,2.51A1.9,1.9,0,0,1,24,304.16Z" transform="translate(0)"/><path d="M769.32,365.24c-1.5,1.28-2.4,2.64-3.45,2.78-.72.09-1.66-1.53-2.5-2.38.86-.82,1.61-2.05,2.62-2.32C766.7,363.14,767.75,364.28,769.32,365.24Z" transform="translate(0)"/><path d="M7.78,349.77c-1.52.3-2.34-.72-2.19-2.17.08-.78,1.16-2.1,1.69-2.06,1.27.12,3.33-.37,3.27,2.08C10.51,349.34,9.48,349.81,7.78,349.77Z" transform="translate(0)"/><path d="M124.08,163.81c2,.65,2.91,1.48,2.52,3a3.92,3.92,0,0,1-1.48,1.85,34.77,34.77,0,0,1-3.52-2.46Z" transform="translate(0)"/><path d="M637.17,74.9c.71,1,1.69,2,1.51,2.34-.57,1-1.5,2.41-2.42,2.5s-1.9-1.26-2.86-2Z" transform="translate(0)"/><path d="M803.12,312.1c-.74.46-1.45,1.24-2.22,1.33-1.59.16-1.93-1-2-2.4a1.66,1.66,0,0,1,1.92-1.93C802.34,309.15,802.93,310.13,803.12,312.1Z" transform="translate(0)"/><path d="M202.13,99.53l2.14,2.41a10.6,10.6,0,0,1-2.83,2c-.48.15-1.37-1-2.08-1.6Z" transform="translate(0)"/><path d="M319,61.78c1.1,1.28,2.29,2.06,2.23,2.74-.07.88-1.13,1.68-1.77,2.51a12.66,12.66,0,0,1-2.23-2.67C317.07,64,318.08,63.08,319,61.78Z" transform="translate(0)"/><path d="M498.5,31.26c1,.92,2,1.45,2.28,2.23.13.43-1.24,1.9-1.6,1.79a10.81,10.81,0,0,1-2.83-1.84Z" transform="translate(0)"/><path d="M635.49,495.05a10.66,10.66,0,0,1-1.5-2.36c-.07-.2,1.15-.84,1.77-1.28l1,3Z" transform="translate(0)"/><polyline class="cls-10" points="200.94 76.69 207.23 72.96 213.03 68.3 219.8 65.39 225.99 61.28 232.53 57.82 239.16 54.51 246.51 53.07 253.62 51.1 260.64 48.89 267.66 46.7 274.17 42.9 281.76 42.52 288.63 39.85 295.32 36.58 302.39 34.55 309.11 31.43 316.62 30.67 323.52 29.32 329.47 25.21 335.91 22.46 342.9 21.45 349.96 20.81 356.63 18.97 363.4 17.56 369.72 13.6 376.76 13.43 383.69 12.53 390.66 11.64 397.6 13.83 404.55 13.62 411.44 14.49 418.74 15.18 426.1 14.94 433.29 17.49 440.65 17.47 447.97 15.94 455.29 15.9 462.69 17.08 469.95 15.86 477.26 15.36 484.46 13.53 491.91 14.77 499.14 13.37 506.41 12.45 513.69 11.5 520.98 10.4 528.32 10.05 535.66 11.49 543.01 10.85 550.33 11.51 557.7 11.43 564.85 13.66 572.03 15.1 579.44 15.06 586.63 16.51 593.62 18.88 601.14 18.87 607.91 22 615.34 22.67 622.1 25.66 629.13 27.73 636.25 29.63 642.65 33.41 650.03 34.78 655.77 39.92 663.61 40.49 670.17 43.84 676.57 47.5 682.42 52.08 689.21 55.07 695.35 59.44 700.09 65.67 706.95 68.98 713.6 72.63 718.45 78.58 723.91 83.77 731.41 86.19 736.44 92.07 742.9 95.91 749.13 98.84 754.39 103.24 760.07 107.09 764.25 112.72 770.41 116.03 775.38 120.74 779.82 126.12 786.42 129.04 791.71 133.79 797.58 137.71 803.98 140.65 810.13 144.01 817.34 145.35 823.51 148.74 829.13 153.04 835.15 156.73 839.75 162.19 844.91 166.9 849.46 172.47 850.94 179.58 854.12 186.02 854.3 193.2 854.79 200.29 855.74 207.41 856.64 214.54 857.92 221.6 857.44 228.81 859.1 235.84 858 243.08 860.13 250.22 860.12 257.45 857.84 264.47 857.69 271.67 855.9 278.64 853.53 285.44 851.69 292.33 849.67 299.17 848.74 306.34 845.79 312.9 843.67 319.59 841.9 326.47 838.98 332.89 836.85 339.77 831.9 345.09 829.23 351.78 824.63 357.2 820.02 362.56 815.37 367.88 810.63 373.12 806.02 378.47 802.81 384.92 797.67 390.95 796.05 398.87 792.44 405.81 787.71 412.13 783.82 418.85 779.28 425.47 771.65 428.38 765.41 433.02 759.22 437.82 751.82 440.86 747.28 446.6 741.62 450.83 736.48 455.69 731.06 460.23 726.26 465.46 720.05 469.13 715.78 474.98 709.15 478.05 704.05 482.96 699.03 488.16 691.95 490.18 686.39 494.27 680.01 497.01 674.41 501.04 668.88 505.16 662.89 508.53 657.51 513 651.68 516.71 644.52 517.82 639.19 522.69 632.54 524.71 625.48 525.72 619.02 528.39 612.45 530.85 605.92 533.51 599.18 535.42 591.84 534.84 585.36 537.7 578.73 539.9 571.57 540.35 565.13 543.86 558.06 545.56 551.16 547.76 544.42 550.31 538 553.62 531.87 557.84 524.51 558.5 517.94 562.05 510.55 561.92 503.96 563.44 497.25 563.28 490.61 563.93 483.83 562.19 477.51 565.14 471.05 566.42 464.68 568.81 458.13 570.72 451.84 573.41 444.77 573.58 438.49 576.43 431.86 578.36 424.93 577.63 417.82 579.03 410.66 578.06 403.51 578.17 396.32 579.04 389.26 577.22 382.06 577.76 374.91 577.29 367.73 577.25 360.87 574.12 353.57 575.08 346.45 574.43 339.33 573.85 332.24 572.92 325.47 570.19 318.38 571.09 311.44 569.59 304.41 570.52 297.43 569.8 290.4 571.45 283.48 568.46 276.39 570.99 269.54 568.27 262.44 569.21 255.51 568.15 248.6 566.96 241.5 564.63 234 564.43 226.8 562.67 219.28 562.35 212.63 558.21 205.29 557.05 197.75 556.57 190.89 553.56 183.71 551.71 177.04 548.28 169.53 547.31 163.21 543.11 156.19 540.77 149.72 537.44 142.96 534.81 136.44 531.68 129.35 529.49 123.51 525.06 117.19 521.11 112.09 514.76 107.97 507.93 104.66 500.75 100.43 494.2 95.56 488.52 91.24 482.38 86.95 476.19 82.45 470.2 76.59 465.24 72.87 458.65 69.63 451.87 66.41 445.15 64.81 437.9 62.2 431.36 60.52 424.51 60.18 417.49 60.17 410.13 53.18 406.93 45.51 406.25 39.54 401.67 33.84 397.13 29.25 391.49 24.68 385.41 22.94 378.13 22.94 370.48 20.45 363.48 18.17 356.65 15.94 349.81 12.76 343.16 14.12 335.56 10.67 328.79 12.69 321.45 11.71 314.33 12.83 307.25 12.25 299.91 14.13 293.21 14.9 286.3 15.86 279.41 19.1 273.08 21.26 266.52 22.97 259.83 25.7 253.48 27.47 246.76 30.54 240.57 32.78 233.96 37.39 228.58 40.74 222.56 42.39 215.61 45.45 209.47 49.91 204.01 53.17 197.96 56.9 192.17 60.04 186.1 62.39 179.51 66.48 173.97 70.14 168.06 75.21 163.32 80.64 159.07 86.57 155.06 91.69 150.1 96.95 145.31 102.2 140.52 106.52 134.68 111.9 129.99 117.95 126.13 124.47 122.99 129.45 117.74 135.79 114.5 141 110.09 146.37 105.2 151.17 99.37 157.71 95.61 165.09 94.03 171.74 90.49 179.16 89.48 185.86 86.1 193.68 86.03 200.33 82.51 206.68 78.4 210.04 71.62"/><path class="cls-11" d="M577.11,128.68c1.31,2,3.79,2.39,3.3,5.16-2.33-1-2.06,1.35-2.64,1.85a44.07,44.07,0,0,1,2,4.5c.65,2,4.89,4.39,7.28,4,2.64-.46,5.27-1.12,7.93-1.33a132,132,0,0,1,13.48-.56c1.62,0,3.19,1.37,4.85,1.92a4,4,0,0,0,2.27-.16c1.61-.5,3.13-1.41,4.77-1.68a26.69,26.69,0,0,1,6.56-.26,10.38,10.38,0,0,1,3.78,1.55c2.08,1.17,3.92,2.73,6.67,2.22.63-.11,2,1.19,2.25,2,.71,3,3.25,4.06,5.31,5.58,1.41,1.05,2.48,2,2.63,3.92.35,4.3.91,8.58,1.28,12.87a3.74,3.74,0,0,1-.77,1.82c-1.39,2.38-2.71,4.81-4.27,7.09-1.2,1.75-2.73,3.28-4.07,4.95-.73.91-1.36,1.9-2,2.87-1.88,2.83-5.3,2.69-7.89,4.14-3.35,1.88-6.61,3.93-9.9,5.91-.16.1-.35.44-.37.44-1.87-1.29-2.25,1.66-3.59,1.32a16.7,16.7,0,0,1-3.55-1.69c-.72-.38-1.39-.87-2.18-1.37-1.5,1.81-3.11,1.72-4.94.65-.48-.29-1.38.22-1.94,0-7.09-2.86-12.92.79-18.94,3.54-5.44,2.48-5.58,2.22-9.89-1.91-2.65-2.55-2.46-5.77-2.77-8.73-.45-4.31-1.59-8.7,0-13.11.28-.77-.81-2.11-1.41-3.1-1.29-2.12-1.9-4.15-.32-6.45.75-1.09.19-2.87,2.09-3.45a7,7,0,0,1,8.18,3.78,2.79,2.79,0,0,0,1.11,1.45c3,1.39,6.13,2.7,9.22,4a4.23,4.23,0,0,0,1.88.12c2-.17,3.21,1.1,2.39,2.95s-.15,2.23,1.35,2.84c2.53,1,4.64,1,6.45-1.3.35-.45,1.1-.58,1.75-.91l3.55,2.8c.25,1.57-1.49,4.1,1.33,4.55,2,.33,1.46-2,1.89-3.43,1.69-.3,3.45-.66,5.23-.92a1.77,1.77,0,0,1,1.35.29c.88.83,1.79,1.6,2.85.54s2.45-2.36,1.45-4.31a1.79,1.79,0,0,1,.09-1.7,5.52,5.52,0,0,1,1.26,1c.72,1,1.72,1.42,2.7.78s2.86-.59,2.57-2.87a23.37,23.37,0,0,1,.5-6.09,4.1,4.1,0,0,1,1-2.28c3.25-2.93,3.3-3.74,0-6.7a6.63,6.63,0,0,0-2.22-1.49c-3-1-5.42-3.36-8.83-3.09a3.85,3.85,0,0,1-1.91-.77c-1.83-1-3.52-2.13-5.82-.95-.73.37-2-.33-3-.53-2.63,1-5.42,2.11-8.24,3.15a3.22,3.22,0,0,1-1.24,0,74,74,0,0,0-8.79-.34c-3.11.23-5.6-1-8.12-2.42a39,39,0,0,0-4.05-2.12,2.19,2.19,0,0,0-1.92.14c-1,1-1.63.3-2.29-.26-5.47-4.64-7.49-11.1-8.75-17.75-.37-1.91.89-4.18,1.58-6.21s1.66-4.24,2.57-6.32a3.49,3.49,0,0,1,1.23-1.58c4.47-2.6,9.1-4.93,13.43-7.74,2.17-1.41,4.13-.68,6.22-.6.53,0,1.38.15,1.54-.11,1.42-2.29,3.52-1,5.33-1.11s3.6.26,5.26-.16c2.19-.55,3.78.37,5.33,1.45a6.62,6.62,0,0,0,5.1,1.09c2-.32,3.73-.31,5.21,1.53,1,1.19,2.24.58,3-.64,1.15-1.84,2.3-3.69,3.38-5.58,1.19-2.1,2.91-1.38,4.62-1a10,10,0,0,0,1.62.14,54.09,54.09,0,0,0,3.88,6.6,4.69,4.69,0,0,1,.84,4.32c-.42,1.88-1.65,4-1.14,5.59.85,2.6.6,5.69,2.82,7.84.76.74.27,3.34-.63,4.09s-2.88.48-3.87-.48a17.77,17.77,0,0,0-3.94-3c-2.27-1.22-3.41-3.24-4.72-5.27a10.2,10.2,0,0,0-3.27-3c-2.52-1.54-5.19-2.83-7.79-4.26-1.59-.87-3.06-1.75-5-.86-3.13,1.4-6.38,0-9.55-.05A21.91,21.91,0,0,0,587,118.16c-1.62.84-2.78,2.6-4.08,4C580.88,124.39,578.9,126.66,577.11,128.68Z" transform="translate(0)"/><path class="cls-11" d="M473.43,184.21c3.29,3.61,3.29,3.61,1.61,5.59.36.46.72.95,1.11,1.42a13.51,13.51,0,0,1,1.57,2.72c1.28,2.51,2.61,5.4,5.72,6.4,4.38,1.41,8.79,2.75,13.19,4.13a3.68,3.68,0,0,1,1.48.69c1.55,1.47,3.26,1.65,5.31,1.29,1.18-.2,2.5.39,4.28.72a13.2,13.2,0,0,1,8.89-3.57,4.91,4.91,0,0,0,4.67-4.49c.51-3.22,2.19-5.34,4.72-7.27,1.69-1.29,2.76-3.38,4.16-5.08a6.27,6.27,0,0,1,1.8-1.69c.87-.43,2.34-1,2.79-.65a12.29,12.29,0,0,1,3.72,4.4c1.2,3.05-1.43,5.31-2.44,7.92-1.31,3.4-3.86,5.93-5.75,8.86a13.8,13.8,0,0,1-8.35,5.94A15.12,15.12,0,0,0,519,212.6c-1,.57-1.9,1.47-2.93,2-1.33.74-2.75,1.31-4.14,1.94-.67.31-1.71.42-1.95.93-1,2.13-2.78,1.66-4.17,1-2.45-1.15-4.91-1-7.44-.83-1.79.12-3.59.13-5.37.37a9.11,9.11,0,0,1-6.25-1.74c-1.34-.85-3.3-1-3.73-3.09-.09-.41-1.33-.58-1.81-.77-.82-.81-1.41-1.85-2.26-2.14a5.28,5.28,0,0,1-3.64-4,4,4,0,0,0-1.81-2.49c-5.1-2-7.5-6-8.81-11-.84-3.19-1.42-6.46-2.5-9.57-.56-1.6-2-2.9-3-4.36a21.11,21.11,0,0,1-2.21-3.54,1.79,1.79,0,0,1,1-2.3,5.61,5.61,0,0,0,2.48-5.74,9.79,9.79,0,0,0-.46-2.24c-1.14-3.05,1.38-5.33,1.66-8.08a48.72,48.72,0,0,1,.86-4.8,2.14,2.14,0,0,1,.44-1.08c2.49-2.33,5-4.65,7.55-6.92.71-.64,1.64-1,2.36-1.65a2.37,2.37,0,0,0,.74-1.4c.39-3.35,1.21-4.12,4.34-5,.93-.26,1.58-1.54,2.49-2.49,1.3,1.27,2.54,1.62,3.12-1,.1-.44,1.23-.9,1.9-.94q11.4-.65,22.81-1.11c.58,0,1.17.45,1.77.6.88.23,1.78.36,2.66.59.42.11,1.14.3,1.17.52.24,1.92,1.67,1.44,2.86,1.58.66.07,1.72.24,1.86.63,1,2.9,3.54,4.14,5.85,5.69a9.85,9.85,0,0,1,2.12,2.79c1.51,2.23,2.93,4.52,4.51,6.69.58.81,1.6,1.28,2.26,2a6.75,6.75,0,0,1,.93,2c.12.29,0,.73.22.9,2.06,1.84,1.28,3.77.45,5.88a7.87,7.87,0,0,0-.18,3.72c.23,1.77.72,3.51,1.2,5.68-3.24-.22-5.63,1.43-8.61.12-2.12-.94-4.23.77-5.93,2.42-3.34,3.22-3.44,3.31-7.35,1.15-1.93-1.07-3.48-1.49-5.4,0-1.14.86-2.71,1.13-3.93,1.92a7.59,7.59,0,0,0-2.83,2.73c-.59,1.31-1.25,1.87-2.58,1.8-1-4.31-3.87-3.94-7.68-2.7-4.05,1.33-8,2.87-12.08,4.25a4.1,4.1,0,0,1-2,0C474.75,181,474.44,181.21,473.43,184.21Zm19.73-39.65c-1.51-1.45-4.87-2.45-6.66-2a3.74,3.74,0,0,0-2.53,4.71,6.41,6.41,0,0,1,0,2.69c-.19,1.26-.85,2.51-.8,3.73.17,3.83-.87,7.07-3.83,9.63a2.26,2.26,0,0,0-.84,1.64,6.78,6.78,0,0,0,6.91,5.2c1-.06,2,.09,3.05,0a5.68,5.68,0,0,0,2.38-.52c1.24-.74,2.33-1.72,3.51-2.58,2.09-1.53,3-1.42,5,.34.44.38,1.48.76,1.72.54,1.52-1.32,2.89-2.82,4.05-4l5.71-.32a7.6,7.6,0,0,0,.23-1.67c-.46-3.76-.91-7.53-1.47-11.28a5.9,5.9,0,0,0-1-2.83c-1.89-2.27-4-4.39-6-6.6l-1,1.36C498.45,140.8,496.48,141.28,493.16,144.56Z" transform="translate(0)"/><path class="cls-11" d="M369.14,116.53a6.43,6.43,0,0,1,1.87-1c4.32-.56,8.64-1.07,13-1.45a3.15,3.15,0,0,1,2.36.92,2.55,2.55,0,0,0,3.28.87,104.53,104.53,0,0,1,10.15-3c4.84-1.07,10.22,3,10.86,7.94s1.2,10.1,1.71,15.16a9,9,0,0,1-.31,3.23c-.38,1.36-1.06,2.62.83,3.45a1.56,1.56,0,0,1,.31,1.46c-1.77,2.6-.17,5.09.19,7.6.14.93.82,1.8.88,2.72.23,3.74,1.82,7,3.17,10.41a4.6,4.6,0,0,1-.08,2.17,13.4,13.4,0,0,0-.58,3.1c.42,4.39,1,8.75,1.51,13.13a10.93,10.93,0,0,1-.21,1.46c0,.48-.07,1.24.18,1.39,1.52.88,1.44,2.4,1.76,3.79a13.19,13.19,0,0,0,.62,1.69c.14.37.52.82.41,1.08-1.73,4.26.31,7.89,1.81,11.65.72,1.83,1,3.88,1.88,5.61a28.53,28.53,0,0,0,4.3,6.39c1.7,1.79,4.29,1.12,5.82-.93a16.6,16.6,0,0,1,2.13-1.94,19.33,19.33,0,0,0,2.91,1.9c1.94.8,4,1.41,6,2.05a.84.84,0,0,0,.71-.26c2.14-2.41,5.38-2.33,8-3.52,1.72-.77,6.49,2.11,7.6,4.19.61,1.16-.69,4.57-2.2,5.9-1.19,1-2.28,2.22-3.49,3.25a6,6,0,0,1-1.83.94c-2.32.85-4.64,1.7-7,2.43a4.28,4.28,0,0,1-2.54.17,5.16,5.16,0,0,0-5.31.7c-1.84,1.52-3.56.83-5.15-.11a3.88,3.88,0,0,0-4.59.3,5.57,5.57,0,0,1-5.39.72c-1.37-.41-3,0-4.48,0a44.39,44.39,0,0,0-4.76.29,13,13,0,0,0-2.55,1c-2,.74-4,1.46-6,2.19a2.4,2.4,0,0,0-.92.39c-2.43,2.4-5.35,1.51-8.23,1.42a35.7,35.7,0,0,0-8.46.6c-4,.84-7.14-.37-10-3.31.33-.57.74-1.26,1.15-1.95-.88-1.18-.75-4,.49-4.49a2.19,2.19,0,0,0,1.39-2.46c0-1.73,1.12-1.86,2.29-2a18.53,18.53,0,0,1,2.68.07c3.27.19,5.89-1.19,8.36-3.2a6.47,6.47,0,0,1,5.57-1.66c2.49.47,3.54-1.63,4.69-3.33.19-.28.19-.72.41-.94,2.43-2.33,1.49-4.75.31-7.25-1.41-3-.49-7.56,1.43-10,.88-1.11,1-2.83,1.47-4.34a48.52,48.52,0,0,0-5.46-4.43c-2-1.23-1.55-2.72-.67-4,2.14-3,3-6.34,3.6-10s-.79-6.53-1.45-9.73c-.3-1.47-.84-2.89-1.3-4.46,2.15-1.13,2.05-3.6,2.75-5.63a1.58,1.58,0,0,0-.63-1.4c-2.17-1.2-2.39-3.62-3.44-5.48-.34-.59.39-1.71.23-2.5-1.47-7.3-3-14.59-4.63-22.21-1.48.78-2.7,1.45-4,2.07-.38.19-1,.47-1.25.3-3-2-6-.12-9,0a11.46,11.46,0,0,0-7.29,3c-.25.22-.62.59-.84.53-3.92-1.05-8.4.17-11.8-3.13-1.85-1.78-1.46-4-1.94-6.13,0-.17.25-.52.47-.63,2-1,4-1.9,6-2.85Z" transform="translate(0)"/><path class="cls-11" d="M236.06,197.2c2.06,3.05,1.9,5.08-.58,8a34.93,34.93,0,0,0-3,4,2.31,2.31,0,0,0,0,1.91c1,2.27,2.23,4.46,3.31,6.71.73,1.53,2,.84,3.06.79,3.3-.13,6.57.15,8.44,3.24,1.16,1.91,1.63,4.23,2.4,6.37a5.28,5.28,0,0,1,.37,1.19,4.55,4.55,0,0,0,4,4.46,5.93,5.93,0,0,1,4.51,4.06c1.4,3.46,3.82,5.61,7.83,5.66a36.6,36.6,0,0,1,5.23.81.72.72,0,0,0,.28-.3c1-2.37,2.72-2.72,5.11-2.16a18.14,18.14,0,0,0,5.16.14c2.3-.13,3.25.7,3.17,3.06,0,.14-.09.35,0,.4,2.11,1.64,1.51,3.85,1,6.54a35,35,0,0,1-3.94,1.42c-3.95,1-7.9,2-11.9,2.82-1.9.36-3.93,0-5.88.21-2.89.33-5.75.92-8.63,1.33-2,.29-3.55,1-4.36,3.07-.38,1-1.21,1.35-2.56,1.54-4.58.63-6.77-3.13-10-4.93-.63-.35-.73-1.7-1-2.6s-.58-1.93-.9-3l1.21-.13c2.53-.31,4.15-1.65,6-3.54,2.33-2.39,1.24-4.32.55-6.38-.78-2.3-1.83-4.5-4.34-5.69a3.86,3.86,0,0,1-1.7-2.74c-.2-2-1-3.3-3-3.5-1.6-.15-1.7-1.07-1.61-2.29a21.76,21.76,0,0,0,.12-3.12,3.59,3.59,0,0,0-.71-1.57c-.89-1.35-1.79-2.71-2.8-4-.78-1-1.75-1.82-2.63-2.73-1.17,1.17-2.74,2.14-3.4,3.55-.89,1.87-.6,4.06-3.57,4.78-1.46.35-2.59,2.68-3.54,4.31-.78,1.34-.89,3.07-1.66,4.42-.23.4-1.7.09-3.05.11-1.25,1.57-.73,3.73-.08,5.74a56,56,0,0,0,2.52,5.64c-1.7.92-1.37,2.5-.43,4,1,1.65,1.59,3.77,4.56,3.25a56.55,56.55,0,0,1,9.58-.49c3.52,0,3.91.57,4.65,4.07.86,4,0,5.81-2.24,9.14-2.22-.63-4.51-1.15-6.7-1.94a2.66,2.66,0,0,0-3.12.83,3.3,3.3,0,0,1-1.44,1c-2.16.43-4.23.83-5.05,3.34-.12.35-1.19.52-1.83.54-6.14.17-12.21.69-17.87,3.37-2.84,1.34-3.74,1.06-6.05-1.84-.87-1.09-1.71-2.19-2.66-3.2-2.48-2.63-1.33-6.26,1.58-8.29,3.3-2.3,7.06-3.2,10.5-4.94,1.59-.8,2.61-2.73,4.13-4.41-2.69-.77-2.9-1.78-1.63-3.81,1.61-2.58.37-5.51.12-8.3a25.93,25.93,0,0,1,.16-2.62c0-.41-.1-1.13-.29-1.18-1.54-.39-1.4-1.69-1.66-2.8s-.65-2.1-.82-3.17,0-2-.14-3c-.79-5.18-1.58-10.37-2.5-15.54-.27-1.53-.64-2.61,1.08-3.79.93-.65,1.27-2.75,1.17-4.15a21.78,21.78,0,0,0-1.52-5.35c-.44-1.25-1-2.38.23-3.56a1.52,1.52,0,0,0,0-1.49c-2.77-2.24-1.55-5.33-1.8-8.08-.11-1.27,0-2.3-1.64-2.84a2.94,2.94,0,0,1-2-3.29c.23-2.86.55-5.86-.05-8.61a17.43,17.43,0,0,0-3.55-6.85c-.59-.74-2.76-.51-4.15-.3-4.67.71-9-1-13.48-1.67-1.09-.15-1.71-3.05-1-4,2.64-3.34,5.75-4.29,9-3.31a32.68,32.68,0,0,1,4.95-1.76,81.12,81.12,0,0,1,8.23-.87,13.5,13.5,0,0,1,3.85.36c.32.07.5,1,.67,1.51.36,1.15.2,2.72,2.7,2.25-.48,2.73-1,5.15-1.31,7.59a3.25,3.25,0,0,0,.33,2.35c1.59,1.74,1.69,3.72,1.9,5.93.52,5.74,1.46,11.44,2.25,17.16.2,1.43.49,2.85.66,4.28s.39,2.87,2.51,3.15c-.65,2.58-1.44,5-1.83,7.52a11.51,11.51,0,0,0,.57,4c.33,1.5,1.13,2.37,2.86,1.78.16-.06.71.58.84,1a27.6,27.6,0,0,1,1,3.77,5.05,5.05,0,0,0,3.61,4.46c2.74.88,5.91,1.94,7.72-.79,2-3,5.41-4.59,6.91-8,1.17-2.62,2.76-5,4.06-7.6a2.47,2.47,0,0,1,2.33-1.68A11.46,11.46,0,0,0,236.06,197.2Z" transform="translate(0)"/><path class="cls-11" d="M269.7,173.12c-.29,1.7-.56,3.24-.84,4.88-2.27-.25-4.88.13-5.3-3.4C265,172.29,267.41,173.13,269.7,173.12Z" transform="translate(0)"/><path class="cls-11" d="M238.81,178.56l1.76,3.86c2.52.36,3.27-1.64,4.3-3.07,2.18-3,4.52-5.47,8.78-4.78a19.84,19.84,0,0,0,4.41-.26c.12.23.19.34.24.46,1.9,4.41-1.84,5.56-4.12,8-3.29,3.48-7.51,3.35-11.45,4.4-1.73.46-3,1-3,3.1,0,.22-.23.44-.36.67l-.59-.17a22.4,22.4,0,0,1,.86-3c.74-1.67.53-2.38-1.44-3.11-3-1.12-5.2.38-7.62,1.36a28.27,28.27,0,0,0-3.12,1.81c-.6-1.86-1.3-3.65-1.7-5.5-.11-.47.61-1.36,1.17-1.68,1.63-1,3.36-1.76,5.07-2.59,1.28-.62,2.46-1,3.82.17C236.38,178.74,237.62,178.46,238.81,178.56Z" transform="translate(0)"/><path class="cls-11" d="M321.13,168.17l-7.71-1.88c2.14-2.46,4.72-3.17,7.53-1.26.59.4.57,1.72.83,2.62Z" transform="translate(0)"/><path class="cls-11" d="M301.08,281.49l-1.55.73.57-2.07c-2.22-.32-2.87-1.93-3.36-4a21,21,0,0,0-2.49-5.66c-1.43-2.44-1.27-4.89-.58-7.42s1.28-5,2.18-7.42c.32-.86,1.47-1.39,2.16-2.14a2.91,2.91,0,0,0,.47-.95,8.59,8.59,0,0,0,1.6-1.7c.49-1,1-1.73,2.31-1.62a71,71,0,0,1,7.48.55,3.19,3.19,0,0,1,2.91,2.95c.22,1.6,2.05,3,3.18,4.46.91,1.17,1.85,2.32,2.75,3.45-1.72,2.44-3.36,4.66-4.89,6.95-1.13,1.68-.56,3.18,1.33,3.83,2.14.73,4.28,1.5,6.44,2.16a1.4,1.4,0,0,0,1.19-.4c.69-.78,1.24-1.68,1.88-2.51,1.34-1.74,2.38-3.8,4.77-4.45a1.3,1.3,0,0,0,.62-.79c.77-2.37,2.13-4.76,2.07-7.12s1.28-3.69,2.05-5.44c.66-1.49,2.08-2.69,2.58-4.21a10.49,10.49,0,0,0,.49-5.25c-.7-3.26-1.9-6.42-2.91-9.62a3.53,3.53,0,0,0-2.59-2.63,5.55,5.55,0,0,1-3.88-4.95,13.52,13.52,0,0,0-4.78-8.67c-.89-.83-1.09-2.35-1.81-3.42a25.87,25.87,0,0,0-2.55-2.77c1.67-1.16,1.32-2.38,0-3.73a15.22,15.22,0,0,1-3.13-3.85,44.65,44.65,0,0,1-2.29-7c-.54-2-.86-4-1.36-6-.43-1.68-1.73-1.71-2.76-1.5a29.22,29.22,0,0,1-2.91-3.11c-1-1.36-1.61-2.91-2.48-4.34-.77-1.27-1.64-2.47-2.48-3.7a6.08,6.08,0,0,1-.72-1c-.33-.79-.36-2.12-.88-2.34a12.06,12.06,0,0,0-4.23-.77,33.45,33.45,0,0,0-4.68.39c-2.73.31-5.45.66-8.23,1L281,171.49c1.18-1,2.25-2.34,3.63-2.83,1.64-.57,3.54-.39,5.34-.49a3.62,3.62,0,0,1,1.41.22,8.15,8.15,0,0,0,7.79-1.38c1.56-1.11,3.15-2.53,5.4-1,.43.31,1.69-.58,2.88-1,1.28.16,1.91,1.16,1.92,2.77s.16,3.11.32,4.65a3.2,3.2,0,0,0,.52,1.75c1.07,1.12,1.89,2.13.49,3.56-.11.1,0,.62.15.72,2.49,1.67,1.46,4.19,1.55,6.42.07,1.91.5,3.12,2.6,4.08,1.36.63,1.95,3.06,2.77,4.74,1.44,3,2.6,6.16,4.27,9,.84,1.46,1.91,3,4.05,3.38,2.37.36,4.53,4.82,4,6.4,1.23,2.74,2.09,5,3.24,7.08a23.92,23.92,0,0,0,2.56,2.91c.3.38.3,1,.54,1.44a6.63,6.63,0,0,0,1.47,2.33c.32.23,1.49-.41,2-.9,1.29-1.12,2.89-2.2,3.53-3.67a16.36,16.36,0,0,0,1-6c.11-3.42-.39-6.88,0-10.26.39-3.91.65-8.14,2.39-11.51a14.43,14.43,0,0,0,1.69-8.9c-.18-1.59,1.07-3.35,1.66-5,.14-.4.47-1,.32-1.18-1.62-2.35.44-4.43.49-6.65a6.76,6.76,0,0,0-1.92-4.71c0-.05-.15-.06-.18-.11-2.3-3.89-5.46-1.27-8.17-.89-3,.41-3.63.36-4.48-2.67-.41-1.47-1.91-3-.18-4.5a2.45,2.45,0,0,1,1.57-.49c3.78,0,7.55.1,11.33.18.47,0,1.28,0,1.37.24,1.13,2.84,3,.95,4.22.45,2.37-.93,4.5-1.52,6.85,0,1.34.86,5-.2,6.21-1.39.34-.35,1.18-.28,1.78-.24.28,0,.56.64.79.61,1-.15,1.67-.15,1.89,1.18.47,2.86.54,2.85-.62,3.84-1.59,0-2.78,0-4-.08-.39,0-1-.13-1.1-.39-.85-1.71-2.18-.88-3.41-.76-1.55.14-1.27,1.36-1.5,2.33a11.13,11.13,0,0,1-1.83,4.14c-1.1,1.57-2,3.47-3,5.22-.3.5.16,1.54.46,2.26.81,2,1.52,3.79.48,6.08-.67,1.48-.27,3.42-.54,5.13a3.42,3.42,0,0,1-1.09,2,2.66,2.66,0,0,0-.84,3.87c.76,1.48,1.52,2.79.14,4.82-1.14,1.66-.78,4.32-1.14,6.53a5.83,5.83,0,0,1-.69,2.06c-.77,1.21-1.14,2.29,0,3.48.18.19,0,.87-.15,1.22-1.16,2.26-2.37,4.51-3.57,6.75-.19.37-.69.88-.59,1,2.49,4.1-.77,7.9-.54,11.86a15.8,15.8,0,0,0,.4,2.14,3.68,3.68,0,0,1,.17,1c-.3,2.27.38,4.32.87,6.51s-1,4.69-1.5,7.09a18.57,18.57,0,0,0-.45,4.69c.22,3.85-2,6.76-3.64,9.86a12.66,12.66,0,0,0-1.83,7.14c0,.25.12.72,0,.74-2.23.82-2,2.88-2.42,4.62-.2.72-.23,1.77-1.66,1.76-.63,0-1.35,1.08-1.89,1.78-2.75,3.56-6,6.22-10.73,6.6a8.33,8.33,0,0,0-3.85,1.76,6.06,6.06,0,0,1-6.25.72,27.53,27.53,0,0,0-6.19-1,8.76,8.76,0,0,1-4.42-1.8C303.76,283.74,302.66,282.12,301.08,281.49Z" transform="translate(0)"/><image id="_" data-name="&apos;" width="322" height="326" transform="translate(527.99 90.28) rotate(-5.36) scale(0.19)" xlink:href="source png/apotrophe.png"/><g id="killer"><path class="cls-11" d="M647.94,289.15c.39,1.61.81,3.22,1.18,4.84a1.23,1.23,0,0,1-.09.92c-1.15,1.33-2,2.95-4.12,3.23a6.37,6.37,0,0,0-4.41,2.92,2.71,2.71,0,0,1-2.54.48,4.66,4.66,0,0,0-2.81-.05,17.55,17.55,0,0,1-2.28.1c-1.31.6-2.7,1.14-4,1.86-.47.26-.72.92-1.11,1.45-2.43.1-5,.15-7.65.35-.6.05-1.12.71-1.71,1a44.66,44.66,0,0,1-6.21,3,10.84,10.84,0,0,1-4.43,0,7.63,7.63,0,0,1-2.18-1.16l-.67.6-4.93-3.5a3.09,3.09,0,0,1-1-3.55,6.49,6.49,0,0,1,3.61-3.46,34.31,34.31,0,0,0,4.36-1.77,15.24,15.24,0,0,0,2.14-1.46c2,.14,4,.39,5.91.38,1.11,0,1.62-1.63,1-2.62s-1-1.82-1.49-2.73c2.26-1.16,2.81-2.34,2.19-4.66-.74-2.76-1.72-5.47-2.28-8.26a40.11,40.11,0,0,1-.39-6c-.05-1-.07-2-.1-3.25.14.21.1.08,0,.07-2-.5-2.73-1.55-2.4-3.75a15.37,15.37,0,0,0-.49-5.5c-.17-.79-1.17-1.4-1.9-2.22.17-1.58-1.37-2.81-3.29-2.4-1,.23-2.12.37-3.45.6L595.74,258c-1.28-.62-2.63-1.19-3.9-1.9-2-1.1-1.86-3.11-2.07-5a2.68,2.68,0,0,1,.07-.27c.67-3.66.67-3.66,4.38-3.79A57.52,57.52,0,0,0,607,244.6a4.54,4.54,0,0,1,3.83.38,29.86,29.86,0,0,1,3.53,2.14,6.49,6.49,0,0,1,2.15,7.11c-.17.65,1.13,2.83,2,3.31.35.2.74.35,1.29.6.4-1.59,2-2.76,1.12-4.72a30.6,30.6,0,0,0,2.78-2.21,2,2,0,0,0,.6-1.59c-.56-2.25-.26-3.94,2.14-5a7.55,7.55,0,0,0,3.84-3.66,2.83,2.83,0,0,1,1.48-1.05,12.46,12.46,0,0,1,2.42-.62,3.28,3.28,0,0,0,2.85-1.86c.18-.42.8-.72,1.28-.92,1.43-.63,2.88-1.23,4.36-1.73a2.6,2.6,0,0,1,1.76,0c1.18.57,2.61.81,3.09,2.45.21.71,3.1,1,3.94.61,2.57,1.85,2.35,4.88,3.18,7.47a.64.64,0,0,1-.08.53c-1.16,1.27-.41,2.59-.23,3.93a4.51,4.51,0,0,1-.47,1.83c-.05.16-.26.26-.39.39-1,1-1.84,2.52-3,2.78s-2.56-.77-3.86-1.25-3.18-3.36-3.29-4.78a3.47,3.47,0,0,0-.64-1.6c-1.49-2.18-3.4-2.75-5.92-1.69a4.5,4.5,0,0,0-2,1.57c-1.15,1.51-2.71,2.72-3.76,4.27a30.89,30.89,0,0,0-2.92,5.62c-.45,1.09-1.68,2-1,3.5.07.15-.37.61-.66.83a8.13,8.13,0,0,0-3,5.74,4.11,4.11,0,0,0,.58,2.18,2.53,2.53,0,0,1,.14,2.59c-.79,1.48-.29,3.12-.37,4.68,0,.68,0,1.37,0,2.25,2.82.25,2.78,2.76,3.38,4.83a2.89,2.89,0,0,1,.19.81c0,3,2.37,4.14,4.21,5.71a1,1,0,0,0,.93,0c1.23-1.33,2.75-1.5,4.44-1.42,2.5.11,5,0,7.5.09C645.51,288.74,646.68,289,647.94,289.15Z" transform="translate(0)"/><path class="cls-11" d="M545.77,261.37l1.48.77a3.77,3.77,0,0,0,.42-.86,1.84,1.84,0,0,1,1.86-1.53c5.09-.61,10.18-1.29,15.27-1.92a3.28,3.28,0,0,1,1.2.13c.87.24,1.74.52,3,.88.25.88,1.17,1.09,2.41.64a1,1,0,0,1,.9.38c1,2.14,3.08,2.95,5,3.92a1.91,1.91,0,0,1,1,.88c1,2.72,3,4.55,5.16,6.33.43.36,1.17.49.81,1.35-.05.11.19.38.34.53a3.28,3.28,0,0,1,.58,4.07,3.13,3.13,0,0,0,.2,2.75c.85,1,.48,2,.62,3,0,.23-.24.7-.42.73-1.6.23-3,1.29-4.83.59a2.85,2.85,0,0,0-3.27.91c-1,1.11-1.86,2.77-3.07,3.07s-2.72-.87-4.14-1.25a2.77,2.77,0,0,0-1.79.22,28.29,28.29,0,0,0-3.93,2.34c-.58.42-.86,1.24-1.33,1.84s-.92,1-1.5,1.63c-1.17-2.53-2.06-2.9-4.41-2.11a36.77,36.77,0,0,0-8.91,3.77,3.57,3.57,0,0,1-2.51.19c-1.19-.29-1.38.59-1.68,1.22a1.69,1.69,0,0,0,.23,1.36,19.79,19.79,0,0,0,1.73,1.91c-1.34,1.31-.45,2,.57,2.88.43.36.41,1.22.81,1.66,1.6,1.8,2.94,3.83,5.76,4.14a75,75,0,0,1,7.9,1.66,1.09,1.09,0,0,1,.4.12,4.94,4.94,0,0,0,5.19.61c.16-.07.47-.11.53,0,1.09,1.44,1.87.36,2.53-.39,1.21-1.37,2.86-1.66,4.48-2a3.77,3.77,0,0,0,3.43-3.6,6.93,6.93,0,0,1,2.56-4.83,20.82,20.82,0,0,0,2.77-3.8c.16-.23.25-.56.46-.69.87-.53,2.14-1.62,2.58-1.36,1.24.73,3,1.18,3.13,3.18a6.87,6.87,0,0,1-.63,3.58c-.64,1.38-1.07,2.86-1.62,4.28a6.15,6.15,0,0,1-.66,1.17c-1.08,1.61-2.14,3.23-3.27,4.8a3.48,3.48,0,0,1-1.29,1.12c-1.84.88-3.72,1.67-5.57,2.51a1.27,1.27,0,0,0-.62.51c-.66,1.56-2,2.07-3.51,2.35a1.45,1.45,0,0,0-1,.66c-.68,1.49-2,1.42-3,.94a8.23,8.23,0,0,0-4.63-.19c-1.7.23-3.43.83-5.08.64a15.92,15.92,0,0,1-5.6-1.8,6.76,6.76,0,0,1-2.06-1.72,9,9,0,0,0-1.84-1.11,3,3,0,0,1-2.34-2.24,2.93,2.93,0,0,0-2.22-2.22,7.94,7.94,0,0,1-5.28-5.1c-1-2.69-1.84-5.45-3-8.06-.51-1.15-1.68-2-2.48-3a12.45,12.45,0,0,1-1.36-2.16c-.38-.8.09-1.27.61-2a4.85,4.85,0,0,0,1-3.6,11.53,11.53,0,0,1,.17-6.71,28.79,28.79,0,0,0,.5-4.08,2.79,2.79,0,0,1,.51-1.09,23.06,23.06,0,0,1,5.61-5.71,1.7,1.7,0,0,0,.84-2.21c-.24-.66,1.33-2.88,2.16-2.8,1.22.13,1.31-.69,1.7-1.36C545.43,261.84,545.6,261.62,545.77,261.37Zm9.44,6.63c-.66-.14-1.56-.07-2-.48-1-1-1.88-.46-2.8-.19a2.62,2.62,0,0,0-1.4,3.23c.21.57.51,1.46.25,1.78a3.21,3.21,0,0,0-.4,2.77,8.08,8.08,0,0,1-2.13,7,1.83,1.83,0,0,0-.55,1.05c0,.89,3,3.66,3.88,3.5,2.48-.47,5.12-.27,7-2.65,1.33-1.67,1.78-1.5,3.67-.33a10.43,10.43,0,0,0,1.11.55c1-1.22,2-2.36,2.82-3.28l3.09-.4c.85-.11,1-.55.85-1.36-.51-2.4-.91-4.82-1.46-7.21a5,5,0,0,0-1.06-2.31c-1.41-1.5-3-2.84-4.53-4.26l-.57,1.21-1.81-1.16Z" transform="translate(0)"/><path class="cls-11" d="M318.44,366.51a9.4,9.4,0,0,1,1.4-.45,3.29,3.29,0,0,0,3.16-2.45c.05-.17.15-.41.28-.46,2.05-.81.9-2.19.51-3.29a19.76,19.76,0,0,0-1.76-3.3c-.16-.26-.58-.36-.88-.52-1.19-.62-2.45-1.14-2.56-2.78a1.78,1.78,0,0,0-1.91-1.91c-1.16,0-1.55-.63-1.49-1.81.06-1.38.19-2.8-1.54-3.62-.64-.31-.8-1.53-1.35-2.19s-1.61-1.47-1.79-1.33a8.26,8.26,0,0,0-2.18,2.45,13.54,13.54,0,0,0-.71,2.63,1.1,1.1,0,0,1-.66.59c-2.1.58-2.76,2.15-3,4.1a2.25,2.25,0,0,1-.3.7l-.81,1.68.23.4-2.25-.11a9.05,9.05,0,0,0-.14,2.4c.32,1.64.44,3.43,2.14,4.47A1.33,1.33,0,0,1,303,363c-.77.8-.45,1.44,0,2.2.92,1.52,1.76,2.69,4,2.09a33.14,33.14,0,0,1,6.48-.71c2.08-.15,2.3.24,3,2.17.89,2.48.25,4.6-.9,6.81-1.71-.32-3.38-.66-5.06-.93-.42-.07-1.08-.09-1.28.15a5.72,5.72,0,0,1-3.16,1.83c-.52.15-1,.82-1.27,1.35a2.32,2.32,0,0,1-2,1.28,38.52,38.52,0,0,0-6.15,1,36.09,36.09,0,0,0-5.77,2.29c-1.68.81-2.19.86-3.52-.35-.92-.85-1.82-1.71-2.72-2.58-2.06-2-1.33-4,.69-6s4.74-2.41,6.83-4a11.27,11.27,0,0,0,2.14-2.67c.08-.12-.41-.62-.61-1s-.84-1.22-.7-1.4c1.13-1.45.89-3,.53-4.57-.31-1.35-.52-2.71-.76-4-.47-.95-.9-1.89-1.39-2.81-1-1.86-.73-3.94-1.11-5.91-.53-2.76-1.51-5.43-2.29-8.15-.2-.71-.36-1.43-.53-2.12a3.48,3.48,0,0,0,1.33-4.66c-.53-1.18-1-2.39-1.45-3.6-.11-.29-.28-.75-.15-.91,1-1.23,0-1.79-.57-2.76a9.2,9.2,0,0,1-.7-4.16c0-1.18-.31-1.92-1.5-2.28a2,2,0,0,1-1.4-2.14,25.91,25.91,0,0,0-.56-6.06c-.45-1.56-1.68-2.92-2.64-4.31-.13-.2-.69-.18-1-.14a38.1,38.1,0,0,1-4.83.52,54.94,54.94,0,0,1-6.64-.69c-.82-.11-1.16-2-.68-2.88,1.35-2.41,3.45-3.08,6-2.75.27,0,.73,0,.82-.19.61-1.13,1.71-1.14,2.75-1.31.6-.1,1.19-.21,1.79-.3l6.37-.94c1,2.69,1,2.69,2.24,3a15.9,15.9,0,0,1-.06,3.52,4.18,4.18,0,0,0,.88,4.19,4.26,4.26,0,0,1,.79,2c.42,2.32.66,4.67,1.15,7,.66,3.09,1.48,6.14,2.25,9.19.09.39.3,1,.5,1.05,1.54.13,1.11,1.17,1,2-.18,1.28-.38,2.55-.62,3.81a3.19,3.19,0,0,0,3.05,3.61,40.85,40.85,0,0,1,1.56,3.94,2.64,2.64,0,0,0,2.24,2c1.75.33,3.7,1.29,5.1-.58,2.53-3.36,5.71-6.34,6.68-10.64.36-1.56,1.08-2.47,2.71-2.58a3.47,3.47,0,0,0,.9-.32c1.51,1.82,1.62,2.79.53,4.64a16.15,16.15,0,0,1-1.41,2.39,2.91,2.91,0,0,0,0,4.18,6.43,6.43,0,0,1,1.16,1.89c.55,1.68,1.74,1.74,3.17,1.52,3.76-.58,6,.87,7,4.31a39.34,39.34,0,0,0,1.63,4.13,1.66,1.66,0,0,0,.76.69,4.14,4.14,0,0,0,1.19.38,5.11,5.11,0,0,1,4,2.95,5.57,5.57,0,0,0,5.77,3.23,10.64,10.64,0,0,1,3.11.34c.08,0,.22-.05.24-.1.74-1.8,2-2.28,3.92-2a10.36,10.36,0,0,0,3.3-.29c1.56-.25,2.17.4,2.4,1.93.12.78,1,1.46,1.45,2.1l-.45,2.24c-1.84,2.48-5.15,2.05-7.81,3.32-1.4.67-3,1.5-4.46,1.36-2.66-.25-4.92.94-7.38,1.33a8,8,0,0,0-2.59.9,3,3,0,0,0-1.07,1.43,2.22,2.22,0,0,1-2.14,1.43c-2.94.41-4.75-1.56-6.77-2.88C319.42,369.5,319.12,367.86,318.44,366.51Z" transform="translate(0)"/><path class="cls-11" d="M394.57,358.19c-.89-.8-1.7-.29-2.71.29a18.59,18.59,0,0,1-4.43,1.81,10.25,10.25,0,0,0-4.06,2c-1.61,1.33-2.23,1.34-4,.29a5.78,5.78,0,0,1-.59-.39c-1.95.48-3.7.95-5.47,1.34a29.15,29.15,0,0,1-3.83.64,14.7,14.7,0,0,1-2.46-.22,3.25,3.25,0,0,0-.76.06,24.52,24.52,0,0,1-3.26.51c-2,0-4.25-2.24-4.37-4.29l-.06-1c-.22-3.15,1.08-4.92,4.22-5.67a4.14,4.14,0,0,0,2.72-1.46,2.7,2.7,0,0,1,1.55-.77c4.21-.93,8.43-1.8,12.65-2.7.49-.1,1-.24,1.42-.35-.32-3.18-1.11-6-3.28-5.86l-.19-.33,1.34-.73.13.24a.65.65,0,0,0,.17-.2,6.43,6.43,0,0,0,.37-4.12c-.7-2.5-.62-5.22-.9-7.84a4.81,4.81,0,0,0-.3-1.34c-.86-2.23-1.8-4.43-2.61-6.68a25.06,25.06,0,0,1-1.32-4.54,19.48,19.48,0,0,1,.09-3.73c0-.78,0-1.57,0-2.35,0-1.76-.64-2.69-2.22-2.94-1.17-.19-1.92.59-2.51,1.57-.71,1.18-1.54,2.29-2.33,3.45-1-.71-1.87-1.39-2.8-2-1.41-.88-4.28-.25-5.3,1.12a3.65,3.65,0,0,1-4.45.61,6.17,6.17,0,0,1-1.09-.86,3.33,3.33,0,0,1-.78-1.57c-2.71-1.13-2.28-3.65-2.52-5.84,0-.21.3-.5.51-.7.44-.4.9-.76,1.44-1.22,6-.75,12.29-1.58,18.56-2.25,1-.1,1.59-.15,2.05-1.08.15-.28.89-.24,1.35-.38,2.72-.84,4.73.14,6.15,2.47a12.75,12.75,0,0,1,1.6,3.14c1.91,6.83,3.72,13.69,5.55,20.54.13.49.41,1.09.25,1.48-1.16,2.71.45,5,1.14,7.35a34.78,34.78,0,0,0,4.71,10.45c.75,1,1.72,1.46,2.79.86,5.25-2.92,11-4,16.87-4.8.95-.12,3.05,2,3.12,3.23s.09,2.25,1.41,2.73a.61.61,0,0,1,.27.3c.47,1-.76,5-1.63,5.76-2,1.73-4.57,2.17-6.92,3.1-.29.12-.73-.14-1.1-.21-1-.19-2-.69-2.89-.48-3,.71-6,1.65-8.94,2.54A23.16,23.16,0,0,0,394.57,358.19Z" transform="translate(0)"/><path class="cls-11" d="M503.88,269c-1.18,2.38-.48,4.37.63,6.31a2.71,2.71,0,0,1,.31.92,22.91,22.91,0,0,0,3,7.58,2.48,2.48,0,0,1,.06,1.36,9,9,0,0,0-.3,2.19c.52,3,1.2,6,1.76,9,.1.55-.08,1.14.16,1.56l2.29,4.59c-1,2.23.05,4.27.88,6.27.63,1.53,1.89,2.82,2.35,4.38s1.72,2.84,2.41,4.35c.9,2,4.17,2.19,5.07.24a9,9,0,0,1,1.34-1.65,18,18,0,0,0,2.84,1.54,22.72,22.72,0,0,0,3.6.72.75.75,0,0,0,.62-.24c1.27-1.82,3.42-2.17,5.26-2.82,3-1.06,6.2,2.17,5.36,5.2a3.56,3.56,0,0,1-.66,1,14.36,14.36,0,0,1-7,4.88c-1.59.57-2.92,1.57-4.8,1-.58-.18-1.58.46-2.17,1a2.92,2.92,0,0,1-3.49.22,2.63,2.63,0,0,0-3.45.56c-1,1-2.1.82-3.35.63a14.15,14.15,0,0,0-3.41.25,21.73,21.73,0,0,0-3,.5,10.38,10.38,0,0,0-1.9.92c-.49.25-1,.53-1.48.75a11.59,11.59,0,0,0-2.9,1.3c-1.87,1.61-4,1.39-6.18,1.41a21.46,21.46,0,0,0-5.6.94,7,7,0,0,1-6.95-1.73c.23-.69,1-1.3.14-2.27-.3-.35.33-1.53.6-2.31a12.09,12.09,0,0,0,.8-1.87c.13-.87.41-1.32,1.36-1.36a29,29,0,0,0,3.59-.39,4.3,4.3,0,0,0,1.73-.66c1.14-.78,2.16-1.74,3.32-2.49a4.92,4.92,0,0,1,2.15-.7,3.86,3.86,0,0,0,3.39-2.09c1.36-2.34,1.57-4.18.13-6.69a5.41,5.41,0,0,1,.52-6.31c.48-.57.3-1.65.66-2.37.7-1.43-.68-1.4-1.23-1.84a26.84,26.84,0,0,1-2.86-1.91,2.44,2.44,0,0,1-.47-2.23,13.92,13.92,0,0,0,2-8.09,15.8,15.8,0,0,0-.57-3.49c-.58-1.89-1.36-3.73-2.05-5.59A8.18,8.18,0,0,0,500,277.2a.66.66,0,0,0-.32-.42c-1.76-.59-2-2.41-3-3.65-.11-.14-.29-.36-.25-.47.81-2.28-.52-4.19-1.08-6.21-.89-3.16-1.91-6.3-2.88-9.44a5.18,5.18,0,0,0-.3-.64,14.64,14.64,0,0,0-1.31.79c-1,.74-2,1.66-3.27.48-.15-.13-.54-.06-.8,0a54.13,54.13,0,0,0-6.46,1.66,15,15,0,0,0-3.32,2.41l-.06-.39c-.6.07-1.19.12-1.79.21-.16,0-.34.25-.47.22a29.38,29.38,0,0,1-5.34-1.33c-1.49-.63-2-2.27-2.15-3.84a1.8,1.8,0,0,1,.63-1.41,36,36,0,0,1,3.63-1.94,7.12,7.12,0,0,1,1.74-1c2.85-.63,5.73-1.14,8.59-1.74.69-.14,1.16-.17,1.65.52.6.87,1.47.87,2.47.44a54.07,54.07,0,0,1,6.66-2.61,6.6,6.6,0,0,1,8,5q1,5.18,2,10.37a4.6,4.6,0,0,1,0,1.92C502.26,267.45,502.31,268.47,503.88,269Z" transform="translate(0)"/><path class="cls-11" d="M462.14,330.52a20.77,20.77,0,0,0,3,1.64,20.22,20.22,0,0,0,3.49.61.58.58,0,0,0,.5-.17c1.2-1.85,3.33-2.26,5.13-2.74,1.27-.35,3,.38,4.35,1.08,1.62.85,1.55,2.56,1.14,4.16-.09.32-.43.57-.65.87a13.89,13.89,0,0,1-6.88,4.8c-1.62.59-3,1.66-4.93,1-.57-.18-1.55.5-2.16,1a3,3,0,0,1-3.5.18,2.39,2.39,0,0,0-3.11.35,3.61,3.61,0,0,1-3.83.8c-1-.28-2.27.19-3.42.34a19.19,19.19,0,0,0-2.73.45,13.47,13.47,0,0,0-2,1c-.54.26-1.07.54-1.61.79a10.77,10.77,0,0,0-2.89,1.32c-1.79,1.64-3.83,1.42-5.93,1.27a3.86,3.86,0,0,0-1,.08,39.74,39.74,0,0,0-4.65.88,6.56,6.56,0,0,1-6.56-1.34,11.46,11.46,0,0,1-.36-2.68,9.9,9.9,0,0,1,.85-2.41c.18-.45.61-.87.6-1.29-.05-1.37.55-1.86,1.88-1.85a22.47,22.47,0,0,0,3.46-.31,2.45,2.45,0,0,0,1.11-.48c1.15-.85,2.23-1.81,3.43-2.59a5.16,5.16,0,0,1,2.25-.8c1.5-.16,2.84-.42,3.33-2.12a.75.75,0,0,1,.06-.13c1.55-2.1,1.53-4,.18-6.41a5.31,5.31,0,0,1,.62-6.54,1.88,1.88,0,0,0,.4-1c.11-.64.15-1.3.24-2.26-1.09-.73-2.39-1.66-3.75-2.5-1.16-.72-1.6-1.59-.91-2.69a13.35,13.35,0,0,0,2-8.08,14.71,14.71,0,0,0-.65-3.35c-.56-1.86-1.26-3.67-1.92-5.56,1.72-.95.89-3,1.84-4.42-2.1-.73-2.65-2.57-3.57-4.07-.23-.39.17-1.12,0-1.62-1.38-4.95-2.81-9.89-4.3-15.09-1,.6-1.67,1.14-2.47,1.54-.43.21-1.15.45-1.45.24a2.71,2.71,0,0,0-2.51-.2c-.45.14-.9.24-1.35.34-2.76.61-5.59,1.07-7.41,3.69l-.16-.57-1.87.28c-.12,0-.26.19-.36.16a31.83,31.83,0,0,1-5.46-1.36c-1.69-.73-1.86-2.63-2.18-4.27,0-.2,0-.55.13-.62,1.39-.79,2.81-1.54,4.24-2.19.48-.34.92-.86,1.44-1,3-.66,6-1.25,9-1.78a1.89,1.89,0,0,1,1.37.46,2.11,2.11,0,0,0,2.62.48,53.45,53.45,0,0,1,6.66-2.61,6.59,6.59,0,0,1,8,4.89c.72,3.31,1.34,6.64,1.94,10a6.57,6.57,0,0,1,0,2.46c-.25,1.26-.26,2.31,1.28,2.79-1.14,2.32-.33,4.35.66,6.36a1.73,1.73,0,0,1,.17.53,22.45,22.45,0,0,0,3.21,8.07c.18.3,0,.82,0,1.24a7.71,7.71,0,0,0-.34,2.17c.55,3,1.25,6,1.83,9,.1.54-.1,1.13.08,1.55.75,1.53,1.51,3.05,2.31,4.66-1,2.15.13,4.24.95,6.28.62,1.53,1.92,2.83,2.34,4.38.47,1.71,1.75,2.83,2.41,4.34.83,1.89,4,2.26,5.06.17A9.66,9.66,0,0,1,462.14,330.52Z" transform="translate(0)"/><path class="cls-11" d="M364.15,283.16c.25-.4.56-.89.84-1.39l2.24-4c.07-.11.2-.3.27-.29,2,.29,2.7-1.66,4.16-2.26A4,4,0,0,1,373,275c.26,0,.53.16.81.17,4.07.24,5.67,3.12,7.3,6.34,1.41,2.78.73,4.6-1.2,6.68-1.09,1.17-2.47,1.09-3.66,1.47a61.42,61.42,0,0,1-8,1.68,1.44,1.44,0,0,1-1.17-.74c-.74-2-1.34-4-2-6A6.49,6.49,0,0,0,364.15,283.16Z" transform="translate(0)"/><path class="cls-11" d="M308.32,322.77c-.25-.61-.48-1.11-.66-1.62-1.05-3-1.05-3,1.75-4.52a15.17,15.17,0,0,0,1.79-1,1.43,1.43,0,0,1,2-.12,1.09,1.09,0,0,0,.62.28c.5,0,1.07-.31,1.49-.15a2.76,2.76,0,0,1,1.1,1.12,7.76,7.76,0,0,1,.56,1.39,2.38,2.38,0,0,0,2.5-1.39,21,21,0,0,1,1.81-2.78c1.86-2.43,4.63-1.83,7.15-2.08a.72.72,0,0,1,.49.18c.87.82.69,3.13-.21,3.94-1.22,1.09-2.37,2.27-3.58,3.38a2.57,2.57,0,0,1-1,.49c-1.9.61-3.79,1.22-5.71,1.75a1.6,1.6,0,0,0-1.42,1.72,2.91,2.91,0,0,1-.35.94l-.46-.15c.21-.81.37-1.63.63-2.42.31-1,0-1.36-1-1.65C313.3,319.32,311.59,320.56,308.32,322.77Z" transform="translate(0)"/><path class="cls-11" d="M336.49,313.59c-2.87.09-2.87.09-3.93-2,.95-1.58,2.58-1.27,4.25-1.56Z" transform="translate(0)"/></g><g id="brew"><path class="cls-11" d="M486,377c1.44,1.61,1.44,1.61,1.26,2.47a9.42,9.42,0,0,0,1.76.68,1.36,1.36,0,0,0,1.75-.87,9.64,9.64,0,0,1,.82-1.89,6.08,6.08,0,0,1,1-1l.24.19c0-.07.11-.14.11-.19-.3-2.69,1.55-3.84,3.49-5,1-.6,1.82-1.49,2.78-2.15a4,4,0,0,1,1.65-.63,37.73,37.73,0,0,0,4.78-.4,43.86,43.86,0,0,0,5.56-2c.31-.13.51-.54.88-1a5,5,0,0,1,5,4.29c.31,1.41,1.75,1.71,2.38,2.77,0,0,.65-.31,1.24-.59l1.1,1.38-.27.27a3.8,3.8,0,0,0,.95.28c1.2.06,1.72.67,2.12,1.82a6.69,6.69,0,0,0,2,2.31,4.88,4.88,0,0,1,1.6,2.81,29,29,0,0,0,.86,3.45,2.86,2.86,0,0,0,.85,1.41,6.63,6.63,0,0,1,2.67,6.3,21.43,21.43,0,0,0,1,7.77,2.18,2.18,0,0,1-.29,2.24c-.21.25,0,.88.07,1.33a7.65,7.65,0,0,1,.27,2,39,39,0,0,0-1,4.1c-.31,4.43-3.33,7.58-5.15,11.28a30.77,30.77,0,0,1-3.67,4.93,1.58,1.58,0,0,1-.85.5,3.39,3.39,0,0,0-2.06,1.28,3.54,3.54,0,0,1-2.17,1c-1.74.29-3.61.38-4.78,1.35a18.37,18.37,0,0,1-3.17-.12,21.61,21.61,0,0,1-3.69-1.15c-1.59-.64-3.16-1.35-4.69-2.11-.63-.32-.91,0-1.26.34-1.61,1.63-3.15,3.34-4.87,4.83a8.59,8.59,0,0,1-2.87,1.2c-.16.05-.5-.26-.68-.47-.31-.38-.53-.85-.85-1.21a4.44,4.44,0,0,1-1.15-4.47,4.66,4.66,0,0,0-.58-2.59c-.56-1.35-1.27-2.61-.44-4.12a1.68,1.68,0,0,0-.14-1.2c-.65-1.6-1.36-3.18-2-4.78a.91.91,0,0,1,0-.65c.86-2-.71-3-1.61-4.24a3.71,3.71,0,0,1-.72-1.08c-.76-2.88-1.47-5.78-2.17-8.68a1.43,1.43,0,0,1,.06-1.07c.77-.91.45-1.77,0-2.65a13.21,13.21,0,0,1-.37-2c-.57-1.84.21-4.08-1.54-5.6a2.72,2.72,0,0,1-.58-1.22c-.24-.8-.41-1.63-.63-2.44-.84-3.12-1.41-6.3-2.94-9.24a43.36,43.36,0,0,1-2.33-6.69,3,3,0,0,0-1.17-1.4c-1.64-1.38-3.37-1.19-5.26-.87a11.53,11.53,0,0,1-6.08-.14,5.88,5.88,0,0,1-2.94-2.52,3.47,3.47,0,0,1,.11-4.26c.77-1.18,1.26-2.53,2-3.73a2,2,0,0,1,1.3-.82c1.72-.28,3.48-.35,5.19-.66,3-.57,6.06-1.22,9.08-1.9a2.63,2.63,0,0,1,2.44.53c1.09.9,2.29,1.66,3.38,2.56a2.21,2.21,0,0,1,.72,1.3c.11,1.17,0,2.36.11,3.54a4.69,4.69,0,0,0,.34,1.31c.8,2.1,1.62,4.2,2.41,6.3.11.28.24.69.12.88-1,1.54-.1,3.11-.09,4.66a7.65,7.65,0,0,0,.21,1.24C487,375.69,486.9,376,486,377Zm8.28,24.19a6.86,6.86,0,0,0-.27,1,8.53,8.53,0,0,0-.3,2.89,45.89,45.89,0,0,0,1.71,5.29,3,3,0,0,0,.75,1.22c1.48,1.32,3,2.59,4.53,3.87.25.22.58.54.85.52,1.85-.08,3.13,1.1,4.54,2s2.78,1.64,4.56,1.39a11.76,11.76,0,0,1,2.24.29,2.49,2.49,0,0,0,1.47-.26c1.67-1.11,3.28-2.32,4.91-3.51a1.53,1.53,0,0,0,.84-1.7c-.06-.29.36-.68.57-1s.43-.49.4-.71a7.3,7.3,0,0,1,1.3-4.29,8.45,8.45,0,0,0,1.46-4.38c-.06-1.73,0-3.47-.06-5.21a1.09,1.09,0,0,0-.18-.64c-.79-1.11-1.56-2.24-2.44-3.27-1.18-1.39-2.62-2.6-1.69-4.77.14-.33-.23-1.1-.58-1.37a6.48,6.48,0,0,1-2.65-4.61c0-.3-.18-.59-.21-.89a1.28,1.28,0,0,0-1.43-1.28A5,5,0,0,1,511,380a15.79,15.79,0,0,0-2.81-1.91c-.74-.5-1.15-.28-1.39.57-.12.43-.39,1.06-.72,1.16-1.63.51-3.3.87-5,1.29l-.48-1.09a2.44,2.44,0,0,0-2.67,1.78c-.3.77-.64,1.53-.92,2.32-.35,1-.71,2-1,3a18.88,18.88,0,0,1-.67,3.23c-1.08,2.39-2.32,4.7-2.22,7.44a3.44,3.44,0,0,1-.22.88l1,.68-.51,1.22Z" transform="translate(0)"/><path class="cls-11" d="M577.13,401.9a20.25,20.25,0,0,1,4-1.88c1-.22,2.16.33,3.25.43.79.07,1.59-.07,2.39,0,1.84.07,3.73-.47,5.51.43.2.1.51,0,.85-.06l1.26,5.09c0,.14.1.36,0,.44-1.09,1.17-1.67,2.91-3.47,3.3a8.19,8.19,0,0,0-4.29,2c-.13.13-.35.18-.46.33-1,1.35-1.94,1.54-3.52,1a4.86,4.86,0,0,0-2,.15c-.72.1-1.43.6-2.16-.07-.12-.11-.69.07-.87.27a5.8,5.8,0,0,1-3.12,1.77c-.49.13-.83.83-1.24,1.27l.2.32c-1.93-.05-3.86-.15-5.79-.11-1.39,0-2.86,0-3.76,1.44a.69.69,0,0,1-.23.25c-1.84.88-3.69,1.76-5.55,2.6-.23.1-.56,0-.84-.06a5.51,5.51,0,0,0-2-.27,3.54,3.54,0,0,1-3.61-.6c-.16-.15-.73.16-1.2.28l-5.13-3.64c-.82-.6-.95-2.62-.41-3.68,1-2.06,2.92-2.9,4.91-3.64a27.48,27.48,0,0,0,3.06-1.29,17.76,17.76,0,0,0,2-1.51c1.68.73,3.69.55,5.65.57,1,0,1.58-1.64,1-2.51s-1.08-1.86-1.59-2.73c.84-.52,1.67-.76,1.94-1.28a4.71,4.71,0,0,0,.3-3.55c-.64-2.12-1-4.32-1.66-6.44a34.93,34.93,0,0,1-1-7.94c-.06-.83-.1-1.66-.15-2.49l.33-.15c-.68-.31-1.33-.68-2-.93s-.69-.6-.7-1.21c-.06-2.4-.19-4.79-.37-7.18a1.73,1.73,0,0,0-.73-1.05,6,6,0,0,0-1.37-.58,2.48,2.48,0,0,0-2.75-3c-.6.13-1.19.34-1.79.43a13.73,13.73,0,0,0-1.71.19l-7,3.53c-.15-.12-.43-.36-.72-.58s-.42-.41-.54-.37c-1.78.62-2.81-.91-3.51-1.79s-.79-2.75-1.09-4.19a1.92,1.92,0,0,1,.14-.67c.23-1,.17-2.2.77-2.8s1.78-.46,2.72-.47c4.91-.06,9.56-1.48,14.27-2.59a3.71,3.71,0,0,1,2.16.22c1.68.76,3.43,1.37,4.77,2.83a6.46,6.46,0,0,1,1.7,6.38c-.18.71-.3,1.21.46,1.74a26.21,26.21,0,0,1,1.92,2c.47.42.89.22,1.14-.39.31-.78.74-1.52,1-2.32a5.44,5.44,0,0,0-.1-1.69c.77-.6,1.74-1.39,2.73-2.14a1.23,1.23,0,0,0,.58-1.43c-.67-3.4-.65-3.42,2.32-5.18a8.42,8.42,0,0,0,3.41-3.41,2.84,2.84,0,0,1,1.45-1.09,14.57,14.57,0,0,1,2.44-.63,3.34,3.34,0,0,0,2.8-1.8c.26-.55,1.08-.89,1.71-1.18,1.31-.6,2.67-1.1,4-1.64a3.13,3.13,0,0,1,.61-.3c.7-.14,3.54,1.62,3.88,2.27a1.6,1.6,0,0,0,.9.84c1.05.2,2.07,1.13,3.23.23a6,6,0,0,1,2.16,3.53,20.81,20.81,0,0,0,.66,2.67,3.17,3.17,0,0,1-.23,2.82,2.78,2.78,0,0,0,.15,2.06,2.43,2.43,0,0,1-.87,3.18,5.44,5.44,0,0,0-.49.47c-.8.75-1.67,2.18-2.39,2.11a8.44,8.44,0,0,1-4.63-1.74,6,6,0,0,1-2.33-4.49,1.65,1.65,0,0,0-.38-1.07,25.48,25.48,0,0,0-2.33-2.2,1.45,1.45,0,0,0-1.1-.28c-1.2.23-2.38.56-3.57.87a1.11,1.11,0,0,0-.59.3c-1.42,1.68-2.74,3.45-4.26,5s-1.89,3.45-2.75,5.23c-.41.85-.8,1.73-1.19,2.59-.08.17-.27.42-.21.51.74,1.1-.21,1.64-.81,2.1-1.85,1.42-2.16,3.52-2.58,5.55a2.68,2.68,0,0,0,.51,1.69,2.75,2.75,0,0,1,.21,3c-.71,1.38-.19,2.91-.29,4.37-.05.71,0,1.42-.06,2.26a.43.43,0,0,0,.23.15c1.88.13,2.33,1.59,2.79,3a9.2,9.2,0,0,1,.57,2.34C572.86,399.11,575.2,400.5,577.13,401.9Z" transform="translate(0)"/><path class="cls-11" d="M662,350.3a5.07,5.07,0,0,0,.63,1.15,3.21,3.21,0,0,1,.43,3.69c-.3.48.21,2.74.37,3.24a8.43,8.43,0,0,1,.4,2.91c0,.26-.84.56-1.34.74a8.84,8.84,0,0,1-1.89.46,3.87,3.87,0,0,1-1.59-.13,3.94,3.94,0,0,0-3.46.83c-.83.9-1.65,1.8-2.44,2.73a1.15,1.15,0,0,1-1.5.38,27.12,27.12,0,0,0-3.32-1.24,2.66,2.66,0,0,0-1.69.18c-1,.5-1.95,1.19-2.95,1.73a4.3,4.3,0,0,0-2.37,2.62,1.85,1.85,0,0,1-.83,1c-.48.28-.9.18-1.1-.5a2.41,2.41,0,0,0-3-1.47c-3.31,1.24-6.74,2.18-9.76,4.16a4.1,4.1,0,0,1-2.52.1c-.63-.09-.94.07-1.16.59s-1,1.06-.31,1.81c.34.35.66.74,1,1.07.66.59,1,1.16.36,2-.15.19.09.83.33,1.11.56.68,1.71.95,1.39,2.19,1.5,1.27,2.23,3.35,4.46,3.88,3.05.73,6,1.74,9.18,2a1.77,1.77,0,0,1,1,.34c1.26,1.12,2.62,1,4.05.47a1.24,1.24,0,0,1,1.63.32,1.33,1.33,0,0,0,1.24-.13,9.28,9.28,0,0,1,5.6-2.81,3.31,3.31,0,0,0,2.9-3.19,7.37,7.37,0,0,1,2.62-5.08c1.18-1.08,1.85-2.7,2.88-4a15,15,0,0,1,2.21-1.9.63.63,0,0,1,.43-.1c1,.1,3.12,2.44,3.26,3.45a5.88,5.88,0,0,1-.61,3.51c-.64,1.32-1,2.79-1.58,4.15a12.53,12.53,0,0,1-1.4,2.17c-.53.75-1.37,1.38-1.61,2.2-.62,2-2.12,2.92-3.93,3.61a36.91,36.91,0,0,0-3.75,1.67,2.58,2.58,0,0,0-1,1.07,2.83,2.83,0,0,1-2.22,1.59,2.66,2.66,0,0,0-2.29,1.45c-.49.94-1.62.61-2.26.34a8.24,8.24,0,0,0-4.71-.27c-1.54.22-3.08.53-4.64.68a6.15,6.15,0,0,1-2.33-.25,31.06,31.06,0,0,1-3.21-1.21c-.27-.11-.64-.29-.7-.51-.28-1.11-.92-1.51-2.09-1.11a1.64,1.64,0,0,0-1.69-1.56c-1.6-.18-2-1.44-2.43-2.66a2.16,2.16,0,0,0-1.66-1.53,6.78,6.78,0,0,1-4.22-2.94,56.9,56.9,0,0,1-2.95-6.27c-.6-1.44-.85-3-1.54-4.42a9.73,9.73,0,0,0-2.2-2.39c-.79-.74-1.67-1.41-1.68-2.6a1.64,1.64,0,0,1,.48-1.25c1.46-.89,1.52-2.37,1.46-3.71s-.88-2.68-.85-4,.82-2.5,1.1-3.79a30.23,30.23,0,0,0,.24-3,3,3,0,0,1,.52-1.21,24.64,24.64,0,0,1,5.83-5.92c.48-.36.92-.75.6-1.42-.51-1.07.06-1.75.82-2.31s1-1.62,2.15-.88l1.2-2.21,1.41.77c.11-.06.22-.08.23-.12.5-2.84,3-2.32,4.78-2.64,3.34-.59,6.72-.92,10.08-1.35.94-.12,1.89-.19,2.84-.26a.72.72,0,0,1,.53.12,2.59,2.59,0,0,0,3,.38c.27,1.46,1.13,1.6,2.31,1.25a1.2,1.2,0,0,1,1.07.31c1,2.12,2.9,2.93,4.81,3.78a1.82,1.82,0,0,1,1.23,1.49,2.06,2.06,0,0,0,.45,1c1.71,1.88,3,4.14,5.44,5.32Zm-15.12,8.36c-.67-3.32-1.3-6.46-2-9.59a1.38,1.38,0,0,0-.42-.65c-1.59-1.49-3.2-2.95-4.76-4.39-.62,1.29-.9,1.32-2.14.09-1.27.73-2.91.92-3.71,2.43a.81.81,0,0,1-.46.26c-.53-.76-1.64-.32-2-.74-.85-.92-1.62-.5-2.46-.28a2.55,2.55,0,0,0-1.57,3.32c.21.54.52,1.38.28,1.68-.83,1-.52,2.07-.39,3.14a7.72,7.72,0,0,1-1.75,6.16c-1.15,1.36-1.2,1.35-.14,2.72s2.51,2.63,4.61,1.9a1,1,0,0,1,.45-.08c1.85.26,3.15-.67,4.43-1.85,1.82-1.68,1.66-2.39,4.52-.51a1,1,0,0,0,.94,0c1-1,1.81-2.11,2.75-3.22C644.22,359.82,645.4,358.74,646.84,358.66Z" transform="translate(0)"/><path class="cls-11" d="M673.83,343.48c-.13-.49-.24-.93-.34-1.36a3.42,3.42,0,0,0-1.46-2.23,9.48,9.48,0,0,1-2.46-3.52,7.43,7.43,0,0,0-3.53-3.26c-.13-.07-.29-.23-.4-.2-2.15.64-3-1.5-4.7-2.13,1-1.42.63-3.36,2.35-4.23a2.62,2.62,0,0,1,1.37-.43c3.2.43,6.21-.4,9.23-1.22.59-.15,1.18-.32,1.78-.43a1.15,1.15,0,0,1,.74.1c.69.46,1.25,3.19.81,3.92-.62,1-1.26,2-1.94,3.09,1,1,2,1.87,2.89,2.85a2.85,2.85,0,0,1,.73,1.56c.08,1.57.54,3.18-.28,4.72-.09.17.15.62.36.82,1,1,2.07,1.81,3,2.81a2.37,2.37,0,0,1,.56,1.56c0,1.64-.25,3.27-.32,4.9a2,2,0,0,0,.41,1.28,26,26,0,0,0,2,2.16c.21.21.51.5.75.48,2-.13,3.29,1.29,4.84,2.11a2.41,2.41,0,0,0,3.4-1.4c.45-2.35.78-4.73,1.11-7.11a1,1,0,0,0-.43-.79c-1.72-1-2.29-2.57-2.56-4.35a3,3,0,0,1,2.26-2.69c.38,0,.76,0,1.14-.07a3.18,3.18,0,0,1,3.34,2.13,3.84,3.84,0,0,1-.62,4.22,2.58,2.58,0,0,0-.16,3.59,4.79,4.79,0,0,1,.53,1.74c.4,1.56.68,3.15,1.19,4.67a6.18,6.18,0,0,1-.44,5.77c-.37.57-.17,1,.35,1.35.31.22.59.47,1,.77-.82,1-.13,1.51.43,2.22a3.29,3.29,0,0,1,.7,1.91,38.26,38.26,0,0,0,0,6.24,4.56,4.56,0,0,1-1.77,4.34c-.61.45-1.64.78-1,2a22.08,22.08,0,0,1-2.65,1.12,1.59,1.59,0,0,1-1.28-.34c-1.58-1.43-3.09-2.94-4.63-4.42-.25-.23-.47-.61-.76-.67-1.51-.34-1.7-1.54-1.93-2.75-.38-2-.77-4.05-1.21-6.07a2.24,2.24,0,0,0-.65-1.36,5.94,5.94,0,0,1-2.54-4.51,2.5,2.5,0,0,0-1.38-2.07,1.57,1.57,0,0,1-.69-1c-.28-1.73-.52-3.47-.68-5.22-.08-.8.07-1.62.07-2.42a1.2,1.2,0,0,0-1.2-1.26c-.81-.09-1.15-.56-1.37-1.3-.44-1.42-1-2.81-1.47-4.21C675.74,343.15,675.74,343.15,673.83,343.48Z" transform="translate(0)"/><path class="cls-11" d="M730.68,311.7l-.71,2.22c-2.15,1.29-2.85,4.12-1.6,7a1.79,1.79,0,0,1,0,1.1c-.46,1.9-1,3.77-.18,5.71A2.16,2.16,0,0,1,728,330a1.41,1.41,0,0,0-.22,1.15c1,2.7,0,5-1.29,7.27-.63,1.14-1,2.06-.07,3.21a7.84,7.84,0,0,1,.75,2.1c-1.47.18-1.1,1.4-1.31,2.22-.08.3.54.75.76,1.17a4.53,4.53,0,0,1,.75,1.77,46.07,46.07,0,0,1-.27,5,5.86,5.86,0,0,0,.7,3.47,25.31,25.31,0,0,1,1.47,4.64c.19.7.11,1.46.33,2.14.8,2.53-.19,4.83-.8,7.18a1,1,0,0,1-.66.55c-1.87.36-3.74.68-5.61,1a1.06,1.06,0,0,1-.74-.16c-1.62-1.2-3.23-2.37-3.87-4.48-.8-2.7-1.76-5.35-2.66-8-.11-.33-.13-.84-.35-.94-2-.95-2.22-3.07-3.14-4.72-.61-1.1-1.25-2.18-1.79-3.32a2.78,2.78,0,0,1-.07-1.26c0-.72.17-1.45.16-2.17s-.26-1.21-.2-1.79c.19-1.7.1-1.83-1.21-1.66-.78-.53-1.38-.89-1.92-1.32a1.2,1.2,0,0,1-.28-.72c-.18-1-.32-2-.5-2.94-.12-.61-.25-1.16-1.12-1.16-.63,0-1-1.43-.5-1.94s1.14-1,1.81-1.54a17.46,17.46,0,0,1,.9,2,7.49,7.49,0,0,0,3.42,4.43c2.54,1.52,3.37,4.14,4.71,6.49a31.91,31.91,0,0,0,3.64,4.82c.78.9,3.11.28,3.56-.84a8,8,0,0,1,.39-1,7.18,7.18,0,0,0,.44-6.56,1.34,1.34,0,0,1,.4-1.63,22.76,22.76,0,0,0,1.69-1.93c-.86-1.87-1.64-3.53-2.39-5.21a31.83,31.83,0,0,1-1.47-3.59,9.87,9.87,0,0,1-.41-3.14,20,20,0,0,0-1-7.54c-.28-.77-1.26-1.33-2-1.83-.14-.09-.79.62-1.27,1a5,5,0,0,1-1.51-3.46c0-.27.38-.72.69-.91,1.93-1.23,3.9-2.38,5.83-3.6a16.61,16.61,0,0,0,1.52-1.28,1.32,1.32,0,0,1,.56-.32c1.43-.24,2.86-.45,4.3-.64.19,0,.57.08.59.18C728.93,311.33,730,311.46,730.68,311.7Z" transform="translate(0)"/><path class="cls-11" d="M703.55,329.65l-1.45.94c-.66-1.7-1.27-3.31-1.91-5-1.7.84-2.26,3-4.44,3.19-.06-1.88-1.66-2.41-2.89-3.21a3.53,3.53,0,0,0-1.94-.2,2.85,2.85,0,0,1-3-2.6c1.9-.47,3.8-1,5.73-1.41a14.58,14.58,0,0,0,6.65-2.8,2.09,2.09,0,0,1,1.05-.35q1.36-.18,2.73-.24c.57,0,1.55-.12,1.63.09a15.58,15.58,0,0,1,.78,3.32c0,.13-.65.53-1,.53-1.67,0-2.19,1.69-3.45,2.28-.1,0-.06.56,0,.82C702.55,326.58,703.05,328.09,703.55,329.65Z" transform="translate(0)"/></g><g id="cold"><path class="cls-11" d="M412.35,396c1.14-.77,1.12-1.12-.07-1.89a1.46,1.46,0,0,1-.66-.79,3.43,3.43,0,0,0-2-2.58.9.9,0,0,1-.42-1.35c1-1.79.51-3.1-1.08-4.34s-3.22-1.81-4.82-.5a1.68,1.68,0,0,1-.81.29c-2,.39-4,.8-6,1.13a2,2,0,0,1-1.31-.26c-1.17-.73-2.29-1.54-3.41-2.36-.23-.17-.52-.5-.5-.73.2-1.91.46-3.81.7-5.71l.39.19c.26-.31.67-.58.77-.93.24-.91.62-1.33,1.65-1.17a14.69,14.69,0,0,0,6.34-.63,2,2,0,0,1,1.22.18c.71.33,1.33.26,1.67-.43.5-1.05,1.33-1.18,2.37-1.36a11.45,11.45,0,0,1,5.49,0,2.22,2.22,0,0,1,1,.56,10.41,10.41,0,0,1,2.43,4.79c1,3.7,2,7.38,3,11.08a2.17,2.17,0,0,1,.07,1.37c-.71,1.48-.11,2.77.45,4.05a29.5,29.5,0,0,1,2.76,9.57c.07.87.78,1.68,1,2.56.56,2,1,4,1.51,6a1.74,1.74,0,0,1,.14.75,1.6,1.6,0,0,0,1.2,2.23c.22.08.34.68.38,1.05.18,1.44.29,2.89.48,4.33a1.4,1.4,0,0,0,.55,1c.92.43,1.13,1.21,1.38,2.08,1,3.53,2.06,7.05,3.11,10.57.22.74,2.27,1.81,3.09,1.65a10.58,10.58,0,0,0,1.37-.35,2.13,2.13,0,0,1,2.55.52c.25.27.93.24,1.38.17a7.35,7.35,0,0,1,3.5-.17c2.54.74,3.07,2.87,3.87,4.86.09.21-.1.62-.28.84a38.92,38.92,0,0,1-3.14,3.63,5.24,5.24,0,0,1-2.15.87,3.23,3.23,0,0,0-2.2,1.37c-.65,1-1.86.54-2.79.29a2.13,2.13,0,0,0-2.56.68,1.55,1.55,0,0,1-.74.39c-.67.19-1.36.28-2,.51a2.38,2.38,0,0,1-2.42-.4c-1.17-.83-1.25-.76-1.72.55-1.5-.18-3-.22-4.2-1.43-.63-.64-1.21-.73-1.65.26a3.19,3.19,0,0,1-2.74,2.16c-.29,0-.64.44-.79.76-.5,1.09-.93,2.21-1.37,3.33-.24.6-.53,1-1.29.85a11.32,11.32,0,0,0-1.41.08c-.82-.05-1.64-.18-2.67-.29-.81,1.72-2.86,1.27-4.43,1.91-.67-1.26-1.09-1.44-2.47-1.1a13.14,13.14,0,0,0-2,.51,2.16,2.16,0,0,1-2.81-.85,8.09,8.09,0,0,0-1.78-1.57c-.27-.19-.75-.08-1.13-.12a1.93,1.93,0,0,1-.69-.14c-1-.6-2.09-1.19-3.07-1.88-.32-.23-.44-.76-.6-1.16s-.1-.86-.34-1.08c-1.91-1.72-3.84-3.43-5.83-5.07a1.51,1.51,0,0,1-.66-1.46,2.93,2.93,0,0,0-1-2.89,14.29,14.29,0,0,1-2.07-2.64.92.92,0,0,1-.23-.37c-.44-2.1-.92-4.19-1.29-6.3s-.72-4.38-.89-6.59a10.66,10.66,0,0,1,.58-2.81c.06-.27.16-.53.2-.81s.08-.81.12-1.21a5.41,5.41,0,0,0,.13-1.43,5,5,0,0,1,0-3.25c.42-.91.08-2.14.19-3.22a9.63,9.63,0,0,1,.52-2.1c.17-.49.21-1.18,1.1-1,.19,0,.51-.46.71-.76q1.41-2,2.79-4.05c1.32-1.94,2.9-3.51,5.39-3.85a1.69,1.69,0,0,0,1.08-.63c1.16-1.67,2.78-2.09,4.7-2.09a38.2,38.2,0,0,0,4.1-.41c.18,0,.45-.12.53,0,1.09,1.14,2.31.36,3.45.21.78-.11,1.11.06,1.31.84A1.72,1.72,0,0,0,409,399.7c.31-.1.63-.18.95-.27C411.78,398.92,412.41,397.86,412.35,396Zm-7.44,49.35c.86-.21,1.92-.45,3-.74a.89.89,0,0,0,.55-.45c.43-1,.79-2,1.21-3a1.44,1.44,0,0,1,.55-.73,2.94,2.94,0,0,0,1.53-1.86,3.86,3.86,0,0,1,1.11-1.32c.58-.51,1.39-.83,1.83-1.44a38.92,38.92,0,0,0,2.33-3.82,2.73,2.73,0,0,0,.25-1.11,11,11,0,0,1,.05-1.82c.15-.69.72-1.33.74-2,.06-2.13-.25-4.18-2.09-5.67a5.52,5.52,0,0,1-1.91-3.88c-.21-1.66-.58-3.3-.92-4.94-.28-1.41-1.69-3-2.62-2.76a4.9,4.9,0,0,1-4.93-1.41,2.57,2.57,0,0,0-.89-.61,4.71,4.71,0,0,0-1.82-.49c-2.35.16-4.69.42-7,.71a2.36,2.36,0,0,0-1.11.59,7.51,7.51,0,0,0-2.68,4.94c0,.39-.3,1-.56,1-.86.19-.89.8-1.08,1.44-.38,1.27-.86,2.51-1.29,3.77-.5,1.43-1.15,2.81-.35,4.38a28.47,28.47,0,0,1,1.25,3.26c1.29,3.53,2.1,7.26,4.54,10.3.5.62.86,1,1.68.69s3.17.72,3.62,1.33a24.45,24.45,0,0,0,1.79,2.27C402.65,443.08,403.73,444.13,404.91,445.33Z" transform="translate(0)"/><path class="cls-11" d="M294.62,484.62a1.93,1.93,0,0,0-2.6-1.07c-3.29,1-6.61,2-9.9,3a1.25,1.25,0,0,1-1.68-.53c-1-1.7-2.72-1.09-4.18-1.35a7.32,7.32,0,0,1-2.14-.61c-2.47-1.34-4.92-2.7-7.3-4.16-1.08-.66-2-1.59-3-2.35a4.23,4.23,0,0,0-1-.39,16.56,16.56,0,0,1-2-.76c-.57-.29-1.36-.45-1.16-1.43,0-.17-.23-.44-.41-.62a8.73,8.73,0,0,1-2.49-5.44c-.26-1.9-.24-3.84-.56-5.72-.59-3.46-.68-7-1.84-10.37a2.58,2.58,0,0,1,0-1.58A33.59,33.59,0,0,0,256,443c0-.14,0-.38.05-.42.91-.43.7-1.41,1.06-2,1.87-3.35,4-6.57,6-9.8a3.63,3.63,0,0,1,1.27-.94,20.39,20.39,0,0,0,3.14-1.85,10.37,10.37,0,0,1,5.87-2.33,7.61,7.61,0,0,0,5.48-2.46c.71-.85,3.45-1,4.54-.36s1.89,1.08,2.9,1.65c.61-.91,1.29-.87,2-.21.1.09.27.25.36.22,2-.68,2.55,1.59,4,2.05.46.14.81.66,1.35.13.09-.09.53.06.72.21,1.11.89,2.19,1.81,3.28,2.72.11.09.3.18.31.29.26,2.15,2.31,2.55,3.57,3.72.26.23.37.63.59.9a4.58,4.58,0,0,0,1,1,5.91,5.91,0,0,1,2.84,3,1.7,1.7,0,0,1,0,1.22c-.3.56-.3.94.25,1.27a3.63,3.63,0,0,1,1.45,2.33c.4,1.29,1.12,2.49,1.52,3.78.58,1.84,1,3.72,1.47,5.59a.61.61,0,0,1-.06.32c-1.28,3.06-.17,6.15,0,9.22,0,.6,0,1-.46,1.42a2.69,2.69,0,0,0-1.13,3c.15.69-.61,1.56-.89,2.37a8.25,8.25,0,0,0-.14,1.24,1.9,1.9,0,0,1-.26.78c-1.26,1.78-2.57,3.53-3.81,5.31-.34.49-.48,1.11-.78,1.63s-.59,1.25-1.07,1.47a25.68,25.68,0,0,0-6.85,4.56A5.91,5.91,0,0,1,294.62,484.62Zm0-17.17c.73-1.16,1.38-2.35,2.2-3.42a2.93,2.93,0,0,0,.25-3.16,1.35,1.35,0,0,1,0-1c.36-.75.88-1.43,1.21-2.18a2.49,2.49,0,0,0,.29-1.59,9.16,9.16,0,0,1,0-5.67,1.44,1.44,0,0,0,0-1,19.82,19.82,0,0,0-2.85-3.66,2.67,2.67,0,0,1-1.2-2.24,1.39,1.39,0,0,0-1.26-1.52,1.12,1.12,0,0,1-1.07-1.12c-.37-2.49-1.64-4.08-4.29-4.28,0,0-.07,0-.1,0-1.88-.53-3.75-1.07-5.63-1.59a6.84,6.84,0,0,1-1.87-.47c-1.4-.94-2.47-.59-3.63.46-.69.62-1.82.81-2.41,1.5a5.28,5.28,0,0,1-2.9,1.74,34.7,34.7,0,0,0-3.32,1.07,1.73,1.73,0,0,0-.75.56,23.74,23.74,0,0,0-1.71,2.4c-.87,1.47-1.65,3-1.19,4.82a3.58,3.58,0,0,1-.51,3.22c-.78,1-.4,1.77.11,2.74a39,39,0,0,1,3.42,7.37,18.29,18.29,0,0,0,5.15,8.35c1.76,1.73,3.68,3.31,5.53,4.95.21.19.45.46.7.48a12.08,12.08,0,0,0,3.53.18c3-.6,6.12-.87,8.05-3.73a1.71,1.71,0,0,1,.55-.52,2.18,2.18,0,0,1,2.43-.25c.37.23.88.74,1.13,0S295.72,468.49,294.61,467.45Z" transform="translate(0)"/><path class="cls-11" d="M234.12,485.37c.1-.93.17-1.87.32-2.79a1.54,1.54,0,0,1,.47-.75,10.1,10.1,0,0,0,1.35-1.25c.73-1.08,1.36-2.24,2-3.39a5.23,5.23,0,0,0,.25-1.33c1.62-1.09,3.45-2.4,5.38-3.55a4.62,4.62,0,0,1,2.1-.23c3.05,0,3.05,0,3.76,3a8.64,8.64,0,0,1,.19.85c.19,1.68.18,1.68,1.48,2.8-.86,1.32-1.76,2.66-2.6,4a2.48,2.48,0,0,0-.2,1c0,.19.1.43,0,.58-.77,1.65-1.52,3.31-2.4,4.89a2.33,2.33,0,0,1-1.35.95,1.52,1.52,0,0,0-1.32,1.34c-.14.7-.28,1.53-1.41,1-.16-.07-.68.35-.84.65a2.93,2.93,0,0,1-2.11,1.52,1.76,1.76,0,0,0-1.14,1.07,1.85,1.85,0,0,1-1.84,1.64.55.55,0,0,0-.32.09c-1.74,1.78-4.7,1.27-6.29,3.35a1.14,1.14,0,0,1-1.69.32c-.38-.23-.9-.63-1.29.09,0,.06-.38-.06-.59-.08-.58-.08-1.27-.38-1.73-.17-2.85,1.27-5.41,0-8-.78s-5-1.64-7.57-2.47a8.64,8.64,0,0,1-4.15-2.83c-1.28-1.57-2.74-3-4.16-4.46-.17-.17-.59-.07-.86-.18-.65-.28-1.29-.61-2-1a2.67,2.67,0,0,0-.6-2.59,19.35,19.35,0,0,1-1.52-3.72c-.79-2.11-1.6-4.22-2.3-6.36a4.12,4.12,0,0,1,.2-1.7,5.64,5.64,0,0,0,.2-1.33c-.27-1.9-.63-3.79-.9-5.7a3.09,3.09,0,0,1,.16-1.27c.69-2.3,1.37-4.6,2.13-6.87.22-.67.72-1.23,1-1.88a7.59,7.59,0,0,0,.7-2,6.17,6.17,0,0,1,2.17-3.52,6.57,6.57,0,0,0,1-1.95s0-.08,0-.11a5.12,5.12,0,0,0,.44-1.32c0-.32-.29-.65-.62-1.32,1.07.76,1.47.72,2.11-.2s1.81-1.26,2.81-1.74c1.22-.58,2.56-.93,3.74-1.56,1-.52,1.77-1.39,2.72-2a10.29,10.29,0,0,1,3-1.48,23.16,23.16,0,0,1,3.64-.08,25.79,25.79,0,0,0,3-.35c.92-.17,1.79-.54,2.73,0,.27.16.86,0,1.22-.23a2,2,0,0,1,2.32.17c1,.69,2.14,1.24,3.18,1.91.78.51,1.41.56,1.88-.4.8.35,1.55.71,2.33,1a2,2,0,0,1,1.38,1.37c.12.4.83.62,1.34.82a5.32,5.32,0,0,0,.89.94c.69.47,1.46.83,2.17,1.27.26.16.62.41.66.66a2.4,2.4,0,0,0,1.58,2.12c.54.9-1.5,2.17.67,2.51.31,2.14-1.08,4.32-.11,6.38-1,1.24-2.05,2.53-3,3.87a2.34,2.34,0,0,1-1.86,1.11c-1.51.1-3,.48-4.52-.1-.26-.1-.81.26-1.09.55-.58.6-1.92.72-2.34,0-.89-1.49-2.29-2.75-2.32-4.65a4.54,4.54,0,0,1,.25-1.84c.59-1.33,1.32-2.59,2-3.88a1.22,1.22,0,0,0-.65-1.94c-1-.41-2-.68-3-1.12a2.79,2.79,0,0,1-1.27-1.07,1.4,1.4,0,0,0-1.37-.83c-2.71,0-5.42-.11-8.13-.13a1.67,1.67,0,0,0-1,.45c-1.41,1.3-2.77,2.65-4.18,3.94a2.42,2.42,0,0,1-1.22.68,3.3,3.3,0,0,0-2.6,2c-1.09,1.9-2.3,3.72-3.32,5.65a28.24,28.24,0,0,0-1.34,3.55c.53.55,1.12,1.15.43,2.28-.27.43.13,1.42.45,2.05,1.26,2.49,2.64,4.91,3.9,7.4a5.77,5.77,0,0,1,.27,1.84,7,7,0,0,0,2.36,4.4,9.57,9.57,0,0,1,1.33,1.45,1.92,1.92,0,0,0,2.52.81,1.3,1.3,0,0,1,1.15.23,12,12,0,0,0,8.05,3.79,1.14,1.14,0,0,1,.32.07c3.54,1.32,6.34,0,8.75-2.53a7.28,7.28,0,0,1,1.08-1.07,7.55,7.55,0,0,1,1.32-.61Z" transform="translate(0)"/><path class="cls-11" d="M346.86,437.4c1.16.32,1.34,1.44,1.62,2.56a6.93,6.93,0,0,0,.76,1.48c-.78,2.46.27,4.69,1.39,6.88.59,1.17,1.63,2.2,1.87,3.42.32,1.65,1.49,2.69,2.23,4a2.63,2.63,0,0,0,4.67.15c.36-.51.78-1,1.26-1.54a17.18,17.18,0,0,0,2.75,1.5,23.24,23.24,0,0,0,3.46.66.48.48,0,0,0,.39-.14c1.12-1.76,3.2-1.87,4.82-2.73,1.44-.76,5.16,1.19,5.4,2.8a3.24,3.24,0,0,1-.83,3.21,11.34,11.34,0,0,0-1.34,1.43,6.33,6.33,0,0,1-3.77,2.38c-1,.19-1.91,1-2.91,1.41a3.63,3.63,0,0,1-2,.3,2.66,2.66,0,0,0-2.72.58c-1.34,1.25-2.65.89-4.16.23a2.8,2.8,0,0,0-2.36.52,3.67,3.67,0,0,1-3.67.79c-1-.27-2.22.19-3.34.34a21.88,21.88,0,0,0-2.79.44,7.16,7.16,0,0,0-1.49.84l-1.24.67c-1.57.81-3.14,1.63-4.72,2.41a2.16,2.16,0,0,1-1.12.27,21,21,0,0,0-6.56.43c-1.42.29-2.86.53-4.29.76a1.2,1.2,0,0,1-.73-.09c-1.08-.58-2.15-1.2-3.27-1.84a2.11,2.11,0,0,0,.23-2.32c-.26-.48.33-1.48.6-2.21.18-.5.67-1,.68-1.44,0-1.11.43-1.59,1.54-1.57.57,0,1.16-.16,1.73-.13,2.53.14,4.08-1.63,5.84-3a3.84,3.84,0,0,1,2.56-.95,2.52,2.52,0,0,0,2.82-1.72,8.33,8.33,0,0,1,1.14-2.22,1.92,1.92,0,0,0-.06-2.51c-1.44-1.9-1.32-4.09-1.29-6.27a2.07,2.07,0,0,1,.62-1.08c.54-.6,1.18-1.13.77-2.07a.47.47,0,0,1,0-.42c.74-.92.11-1.32-.6-1.74a32.45,32.45,0,0,1-3.31-2.1c-.36-.28-.4-1-.52-1.53a1,1,0,0,1,.23-.6,12.46,12.46,0,0,0,1.89-7.79,13.45,13.45,0,0,0-.64-3.26c-.55-1.76-1.23-3.47-1.73-4.88.35-.7.66-1.2.86-1.73s.19-1,.37-1.48c.34-.91,0-1.29-.74-2-1.17-1-2.47-2.32-2.1-4.26a1.47,1.47,0,0,0-.11-.64q-1.86-6.45-3.73-12.9a11.39,11.39,0,0,0-.49-1.13,19,19,0,0,0-1.65,1.06c-.83.67-1.62,1.05-2.59.2-.16-.15-.55-.1-.82,0-.64.12-1.27.3-1.91.45-2.65.63-5.43,1-7.19,3.57-.68-.87-1.29-1.19-2-.27-.11.15-.54.1-.81.06a15.51,15.51,0,0,1-3.71-.81,4.8,4.8,0,0,1-2.33-2.2c-1.08-2.67-1-2.74,1.53-4.14a16.85,16.85,0,0,1,2.15-.86c0-.7.7-.83,1.47-1q4.08-.78,8.13-1.63c.62-.13,1.05-.15,1.47.49a1.43,1.43,0,0,0,1.9.57c1.62-.71,3.21-1.49,4.87-2.08,1.21-.43,2.46-1,3.82-.49a1.63,1.63,0,0,0,.53.12,4.45,4.45,0,0,1,4.19,2.54,10.64,10.64,0,0,1,1.12,2.88c.62,2.77,1.19,5.56,1.63,8.36a12.47,12.47,0,0,1-.08,3.34,1.36,1.36,0,0,0,.62,1.47c.26.19.54.76.43,1-.79,1.82.19,3.4.64,5a11.79,11.79,0,0,1,.49,1.18,19.27,19.27,0,0,0,2.88,7.12,1.25,1.25,0,0,1,0,1.56,2.46,2.46,0,0,0-.32,1.58c.56,2.94,1.23,5.85,1.8,8.78A7.37,7.37,0,0,1,346.86,437.4Z" transform="translate(0)"/></g><g id="r"><path class="cls-11" d="M750.32,316.9h-1.67a11.08,11.08,0,0,1-1.41-.32c-2.51-.88-5.31-1.46-6.75-4-.73-1.28-.78-2.93-1.31-4.34-1.53-4.08-.2-7.45,2.43-10.53,1.93-2.25,6.17-3.84,9.15-2.26,2.54,1.34,5.19,2.59,6.23,5.63.52,1.52,1.12,3,1.68,4.53V309a9.59,9.59,0,0,1-7.65,7.5A2.87,2.87,0,0,0,750.32,316.9Zm-10.09-11.27c1.06,2.57.54,6.35,4.45,8.39,3.75,2,9,1.32,11-2.43,2.87-5.38.9-11.29-4.87-14.27a6.54,6.54,0,0,0-4.17-.76C742.59,297.64,740.49,300.65,740.23,305.63Z" transform="translate(0)"/><path class="cls-11" d="M754.43,310.21c-.64.13-1.41.55-1.87.33a3.94,3.94,0,0,1-1.34-1.66c-.39-.68-.48-1.82-1-2.07a7.63,7.63,0,0,0-2.85-.15c.35,1.25.64,2.52,1.11,3.73.1.27.83.3,1.29.85l-4.13.73a19.63,19.63,0,0,0,.58-4.3A16.75,16.75,0,0,0,745,303.3c-.14-.37-.91-.49-1.34-.79a5.51,5.51,0,0,1-.79-.81c.29-.25.56-.67.88-.72a44.21,44.21,0,0,1,6.37-.72c2,0,3,2.55,1.79,4.45s.15,4.8,2.33,4.94Zm-5.23-9.33c-1,1-1.86,1.6-2.11,2.36-.11.36,1.2,1.68,1.46,1.57a5,5,0,0,0,2.13-1.83C750.81,302.78,749.93,301.89,749.2,300.88Z" transform="translate(0)"/></g></svg>